<?xml version="1.0" encoding="utf-8"?>
<!-- Generator: Adobe Illustrator 27.8.1, SVG Export Plug-In . SVG Version: 6.00 Build 0)  -->
<svg version="1.1" id="Layer_1" xmlns="http://www.w3.org/2000/svg" xmlns:xlink="http://www.w3.org/1999/xlink" x="0px" y="0px"
	 viewBox="0 0 1280 640" style="enable-background:new 0 0 1280 640;" xml:space="preserve">
<style type="text/css">
	.st0{fill:#3B57A7;}
</style>
<g transform="translate(0.000000,640.000000) scale(0.100000,-0.100000)">
	<path class="st0" d="M2535,4316c-52-17-81-32-395-206c-579-322-869-449-1557-681c-414-139-458-156-486-184c-9-8-33-21-54-28
		s-38-19-38-27c0-21,90-62,250-113c460-148,680-222,837-281c339-127,697-294,1108-517c344-186,435-225,457-197
		c39,50-138,255-377,435c-342,258-774,460-1280,599c-69,19-136,34-149,34s-22,2-19,5s149-1,324-9c877-42,1775-56,3839-63
		c1759-5,3260,4,4500,27c2064,39,3286,97,3298,155c9,46-752,85-2278,116c-847,16-3635,23-4910,10c-2049-20-3615-57-4445-105
		c-129-8-236-13-238-11c-2,1,21,8,50,15c183,43,481,150,686,246c318,149,615,354,805,554c85,89,147,178,147,211c0,13-23,32-33,28
		C2576,4329,2557,4323,2535,4316z"/>
</g>
</svg>
