<?xml version="1.0" encoding="utf-8"?>
<!-- Generator: Adobe Illustrator 27.7.0, SVG Export Plug-In . SVG Version: 6.00 Build 0)  -->
<svg version="1.1" id="Layer_1" xmlns="http://www.w3.org/2000/svg" xmlns:xlink="http://www.w3.org/1999/xlink" x="0px" y="0px"
	 viewBox="0 0 327 361" style="enable-background:new 0 0 327 361;" xml:space="preserve">
<style type="text/css">
	.st0{fill:#3B57A7;}
</style>
<path class="st0" d="M95.4,0.2C86.6,1,67,4.3,53.8,7.1c-10.3,2.2-33.4,8.1-38.7,9.8C6.6,19.8,2,22.4,0.7,25.1c-1,2-0.9,3.1,0.2,5.6
	c0.6,1.2,1.1,2.9,1.2,4.2c0.2,1.8,0.6,2.9,2.4,6.2c3.5,6.6,5.3,9.2,17.5,24.9c8.4,10.8,12,15.6,21.2,28c3.7,5.1,7.8,10.5,9.1,12
	c5.7,6.8,15,16.1,18.4,18.3c1.3,0.9,1.3,0.9,1.8,0.2c0.7-0.9,0.6-1.8-0.2-4.4c-1.7-5.3-7.3-17.3-11.1-23.6
	C57.7,90.8,44.6,73,31.5,56.2c-8.7-11.1-10.6-13.7-10.4-13.9c0.3-0.3,33.5,8.3,47.7,12.3c41.7,11.9,75.5,25.9,100.8,41.5
	c27.2,16.8,53.2,40.5,81.9,74.8c20.1,23.9,30.1,39.2,39.5,60.2c9.2,20.7,20.7,53.6,25.1,72.1c3.6,15.2,7.4,38.4,7.4,45.6
	c0,4-0.5,6.1-2.2,8.5c-1.7,2.4-1.6,3.5,0.2,2.9c1.5-0.5,3.6-3,4.4-5.3c1.5-4.1,1.6-10.3,0.2-23.6c-2.6-24.5-5.1-37.3-11.8-59.5
	c-8.8-29.2-17.9-51.5-27.7-68.8c-11.6-20.3-36-50.6-59.9-74.5c-34-34.1-65.7-54-115.3-72.6C93.6,49.2,65.7,40.5,47.7,36
	c-1.7-0.4-2.9-0.9-2.8-1c0.1-0.1,2.9-0.8,6.1-1.5c8.8-2,20.9-5.1,28.6-7.4c10.5-3.1,30-10.2,31.2-11.3c0.8-0.7,2.7-4.5,2.5-5
	c-0.1-0.2,0-0.6,0.3-0.9c0.9-1.1,1.6-5.4,1-6.6c-0.2-0.4-0.8-0.8-1.3-0.9c-0.5-0.1-1.2-0.5-1.6-0.8C111.1,0.1,110,0,104.9,0
	C101.6,0,97.3,0.1,95.4,0.2z"/>
</svg>
