<?xml version="1.0" encoding="utf-8"?>
<!-- Generator: Adobe Illustrator 27.7.0, SVG Export Plug-In . SVG Version: 6.00 Build 0)  -->
<svg version="1.1" id="Layer_1" xmlns="http://www.w3.org/2000/svg" xmlns:xlink="http://www.w3.org/1999/xlink" x="0px" y="0px"
	 viewBox="0 0 40.8 40.1" style="enable-background:new 0 0 40.8 40.1;" xml:space="preserve">
<style type="text/css">
	.st0{fill:#3B57A7;}
</style>
<g>
	<g>
		<g>
			<path class="st0" d="M16.7,40.1c-0.5,0-1-0.1-1.6-0.2C8.3,38.5,3.5,34.4,0.7,27.5c-0.9-2.2-0.9-4.6,0-6.5c1-2,2.8-3.4,5.3-4.1
				c1-0.3,2-0.3,3-0.3c1.2,0,2.4,0,3-0.5c0.6-0.4,0.8-1.4,1.1-2.5c0.5-1.6,1-3.7,3-4.6c2.4-1.1,5.9-0.2,7.7,1.9
				c0.1,0.1,0.2,0.2,0.2,0.4c0.2,0,0.4,0.1,0.5,0.3c0.5,0.7,1.1,1.3,1.6,1.9c1.2,1.5,2.5,3,3.6,4.6c1,1.5,1.3,3.1,0.8,4.6
				c-0.5,1.5-1.6,2.8-3.4,3.6c-2.6,1.2-4,2.4-3.9,5.8c0.1,2.8-0.8,5.1-2.5,6.6C19.7,39.6,18.2,40.1,16.7,40.1z M8.8,18.1
				c-0.8,0-1.7,0-2.4,0.2c-2,0.6-3.6,1.7-4.3,3.3c-0.8,1.5-0.8,3.4,0,5.3c2.6,6.4,7.1,10.2,13.3,11.5c1.7,0.4,3.3,0,4.5-1
				c1.3-1.1,2-3,1.9-5.3c-0.2-4.2,1.8-5.9,4.8-7.2c1.3-0.6,2.2-1.5,2.5-2.6c0.3-1.1,0.1-2.2-0.6-3.3c-1-1.6-2.3-3-3.5-4.5
				c-0.5-0.7-1.1-1.3-1.6-2c-0.1-0.1-0.1-0.2-0.2-0.4c-0.2,0-0.3-0.1-0.5-0.3c-1.3-1.6-4.1-2.3-5.9-1.5c-1.4,0.6-1.8,2.1-2.2,3.6
				c-0.3,1.2-0.7,2.5-1.6,3.3c-1,0.8-2.5,0.8-4,0.8C8.9,18.1,8.9,18.1,8.8,18.1z"/>
		</g>
	</g>
	<g>
		<g>
			<path class="st0" d="M23.6,12.5c-0.2,0-0.4-0.1-0.6-0.3c-0.3-0.3-0.2-0.8,0.1-1.1l12.6-11c0.3-0.3,0.8-0.2,1,0.1l3.9,4.2
				c0.3,0.3,0.3,0.8,0,1.1c-0.8,0.8-1.7,1.3-2.5,1.8c-0.7,0.4-1.3,0.8-1.9,1.4c-0.3,0.3-0.8,0.3-1.1,0c-0.3-0.3-0.3-0.8,0-1.1
				c0.7-0.7,1.4-1.1,2.2-1.5c0.5-0.3,1.1-0.7,1.6-1.1l-2.8-3.1l-12,10.5C24,12.5,23.8,12.5,23.6,12.5z"/>
		</g>
	</g>
	<g>
		<g>
			<path class="st0" d="M27.8,15.7c-0.2,0-0.4-0.1-0.6-0.3c-0.3-0.3-0.2-0.8,0.1-1.1l7.9-6.9c0.2-0.1,0.4-0.2,0.6-0.2
				c0.2,0,0.4,0.2,0.5,0.3l1.5,2.4c0.2,0.4,0.1,0.8-0.2,1c-0.4,0.2-0.8,0.1-1-0.2l-1-1.7l-7.2,6.3C28.2,15.7,28,15.7,27.8,15.7z"/>
		</g>
	</g>
	<g>
		<g>
			<path class="st0" d="M13.6,33.5c-0.2,0-0.4-0.1-0.6-0.2l-6.8-7.4C6,25.5,6,25,6.3,24.8c0.3-0.3,0.8-0.3,1.1,0l6.8,7.4
				c0.3,0.3,0.3,0.8,0,1.1C14,33.4,13.8,33.5,13.6,33.5z"/>
		</g>
	</g>
	<g>
		<g>
			<path class="st0" d="M32,4.8c-0.2,0-0.4-0.1-0.5-0.2l-1.9-1.9c-0.3-0.3-0.3-0.8,0-1.1s0.8-0.3,1.1,0l1.9,1.9
				c0.3,0.3,0.3,0.8,0,1.1C32.4,4.7,32.2,4.8,32,4.8z"/>
		</g>
	</g>
	<g>
		<g>
			<path class="st0" d="M18.8,26.4c-0.2,0-0.5,0-0.7,0c-3.3-0.3-4.2-2.9-4.7-5.5c0-0.3,0-0.5,0.2-0.7L16,18c0.2-0.2,0.4-0.2,0.7-0.2
				c0.3-0.1,0.6,0,0.8,0c0.6,0,1.1-0.1,1.7,0.1c2.5,0.5,3.8,2.3,3.5,5C22.5,25.2,21.1,26.4,18.8,26.4z M14.9,21
				c0.6,2.7,1.4,3.7,3.3,3.9c1.9,0.2,2.9-0.5,3-2.2c0.2-1.9-0.5-3-2.3-3.4c-0.4-0.1-0.9-0.1-1.3,0c-0.3,0-0.5,0-0.8,0L14.9,21z"/>
		</g>
	</g>
</g>
</svg>
