<?xml version="1.0" encoding="utf-8"?>
<!-- Generator: Adobe Illustrator 27.7.0, SVG Export Plug-In . SVG Version: 6.00 Build 0)  -->
<svg version="1.1" id="Layer_1" xmlns="http://www.w3.org/2000/svg" xmlns:xlink="http://www.w3.org/1999/xlink" x="0px" y="0px"
	 viewBox="0 0 52 52" style="enable-background:new 0 0 52 52;" xml:space="preserve">
<style type="text/css">
	.st0{fill:#684E9A;}
</style>
<g>
	<g>
		<path class="st0" d="M5.8,4.2c8.3,0.1,16.6,0.3,24.8,0.4c3.7,0.1,8.9-0.8,12.4,0.2c3.9,1.1,2.6,7.5,2.6,11.1c0,1.9,0,3.8,0,5.6
			c0,1.3,0.6,4.4,0,5.6c-1.5,2.8-10.7,1.4-13.5,1.4c-8.6-0.1-17.2-0.1-25.8-0.2c0.4,0.4,0.8,0.8,1.2,1.2C7.5,21,7.5,12.4,7.4,3.7
			c0-1.6-2.5-1.6-2.5,0C5,12.4,5,21,5.1,29.6c0,0.7,0.6,1.2,1.2,1.2c7.3,0.1,14.5,0.1,21.8,0.2c3.3,0,6.6,0.1,9.9,0.1
			c2.9,0,6.2,0.5,8.9-0.2c0.4-0.1,0.8-0.5,0.9-0.9c1.5-5.3,0.3-12.5,0.2-18c0-2.8,1.3-8.5-1.9-9.7c-2.1-0.8-5.8-0.1-8-0.2
			c-3.8-0.1-7.6-0.1-11.5-0.2c-7-0.1-14-0.2-21-0.4C4.2,1.7,4.2,4.2,5.8,4.2L5.8,4.2z"/>
	</g>
	<g>
		<path class="st0" d="M5,30.1c-0.2,6.3-2.7,12.1-3.3,18.3c-0.1,0.7,0.6,1.2,1.2,1.2c7.3,0.9,14.8,0.5,22.2,0.5
			c8,0,15.9,0.1,23.9,0.1c0.6,0,1.3-0.6,1.2-1.2c-0.5-6.3-1.3-12.6-2.4-18.9c-0.3-1.6-2.7-0.9-2.4,0.7c1,6.1,1.8,12.1,2.3,18.2
			c0.4-0.4,0.8-0.8,1.2-1.2c-8,0-15.9-0.1-23.9-0.1c-7.4,0-14.9,0.4-22.2-0.5c0.4,0.4,0.8,0.8,1.2,1.2c0.6-6.2,3.1-12,3.3-18.3
			C7.6,28.5,5.1,28.5,5,30.1L5,30.1z"/>
	</g>
	<g>
		<path class="st0" d="M20,48.3c0.1-1.2,0-3.4,1.1-3.9c1.1-0.5,2.9-0.2,4.1-0.2c0.6,0,1.2,0,1.8-0.1c0.1,0,1.3-0.3,1.4-0.3
			c0.8,0.3,1.1,2.8,1.1,3.3c-0.1,1.6,2.4,1.6,2.5,0c0.1-1.7-0.5-3.4-1.6-4.8c-1.1-1.4-3.6-0.8-5.2-0.7c-1.7,0-4.7-0.5-6.1,0.6
			c-1.5,1.2-1.5,4.2-1.6,6C17.4,49.9,19.9,49.9,20,48.3L20,48.3z"/>
	</g>
</g>
</svg>
