<?xml version="1.0" encoding="UTF-8"?>
<svg id="Layer_2" data-name="Layer 2" xmlns="http://www.w3.org/2000/svg" viewBox="0 0 375.36 374.97">
  <defs>
    <style>
      .cls-1 {
        fill: #fff;
      }

      .cls-2 {
        fill: #684e9a;
      }

      .cls-3 {
        fill: #161849;
      }

      .cls-4 {
        fill: #3b57a7;
      }
    </style>
  </defs>
  <g id="Layer_1-2" data-name="Layer 1">
    <g>
      <g>
        <polygon class="cls-2" points="312.07 124 248.89 187.18 186.63 249.43 124 312.07 186.91 374.97 249.54 312.34 311.79 250.08 374.97 186.91 312.07 124"/>
        <polygon class="cls-3" points="249.81 61.74 186.63 124.92 124.38 187.18 61.74 249.81 124 312.07 186.63 249.43 248.89 187.18 312.07 124 249.81 61.74"/>
        <polygon class="cls-4" points="188.06 0 124.88 63.17 62.63 125.43 0 188.06 62.26 250.32 124.88 187.69 187.15 125.43 250.32 62.26 188.06 0"/>
        <rect class="cls-3" x="247.77" y="134.77" width="105.83" height="105.37" transform="translate(-44.48 267.52) rotate(-45)"/>
        <rect class="cls-3" x="196.31" y="186.22" width="105.83" height="105.37" transform="translate(-95.94 246.21) rotate(-45)"/>
      </g>
      <path class="cls-1" d="m337.62,194.49c-66.03,11.66-75.49,21.11-87.14,87.14-11.65-66.03-21.12-75.48-87.14-87.14,66.02-11.65,75.49-21.12,87.14-87.13,11.65,66.01,21.11,75.48,87.14,87.13Z"/>
    </g>
  </g>
</svg>