<?xml version="1.0" encoding="utf-8"?>
<!-- Generator: Adobe Illustrator 27.7.0, SVG Export Plug-In . SVG Version: 6.00 Build 0)  -->
<svg version="1.1" id="Layer_1" xmlns="http://www.w3.org/2000/svg" xmlns:xlink="http://www.w3.org/1999/xlink" x="0px" y="0px"
	 viewBox="0 0 52 52" style="enable-background:new 0 0 52 52;" xml:space="preserve">
<style type="text/css">
	.st0{fill:#684E9A;}
</style>
<g>
	<g>
		<g>
			<path class="st0" d="M30.2,23.3c-3.3,3.1-6.7,6-9.8,9.3c-1,1.1-2,2.8-3.2,3.7c-1.5,1.1-4.5,1.8-5.7-0.5c-1.7-3.2,3.9-6.5,5.6-8.5
				c2.1-2.4,3.7-5.3,5.6-7.9c1.2-1.6,1.4-2.5,1.3-4.5c-0.1-3.2-0.4-6,2.2-8.5c2.6-2.4,6.1-2.5,9.3-1.7c5.1,1.3,7.1,6.6,6.1,11.5
				c-1,5.6-6.6,4.5-10.6,6.4c-1.5,0.7-0.2,2.8,1.3,2.2c4-1.8,10.4-1.1,11.7-6.5c0.8-3.5,0.6-9.8-1.7-12.7
				c-5.7-7.3-19.4-4.1-20.9,5.1c-0.6,3.4-0.2,5.1-1.9,8.7c-1.6,3.2-3.7,6-6.3,8.5c-1.9,1.9-6.5,4.8-5.2,8c1.1,2.6,6.4,6,9.1,4.3
				c2-1.3,3.5-4,5.1-5.8c3.1-3.2,6.5-6.2,9.8-9.3C33.1,23.9,31.4,22.2,30.2,23.3L30.2,23.3z"/>
		</g>
		<g>
			<path class="st0" d="M26.3,7.9c2.1-0.5,5.7,3.1,7.6,4.2c3.1,1.7,5.1,4,5.4,7.6c0.1,1.6,2.6,1.6,2.5,0c-0.4-4-2.3-7.3-5.9-9.3
				c-2-1.1-3.6-2.3-5.4-3.7c-1.5-1.2-3-1.6-4.9-1.2C24.1,5.8,24.7,8.2,26.3,7.9L26.3,7.9z"/>
		</g>
		<g>
			<path class="st0" d="M17.8,37.3c0,3.8,0,7.7,0,11.5c0,1.6,2.5,1.6,2.5,0c0-3.8,0-7.7,0-11.5C20.3,35.7,17.8,35.7,17.8,37.3
				L17.8,37.3z"/>
		</g>
	</g>
	<g>
		<path class="st0" d="M13.7,50.4c3.5-0.1,6.9-0.1,10.4,0.1c1.6,0.1,1.6-2.4,0-2.5c-3.5-0.2-6.9-0.2-10.4-0.1
			C12.1,48,12.1,50.5,13.7,50.4L13.7,50.4z"/>
	</g>
</g>
</svg>
