<svg id="Layer_1" data-name="Layer 1" xmlns="http://www.w3.org/2000/svg" viewBox="0 0 199.51 80.31"><defs><style>.cls-1{fill:#fff;}.cls-2{fill:#93c83d;}.cls-3{fill:#007697;}.cls-4{fill:#0088bf;}.cls-5{fill:#bbbdbf;}</style></defs><title>logo</title><ellipse class="cls-1" cx="158.51" cy="40.16" rx="41.01" ry="40.16"/><path class="cls-2" d="M176.49,6.4A40.2,40.2,0,0,0,170.35,4c-55.48,7.8-51.2,42.52-42.47,61.23a39.79,39.79,0,0,0,28.5,14.62C138.36,63.32,109.66,22.83,176.49,6.4Z" transform="translate(-0.25 -1)"/><path class="cls-3" d="M170.35,4a40.52,40.52,0,0,0-11.42-1.64c-21.87,0-39.61,17.37-39.61,38.79a38.11,38.11,0,0,0,8.56,24.08C119.15,46.55,114.87,11.83,170.35,4Z" transform="translate(-0.25 -1)"/><path class="cls-1" d="M178.33,7.35c-.61-.33-1.22-.65-1.84-.95-66.83,16.43-38.13,56.92-20.11,73.48q1.26.09,2.55.09a40.81,40.81,0,0,0,5-.31C146.93,65.91,109.7,24.37,178.33,7.35Z" transform="translate(-0.25 -1)"/><path class="cls-4" d="M184.3,11.38a41.09,41.09,0,0,0-6-4c-68.63,17-31.4,58.56-14.43,72.31a39.94,39.94,0,0,0,20.24-8.56C159.57,51.47,134.32,23.8,184.3,11.38Z" transform="translate(-0.25 -1)"/><path class="cls-5" d="M198.54,41.18a38.42,38.42,0,0,0-14.24-29.8c-50,12.42-24.73,40.09-.16,59.72A38.4,38.4,0,0,0,198.54,41.18Z" transform="translate(-0.25 -1)"/><path class="cls-1" d="M3.83,57.05A4.49,4.49,0,0,1,8.18,52.5a4.52,4.52,0,0,1,4.35,4.61,4.35,4.35,0,1,1-8.7-.06Zm-3.58,0a7.86,7.86,0,0,0,7.93,7.76,7.76,7.76,0,1,0,0-15.52A7.89,7.89,0,0,0,.25,57.05Z" transform="translate(-0.25 -1)"/><path class="cls-1" d="M18.56,49.75h3.28V51a4.72,4.72,0,0,1,4-1.69,5.05,5.05,0,0,1,4.29,2.27,5.48,5.48,0,0,1,4.8-2.27c3.84,0,6.05,2.36,6.05,6.56v8.5H37.37V56.29c0-2.51-.95-3.79-2.83-3.79-2.09,0-3,1.4-3,4.58v7.27H28V56.29c0-2.45-1-3.79-3-3.79s-2.83,1.34-2.83,4.58v7.27H18.56Z" transform="translate(-0.25 -1)"/><path class="cls-1" d="M55.81,57a4.37,4.37,0,0,1-4.38,4.64,4.58,4.58,0,0,1,0-9.16A4.32,4.32,0,0,1,55.81,57Zm3.37-7.27H55.9v1.87a6.66,6.66,0,0,0-5-2.33A7.43,7.43,0,0,0,43.44,57c0,4.52,3.07,7.82,7.24,7.82a7.6,7.6,0,0,0,5.22-2.25v1.79h3.28Z" transform="translate(-0.25 -1)"/><path class="cls-1" d="M62.81,49.75h3.34V51a5.47,5.47,0,0,1,4-1.72,5.78,5.78,0,0,1,5.1,2.94,8.18,8.18,0,0,1,.78,4.23v7.89H72.5V57.17c0-3.15-1-4.67-3-4.67a3,3,0,0,0-2.71,1.78,7.79,7.79,0,0,0-.39,3.15v6.92H62.81Z" transform="translate(-0.25 -1)"/><path class="cls-1" d="M81.89,57.05a4.36,4.36,0,1,1,8.7.06,4.35,4.35,0,1,1-8.7-.06Zm-3.58,0a7.93,7.93,0,1,0,8-7.76A7.86,7.86,0,0,0,78.31,57.05Z" transform="translate(-0.25 -1)"/><rect class="cls-1" x="96.34" y="48.75" width="3.58" height="14.59"/><path class="cls-1" d="M103.5,44.91h3.58V64.35H103.5Z" transform="translate(-0.25 -1)"/><path class="cls-1" d="M100.25,46.53a1.88,1.88,0,1,1-1.88-1.84A1.86,1.86,0,0,1,100.25,46.53Z" transform="translate(-0.25 -1)"/><path class="cls-1" d="M103.5,23v6.71c0,3.15-1,4.76-3,4.76H99.42a1.21,1.21,0,0,0-.5.08,7.69,7.69,0,0,0,1.28-4.26,7.8,7.8,0,0,0-7.9-7.76,7.88,7.88,0,0,0-8,7.76,7.64,7.64,0,0,0,1.31,4.26,1.19,1.19,0,0,0-.51-.08H82.34v-.82a14.09,14.09,0,0,0-.75-5.25c-1.25-3.5-4.46-5.87-9-5.87-2.55,0-5.07.92-6.25,2.45V18.19H63V34.51H61.32v3.12h39.89a5.78,5.78,0,0,0,5.09-2.94,8.2,8.2,0,0,0,.78-4.24V23ZM66.62,30.62c0-3.07,3.06-4.69,6-4.69a5.56,5.56,0,0,1,5.28,2.88c.74,1.2,1,2.46,1,4.73v1H66.62Zm25.68,4.3a4.42,4.42,0,0,1-4.38-4.59,4.36,4.36,0,1,1,8.71.06A4.39,4.39,0,0,1,92.3,34.92Z" transform="translate(-0.25 -1)"/><path class="cls-1" d="M107.17,19.67a1.88,1.88,0,1,1-1.88-1.84A1.86,1.86,0,0,1,107.17,19.67Z" transform="translate(-0.25 -1)"/><path class="cls-1" d="M94.18,19.67a1.89,1.89,0,1,1-1.88-1.84A1.86,1.86,0,0,1,94.18,19.67Z" transform="translate(-0.25 -1)"/><path class="cls-1" d="M10.09,24.42A1.89,1.89,0,1,1,8.2,22.57,1.87,1.87,0,0,1,10.09,24.42Z" transform="translate(-0.25 -1)"/><path class="cls-1" d="M34.12,34.92a4.42,4.42,0,0,1-4.38-4.59,4.36,4.36,0,1,1,8.7.06A4.39,4.39,0,0,1,34.12,34.92Zm18.72-.41a4.35,4.35,0,0,1-4.45-4.44,4.18,4.18,0,0,1,4.32-4.32,3.21,3.21,0,0,1,2.91,1.4l2.57-2.38a7.62,7.62,0,0,0-5.48-2.23,7.83,7.83,0,0,0-7.89,7.73,7.59,7.59,0,0,0,1.34,4.31,1.63,1.63,0,0,0-.56-.07H43a2.55,2.55,0,0,1-1.82-.66A7.66,7.66,0,0,0,42,30.33a7.8,7.8,0,0,0-7.9-7.76,7.89,7.89,0,0,0-8,7.76A7.56,7.56,0,0,0,27,33.84a2.58,2.58,0,0,1-1.84.67h-2.8V18.19H18.8V37.63h7.09a5.1,5.1,0,0,0,3.36-1.16,8.07,8.07,0,0,0,9.71,0,4.92,4.92,0,0,0,3.32,1.15H58.89V34.51Z" transform="translate(-0.25 -1)"/><path class="cls-1" d="M14.11,25.15,11.6,27.48l0,0a4.83,4.83,0,0,1,1,2.89,4.39,4.39,0,0,1-4.32,4.52,4.41,4.41,0,0,1-4.38-4.58,4.66,4.66,0,0,1,.94-2.81l0,0L2.26,25.2a7.6,7.6,0,0,0-2,5.14A7.86,7.86,0,0,0,8.18,38.1a7.81,7.81,0,0,0,7.93-7.76A7.71,7.71,0,0,0,14.11,25.15Z" transform="translate(-0.25 -1)"/></svg>