<?xml version="1.0" encoding="UTF-8"?>
<svg xmlns="http://www.w3.org/2000/svg" version="1.1" viewBox="0 0 874.1 202">
  <defs>
    <style>
      .cls-1 {
        fill: none;
      }
    </style>
  </defs>
  <!-- Generator: Adobe Illustrator 28.7.1, SVG Export Plug-In . SVG Version: 1.2.0 Build 142)  -->
  <g>
    <g id="Layer_1">
      <g>
        <rect x="663.9" y="25" width="2" height="158.4"/>
        <path d="M17.2,53.9c.8.7,2,1.1,3.4,1.4,1.4.3,3.1.5,5.2.5h31.4v-20.9h-6.8v14.9h-22.7c-1.2,0-2.2,0-2.9-.1-.8,0-1.4-.2-1.8-.5-.4-.2-.8-.6-.9-1-.2-.4-.3-1-.3-1.6v-7.7h-6.8v8.7c0,1.5.2,2.8.6,3.8.4,1.1,1,1.9,1.8,2.6"/>
        <path d="M32,32.6c1,0,1.9-.4,2.6-1.1.7-.7,1.1-1.6,1.1-2.6s-.4-1.9-1.1-2.6c-.7-.7-1.6-1.1-2.6-1.1s-1.9.4-2.6,1.1c-.7.7-1.1,1.6-1.1,2.6s.4,1.9,1.1,2.6c.7.7,1.6,1.1,2.6,1.1"/>
        <path d="M40.6,32.6c1,0,1.9-.4,2.6-1.1s1.1-1.6,1.1-2.6-.4-1.9-1.1-2.6c-.7-.7-1.6-1.1-2.6-1.1s-1.9.4-2.6,1.1c-.7.7-1.1,1.6-1.1,2.6s.4,1.9,1.1,2.6c.7.7,1.6,1.1,2.6,1.1"/>
        <path d="M65.8,54.1c.7.6,1.6,1,2.6,1.3s2.1.4,3.3.4h50.5c2.4,0,4.3-.1,5.8-.5,1.5-.3,2.7-1.1,3.7-2.3,1.5,1.8,4,2.7,7.4,2.7s2.5-.2,3.6-.5c1.1-.3,2.2-1.1,3.3-2.3.3.5.8.9,1.3,1.2.6.3,1.2.6,1.8.8.7.2,1.4.4,2.1.5s1.4.2,2,.2,1.1,0,1.6,0c.6,0,1.1-.1,1.7-.3s1.1-.5,1.6-.8c.5-.4,1.1-.9,1.6-1.5.6,1.1,1.4,1.9,2.4,2.2.8.3,1.6.5,2.5.5.2,0,.3,0,.5,0h2c2.4,0,4.3-.1,5.8-.5,1.5-.3,2.7-1.1,3.7-2.3.5.7,1.4,1.3,2.6,1.9,1.2.6,2.7.9,4.5.9s1.1,0,1.8,0c.6,0,1.2-.1,1.9-.3.6-.2,1.2-.5,1.8-.8.6-.4,1.1-.9,1.7-1.5.7,1,1.5,1.6,2.4,2.1.9.4,2.3.7,4.2.7h8v-20.9h-6.8v14.9h-3.3c-2.1,0-3.1-1.2-3.1-3.6v-8.9h-6.8v10c0,1.1-.4,1.7-1.1,2s-1.6.5-2.6.5-2.2-.3-2.9-1c-.6-.6-.9-1.5-.9-2.6v-8.9h-6.7v10c0,.6,0,1.1-.2,1.4-.1.3-.4.6-.7.8-.3.2-.7.3-1.2.3-.5,0-1.1,0-1.9,0h-2.1c-1.7,0-2.8-.3-3.4-.8-.5-.6-.8-1.5-.8-2.8v-11.2h-6.8v12.2c0,1.1-.3,1.9-.9,2.2s-1.4.5-2.4.5-2.1-.3-2.7-.9c-.5-.6-.8-1.5-.8-2.7v-8.9h-6.8v10c0,1.1-.4,1.7-1.1,2s-1.6.5-2.6.5-2.2-.3-2.8-1c-.6-.6-.9-1.5-.9-2.6v-8.9h-6.8v10c0,.6,0,1.1-.2,1.4-.1.3-.4.6-.7.8-.3.2-.7.3-1.2.3s-1.1,0-1.9,0h-49.4c-.8,0-1.4-.2-1.9-.5-.4-.3-.6-1.1-.6-2.3v-28.6h-6.8v29.6c0,1.5.2,2.8.6,3.8.4,1,1,1.9,1.7,2.5"/>
        <path d="M217.4,42.1c.6-.9,1.5-1.3,2.8-1.3s2.4.5,2.9,1.6c.5,1.1.8,2.5.8,4.2v3.1h-3.5c-1.2,0-2.1-.3-2.9-.9-.7-.6-1.1-1.8-1.1-3.4,0-1.3.3-2.4.9-3.3M248.5,43.1c1-1,1.9-1.5,2.8-1.5s1.2.1,1.6.4.8.6,1,1c.3.4.5.9.6,1.4.1.5.2,1.1.2,1.6,0,1.2-.3,2.2-.9,3-.6.8-1.5,1.1-2.6,1.1s-1.8-.2-2.5-.5c-.8-.3-1.6-.8-2.5-1.3.6-2.5,1.3-4.2,2.3-5.2M212.9,53.5c1,.8,2.1,1.4,3.4,1.7s2.7.5,4.2.5h3.3c-.1.7-.4,1.3-.7,1.9-.4.5-1,1-1.8,1.4-.8.4-1.8.7-3,.9-1.2.2-2.8.3-4.6.3h-1.2v6.4h1.6c5.3,0,9.2-.9,11.9-2.6,2.6-1.7,4.2-4.5,4.7-8.3h6.8c1.1,0,2.1-.1,3.1-.3,1-.2,1.9-.8,2.8-1.8,1.5,1,3,1.7,4.5,2.2,1.4.4,2.9.6,4.2.6s3.4-.3,4.7-1c1.3-.7,2.3-1.6,3-2.8.8,1.1,1.7,1.9,2.7,2.4,1,.5,2.2.8,3.6.8h12.9V18.3h-6.8v31.5h-6c-.8,0-1.7-.2-2.7-.5-.9-.3-1.6-.9-2.1-1.8,0-.2,0-.4,0-.6s0-.4,0-.7c0-1.6-.2-3-.7-4.4-.5-1.3-1.2-2.5-2-3.4s-1.9-1.7-3.1-2.2c-1.2-.5-2.5-.8-3.8-.8s-1.9.2-2.9.5-2,.9-2.9,1.6c-1,.8-1.9,1.8-2.8,3.1-.9,1.3-1.7,3-2.5,5-.5,1.3-1,2.4-1.6,3-.6.7-1.1,1-1.5,1h-6.6v-1.5c0-2-.2-3.8-.5-5.5-.4-1.7-.9-3.1-1.7-4.3-.8-1.2-1.9-2.1-3.2-2.8-1.3-.7-2.9-1-4.8-1s-3.2.3-4.6,1-2.4,1.5-3.4,2.6c-.9,1.1-1.6,2.3-2.1,3.7s-.7,2.8-.7,4.1.3,3.2.8,4.5c.5,1.3,1.3,2.3,2.2,3.1"/>
        <path d="M226.5,25.3h-3.3c-1,0-1.7-.2-2-.6-.3-.4-.5-.9-.5-1.4s.2-1,.5-1.3c.3-.4.9-.5,1.7-.5s.5,0,.9,0c.4,0,.9.1,1.4.3v-4c-.4-.1-.9-.3-1.4-.4-.5-.1-1.1-.2-1.8-.2s-1.4.1-2.1.4c-.7.2-1.3.6-1.8,1.1-.5.5-1,1.1-1.3,1.8-.3.7-.5,1.5-.5,2.5s0,.8.1,1.3.2.9.4,1.2h-2.4v4.3h12v-4.3Z"/>
        <rect x="285.4" y="18.3" width="6.8" height="37.5"/>
        <path d="M317.2,26.9c1,0,1.9-.4,2.6-1.1s1.1-1.6,1.1-2.6-.4-1.9-1.1-2.6c-.7-.7-1.6-1.1-2.6-1.1s-1.9.4-2.6,1.1-1.1,1.6-1.1,2.6.4,1.9,1.1,2.6,1.6,1.1,2.6,1.1"/>
        <path d="M325.7,26.9c1,0,1.9-.4,2.6-1.1s1.1-1.6,1.1-2.6-.4-1.9-1.1-2.6c-.7-.7-1.6-1.1-2.6-1.1s-1.9.4-2.6,1.1c-.7.7-1.1,1.6-1.1,2.6s.4,1.9,1.1,2.6c.7.7,1.6,1.1,2.6,1.1"/>
        <path d="M323.1,45.6c-.5.2-1,.3-1.5.3-.5,0-.9,0-1.4,0-.7,0-1.3-.1-1.8-.4-.5-.2-.9-.5-1.1-.9-.3-.4-.5-.8-.6-1.3-.1-.5-.2-.9-.2-1.3,0-1.1.3-2,1-2.7s1.6-1,2.9-1h2.6v7.2ZM427.8,43.1c1-1,1.9-1.5,2.8-1.5s1.2.1,1.6.4.8.6,1.1,1c.3.4.5.9.6,1.4.1.5.2,1,.2,1.6,0,1.2-.3,2.2-.9,3-.6.8-1.5,1.1-2.6,1.1s-1.8-.2-2.5-.5-1.6-.8-2.5-1.3c.6-2.5,1.3-4.2,2.3-5.2M400.5,55.8c.7,0,1.4,0,2.1,0,.7,0,1.4-.2,2.1-.3.7-.2,1.3-.5,1.9-.8.6-.4,1.1-.9,1.5-1.5.3.6.7,1,1.2,1.4s1,.6,1.5.8c.5.2,1.1.3,1.6.4s1.1.1,1.6.1h2.8c1.1,0,2.2-.1,3.1-.3,1-.2,1.9-.8,2.8-1.8,1.5,1,3,1.7,4.5,2.1,1.4.4,2.8.6,4.2.6s3.4-.3,4.7-1,2.3-1.6,3-2.8c.8,1.1,1.7,1.9,2.7,2.4s2.2.8,3.6.8h4.3c.7,0,1.4,0,2.1,0,.7,0,1.4-.2,2.1-.3.7-.2,1.3-.5,1.9-.8.6-.4,1.1-.9,1.5-1.5.6,1.1,1.4,1.9,2.4,2.2s1.9.5,2.9.5h12.9v-20.9h-6.8v14.9h-6c-1.7,0-2.8-.3-3.2-.8-.5-.5-.7-1.5-.7-2.8v-11.2h-6.8v11.8c0,1.3-.2,2.1-.7,2.5-.5.4-1.3.5-2.5.5h-3.2c-.8,0-1.7-.2-2.7-.5-1-.3-1.7-.9-2.1-1.8,0-.2,0-.4,0-.6s0-.4,0-.7c0-1.6-.2-3-.7-4.4-.5-1.3-1.2-2.5-2-3.4-.9-.9-1.9-1.7-3.1-2.2-1.2-.5-2.5-.8-3.8-.8s-1.9.2-2.9.5c-1,.3-2,.9-2.9,1.6-1,.8-1.9,1.8-2.8,3.1-.9,1.3-1.7,3-2.5,5-.5,1.3-1,2.3-1.7,3-.6.7-1.1,1-1.5,1h-2.7c-1.7,0-2.9-.3-3.5-.8-.7-.5-1-1.5-1-2.8v-11.2h-6.8v11.8c0,1.3-.2,2.1-.7,2.5s-1.3.5-2.5.5h-67.6c-.8,0-1.3-.1-1.5-.5-.2-.3-.3-.9-.3-1.6v-15.7h-8.9c-1.3,0-2.5.2-3.9.5s-2.5,1-3.6,1.8-2,1.9-2.6,3.3c-.7,1.3-1,3-1,4.9s.4,3.6,1.1,4.8c.7,1.2,1.6,2.2,2.6,2.9,1,.7,2.1,1.2,3.3,1.4s2.2.4,3,.4,1.3,0,1.9-.1c.6,0,1.2-.2,1.8-.3.3.9.7,1.6,1.2,2.1.5.5,1.1,1,1.8,1.3.7.3,1.4.5,2.2.7.8.1,1.6.2,2.4.2h69.2Z"/>
        <path d="M397.6,62c-.7.7-1.1,1.6-1.1,2.6s.4,1.9,1.1,2.6c.7.7,1.6,1.1,2.6,1.1s1.9-.4,2.6-1.1c.7-.7,1.1-1.6,1.1-2.6s-.4-1.9-1.1-2.6c-.7-.7-1.6-1.1-2.6-1.1s-1.9.4-2.6,1.1"/>
        <path d="M408.8,60.9c-1,0-1.9.4-2.6,1.1-.7.7-1.1,1.6-1.1,2.6s.4,1.9,1.1,2.6c.7.7,1.6,1.1,2.6,1.1s1.9-.4,2.6-1.1c.7-.7,1.1-1.6,1.1-2.6s-.4-1.9-1.1-2.6c-.7-.7-1.6-1.1-2.6-1.1"/>
        <path d="M455.2,29.5c1,0,1.9-.4,2.6-1.1s1.1-1.6,1.1-2.6-.4-1.9-1.1-2.6-1.6-1.1-2.6-1.1-1.9.4-2.6,1.1c-.7.7-1.1,1.6-1.1,2.6s.4,1.9,1.1,2.6c.7.7,1.6,1.1,2.6,1.1"/>
        <path d="M467.3,29.5c1,0,1.9-.4,2.6-1.1.7-.7,1.1-1.6,1.1-2.6s-.4-1.9-1.1-2.6-1.6-1.1-2.6-1.1-1.9.4-2.6,1.1c-.7.7-1.1,1.6-1.1,2.6s.4,1.9,1.1,2.6c.7.7,1.6,1.1,2.6,1.1"/>
        <path d="M475.8,29.5c1,0,1.9-.4,2.6-1.1s1.1-1.6,1.1-2.6-.4-1.9-1.1-2.6-1.6-1.1-2.6-1.1-1.9.4-2.6,1.1c-.7.7-1.1,1.6-1.1,2.6s.4,1.9,1.1,2.6c.7.7,1.6,1.1,2.6,1.1"/>
        <path d="M500.6,26.9c1,0,1.9-.4,2.6-1.1s1.1-1.6,1.1-2.6-.4-1.9-1.1-2.6-1.6-1.1-2.6-1.1-1.9.4-2.6,1.1c-.7.7-1.1,1.6-1.1,2.6s.4,1.9,1.1,2.6c.7.7,1.6,1.1,2.6,1.1"/>
        <path d="M509.1,26.9c1,0,1.9-.4,2.6-1.1.7-.7,1.1-1.6,1.1-2.6s-.4-1.9-1.1-2.6-1.6-1.1-2.6-1.1-1.9.4-2.6,1.1c-.7.7-1.1,1.6-1.1,2.6s.4,1.9,1.1,2.6c.7.7,1.6,1.1,2.6,1.1"/>
        <path d="M579,25.3h-3.2c-1,0-1.7-.2-2-.6-.3-.4-.5-.9-.5-1.4s.2-1,.5-1.3.9-.5,1.7-.5.5,0,.9,0,.9.1,1.4.3v-4c-.4-.1-.8-.3-1.4-.4-.5-.1-1.1-.2-1.8-.2s-1.4.1-2.1.4c-.7.2-1.3.6-1.8,1.1-.5.5-1,1.1-1.3,1.8-.3.7-.5,1.5-.5,2.5s0,.8.1,1.3.2.9.4,1.2h-2.4v4.3h12v-4.3h0Z"/>
        <path d="M585.3,68.3c1,0,1.9-.4,2.6-1.1.7-.7,1.1-1.6,1.1-2.6s-.4-1.9-1.1-2.6-1.6-1.1-2.6-1.1-1.9.4-2.6,1.1c-.7.7-1.1,1.6-1.1,2.6s.4,1.9,1.1,2.6c.7.7,1.6,1.1,2.6,1.1"/>
        <path d="M596.5,67.2c.7-.7,1.1-1.6,1.1-2.6s-.4-1.9-1.1-2.6-1.6-1.1-2.6-1.1-1.9.4-2.6,1.1c-.7.7-1.1,1.6-1.1,2.6s.4,1.9,1.1,2.6c.7.7,1.6,1.1,2.6,1.1,1,0,1.9-.4,2.6-1.1"/>
        <path d="M618.6,49.7c.2-.6.5-1.3.6-2.1.2-.8.2-1.7.2-2.8s-.2-1.9-.5-3.1c-.3-1.2-.9-2.3-1.7-3.3,2.3.8,4.1,2,5.3,3.8,1.2,1.8,1.8,4.2,1.8,7.4h-5.7ZM614,46.3c0,.5-.2,1-.3,1.5-.1.5-.3.9-.6,1.2-.3.3-.6.5-1,.5s-.8-.1-1.1-.5c-.3-.3-.5-.7-.7-1.1-.2-.5-.3-1-.4-1.5,0-.5-.1-1-.1-1.4s0-1.2.1-1.8c0-.6.2-1.1.4-1.6.2-.5.4-.9.7-1.1.3-.3.6-.5.9-.5s.8.2,1,.5c.3.3.5.7.7,1.2.2.5.3,1,.4,1.5s.1,1.1.1,1.6c0,.4,0,.8,0,1.4M506.5,45.6c-.5.2-1,.3-1.4.3-.5,0-.9,0-1.4,0-.7,0-1.3-.1-1.8-.4-.5-.2-.8-.5-1.1-.9-.3-.4-.5-.8-.6-1.2-.1-.5-.2-.9-.2-1.3,0-1.1.3-2,1-2.7.7-.7,1.6-1,2.9-1h2.6v7.2h0ZM625.5,37.2c-3.5-3.2-8.5-4.8-15-4.8s-2,0-3,.1c-1,0-2,.2-3,.3v4.8c.6,0,1.2-.1,1.8-.1.6,0,1.2,0,1.7,0-1.1.9-1.9,2.1-2.5,3.6-.6,1.5-.9,3-.9,4.7s.2,2.8.7,4h-6.3c-1.7,0-2.9-.3-3.5-.8-.7-.5-1-1.5-1-2.8v-11.2h-6.8v11.8c0,1.3-.2,2.1-.7,2.5-.5.4-1.3.5-2.5.5h-4.2c-1.7,0-2.8-.3-3.3-.8-.5-.5-.7-1.5-.7-2.8v-11.2h-6.8v11.8c0,1.3-.2,2.1-.7,2.5-.5.4-1.3.5-2.5.5h-51.1c-.8,0-1.3-.1-1.5-.4-.2-.3-.3-.9-.3-1.6v-15.7h-8.9c-1.3,0-2.5.2-3.9.5-1.3.4-2.5,1-3.6,1.8-1.1.8-2,1.9-2.6,3.3-.7,1.3-1,3-1,4.9s.4,3.6,1.1,4.8c.7,1.2,1.6,2.2,2.6,2.9,1,.7,2.1,1.2,3.3,1.4,1.2.3,2.2.4,3,.4s1.3,0,1.9-.1c.6,0,1.2-.2,1.8-.3.3.9.7,1.6,1.2,2.1s1.1,1,1.8,1.3c.7.3,1.4.5,2.2.6.8.1,1.6.2,2.4.2h52.7c.7,0,1.4,0,2.1,0s1.4-.2,2.1-.3c.7-.2,1.3-.5,1.9-.8.6-.4,1.1-.9,1.5-1.4.6,1.1,1.4,1.9,2.4,2.2s1.9.5,2.9.5h5.3c.7,0,1.4,0,2.1,0,.7,0,1.4-.2,2.1-.3.7-.2,1.3-.5,1.9-.8.6-.4,1.1-.9,1.5-1.4.3.6.7,1,1.2,1.4.5.4,1,.6,1.5.8.5.2,1.1.3,1.6.4.5,0,1.1.1,1.6.1h31.8v-4.9c0-6-1.8-10.6-5.3-13.7"/>
        <path d="M27.7,74c-.7.7-1.1,1.6-1.1,2.6s.4,1.9,1.1,2.6c.7.7,1.6,1.1,2.6,1.1s1.9-.4,2.6-1.1c.7-.7,1.1-1.6,1.1-2.6s-.4-1.9-1.1-2.6c-.7-.7-1.6-1.1-2.6-1.1s-1.9.4-2.6,1.1"/>
        <path d="M19.1,74c-.7.7-1.1,1.6-1.1,2.6s.4,1.9,1.1,2.6c.7.7,1.6,1.1,2.6,1.1s1.9-.4,2.6-1.1c.7-.7,1.1-1.6,1.1-2.6s-.4-1.9-1.1-2.6c-.7-.7-1.6-1.1-2.6-1.1s-1.9.4-2.6,1.1"/>
        <path d="M167.4,103.2h-15.4c.5-1.2,1.1-2.4,1.9-3.5s1.6-2.1,2.5-2.9c.9-.8,1.8-1.5,2.9-2,1-.5,2-.7,3.1-.7,1.9,0,3.2.6,4,1.8s1.1,2.6,1.1,4.4v3ZM27.7,99c-.5.2-1,.3-1.4.3-.5,0-.9,0-1.4,0-.7,0-1.3-.1-1.8-.4-.5-.2-.8-.5-1.1-.9-.3-.4-.5-.8-.6-1.2s-.2-.9-.2-1.3c0-1.1.3-2,1-2.7.7-.7,1.6-1,2.9-1h2.6v7.2ZM178.3,109.2h2c2.4,0,4.3-.2,5.8-.5s2.7-1.1,3.7-2.3c.5.7,1.4,1.3,2.6,1.9,1.2.6,2.7.9,4.5.9s1.1,0,1.8,0c.6,0,1.2-.1,1.9-.3.6-.2,1.2-.4,1.8-.8.6-.4,1.2-.9,1.7-1.5.7.9,1.5,1.6,2.4,2.1,1,.5,2.3.7,4.2.7h8v-20.9h-6.8v14.9h-3.3c-2.1,0-3.1-1.2-3.1-3.6v-8.9h-6.8v10c0,1.1-.4,1.7-1.1,2s-1.6.5-2.6.5-2.2-.3-2.9-1c-.6-.7-.9-1.5-.9-2.7v-8.9h-6.7v10c0,.6,0,1.1-.2,1.4-.1.3-.4.6-.7.8-.3.2-.7.3-1.2.3-.5,0-1.1,0-1.9,0h-6.2v-3.4c0-3.8-.9-6.8-2.8-8.9-1.9-2.2-4.6-3.2-8.3-3.2s-4.4.6-6.4,1.7c-2,1.1-3.7,2.6-5.1,4.3v-21.9h-6.8v31.5H36.3c-.8,0-1.3-.2-1.5-.4-.2-.3-.3-.8-.3-1.7v-15.7h-8.9c-1.3,0-2.6.2-3.9.5s-2.5,1-3.6,1.8-1.9,1.9-2.6,3.2-1,3-1,4.9.4,3.6,1.1,4.8c.7,1.2,1.6,2.2,2.6,2.9,1,.7,2.1,1.2,3.3,1.4,1.2.3,2.2.4,3.1.4s1.3,0,1.9-.1c.6,0,1.2-.2,1.8-.3.3.9.7,1.6,1.2,2.1.5.5,1.1,1,1.8,1.3.7.3,1.4.5,2.2.7s1.6.2,2.4.2h142.5Z"/>
        <path d="M250.5,76.6c-.7.7-1.1,1.6-1.1,2.6s.4,1.9,1.1,2.6c.7.7,1.6,1.1,2.6,1.1s1.9-.4,2.6-1.1c.7-.7,1.1-1.6,1.1-2.6s-.4-1.9-1.1-2.6c-.7-.7-1.6-1.1-2.6-1.1-1,0-1.9.4-2.6,1.1"/>
        <path d="M259,76.6c-.7.7-1.1,1.6-1.1,2.6s.4,1.9,1.1,2.6c.7.7,1.6,1.1,2.6,1.1s1.9-.4,2.6-1.1c.7-.7,1.1-1.6,1.1-2.6s-.4-1.9-1.1-2.6c-.7-.7-1.6-1.1-2.6-1.1-1,0-1.9.4-2.6,1.1"/>
        <path d="M284.4,102.4c-.6.8-1.5,1.1-2.6,1.1s-1.8-.2-2.5-.5c-.8-.3-1.6-.8-2.5-1.3.6-2.5,1.3-4.2,2.3-5.2,1-1,1.9-1.5,2.8-1.5s1.2.1,1.6.4.8.6,1,1c.3.4.5.9.6,1.4.1.5.2,1.1.2,1.6,0,1.2-.3,2.2-.9,3M237.3,103.2h-3.5c-1.2,0-2.1-.3-2.9-.9s-1.1-1.8-1.1-3.4.3-2.4.9-3.3,1.5-1.3,2.8-1.3,2.4.5,2.9,1.7c.5,1.1.8,2.5.8,4.2v3.2h0ZM309.5,109.2v-37.5h-6.8v31.5h-6c-.8,0-1.7-.2-2.7-.5-1-.3-1.6-.9-2.1-1.8,0-.2,0-.4,0-.6s0-.4,0-.7c0-1.6-.2-3-.7-4.4-.5-1.3-1.2-2.5-2-3.4-.9-.9-1.9-1.7-3.1-2.2-1.2-.5-2.5-.8-3.8-.8s-1.9.2-2.9.5c-1,.3-2,.9-2.9,1.7-1,.8-1.9,1.8-2.8,3.2-.9,1.3-1.7,3-2.5,5-.5,1.3-1,2.3-1.6,3-.6.7-1.1,1-1.5,1h-2.7c-1.7,0-2.8-.3-3.2-.8-.5-.6-.7-1.5-.7-2.8v-11.2h-6.8v11.8c0,1.3-.2,2.1-.7,2.5-.5.4-1.3.5-2.5.5h-7.1v-1.5c0-2-.2-3.8-.5-5.5-.4-1.7-.9-3.1-1.7-4.3-.8-1.2-1.9-2.1-3.2-2.8-1.3-.7-2.9-1-4.9-1s-3.2.3-4.6,1c-1.3.7-2.4,1.5-3.4,2.6-.9,1.1-1.6,2.3-2.1,3.7-.5,1.4-.7,2.8-.7,4.1s.3,3.2.8,4.5c.5,1.2,1.3,2.3,2.2,3,.9.8,2.1,1.4,3.4,1.7,1.3.3,2.7.5,4.2.5h3.2c-.1.7-.3,1.3-.7,1.9-.4.5-1,1-1.8,1.4-.8.4-1.8.7-3,.9-1.2.2-2.8.3-4.6.3h-1.2v6.4h1.6c5.3,0,9.2-.9,11.9-2.6,2.6-1.7,4.2-4.5,4.7-8.3h8.3c.7,0,1.4,0,2.1,0s1.4-.2,2.1-.3c.7-.2,1.3-.5,1.9-.8.6-.4,1.1-.8,1.5-1.4.6,1.1,1.4,1.8,2.4,2.2.9.3,1.9.5,2.9.5h2.8c1.1,0,2.1,0,3.1-.3,1-.2,1.9-.8,2.8-1.8,1.5,1,3,1.7,4.5,2.2,1.4.4,2.9.6,4.2.6s3.4-.3,4.7-1c1.3-.7,2.3-1.6,3-2.8.8,1.1,1.7,1.9,2.7,2.4,1,.5,2.2.8,3.6.8h12.8Z"/>
        <rect x="315.9" y="71.7" width="6.8" height="37.5"/>
        <path d="M337.8,103.3c-1.2,0-2.2-.3-2.9-.9s-1-1.8-1-3.6.3-2.3.9-3.2c.6-.9,1.5-1.4,2.9-1.4s2.3.5,2.8,1.6c.5,1,.8,2.5.8,4.2v2.6c-.9.5-2,.7-3.5.7M338.7,112.3c-.8.4-1.8.8-3,1s-2.9.4-4.8.4h-1.2v6.4h1.6c3,0,5.5-.3,7.6-.8,2.1-.5,3.9-1.4,5.2-2.5,1.4-1.2,2.3-2.6,3-4.4.6-1.8.9-3.9.9-6.3v-4.4c0-2-.2-3.8-.5-5.5-.4-1.7-.9-3.1-1.7-4.3-.8-1.2-1.8-2.2-3.1-2.8-1.3-.7-2.9-1-4.9-1s-3.3.3-4.6,1c-1.3.7-2.4,1.5-3.3,2.6-.9,1.1-1.6,2.3-2,3.7-.5,1.4-.7,2.7-.7,4.1s.3,3.2.8,4.5,1.2,2.3,2.1,3c.9.8,2,1.4,3.2,1.7,1.2.3,2.5.5,3.9.5s2.8-.2,3.8-.5c0,.7-.3,1.4-.6,2-.4.6-.9,1.1-1.7,1.6"/>
        <path d="M371.8,82.9c1,0,1.9-.4,2.6-1.1.7-.7,1.1-1.6,1.1-2.6s-.4-1.9-1.1-2.6c-.7-.7-1.6-1.1-2.6-1.1s-1.9.4-2.6,1.1-1.1,1.6-1.1,2.6.4,1.9,1.1,2.6c.7.7,1.6,1.1,2.6,1.1"/>
        <path d="M383,81.8c.7-.7,1.1-1.6,1.1-2.6s-.4-1.9-1.1-2.6c-.7-.7-1.6-1.1-2.6-1.1s-1.9.4-2.6,1.1c-.7.7-1.1,1.6-1.1,2.6s.4,1.9,1.1,2.6c.7.7,1.6,1.1,2.6,1.1s1.9-.4,2.6-1.1"/>
        <path d="M378.7,102.4c-.6.7-1.5,1-2.7,1s-2.4-.4-3-1.1-.9-1.7-.9-3,0-1.3.2-1.9c.1-.7.4-1.2.6-1.8.3-.5.7-1,1.2-1.3.5-.3,1.1-.5,1.8-.5,1.2,0,2.2.5,2.8,1.7s1,2.5,1,4c0,1.2-.3,2.2-1,2.9M383.2,90.8c-.9-1-2-1.8-3.2-2.4-1.2-.6-2.6-.8-4.1-.8s-3,.4-4.3,1.1c-1.3.7-2.3,1.7-3.2,2.8-.9,1.2-1.6,2.5-2,3.9-.5,1.5-.7,2.9-.7,4.3s.2,3.1.7,4.3c.5,1.2,1.2,2.2,2.1,3,.9.8,2,1.4,3.2,1.8,1.2.4,2.6.6,4.1.6s3.4-.3,4.8-.8,2.4-1.3,3.2-2.2,1.5-1.9,1.8-3.1c.4-1.2.6-2.3.6-3.6,0-1.9-.3-3.6-.8-5.1-.5-1.5-1.2-2.8-2.1-3.8"/>
        <path d="M520.9,121.8c1,0,1.9-.4,2.6-1.1.7-.7,1.1-1.6,1.1-2.6s-.4-1.9-1.1-2.6-1.6-1.1-2.6-1.1-1.9.4-2.6,1.1c-.7.7-1.1,1.6-1.1,2.6s.4,1.9,1.1,2.6c.7.7,1.6,1.1,2.6,1.1"/>
        <path d="M516.1,118c0-1-.4-1.9-1.1-2.6-.7-.7-1.6-1.1-2.6-1.1s-1.9.4-2.6,1.1c-.7.7-1.1,1.6-1.1,2.6s.4,1.9,1.1,2.6c.7.7,1.6,1.1,2.6,1.1s1.9-.4,2.6-1.1c.7-.8,1.1-1.6,1.1-2.6"/>
        <path d="M543.3,81.8c.7-.7,1.1-1.6,1.1-2.6s-.4-1.9-1.1-2.6c-.7-.7-1.6-1.1-2.6-1.1s-1.9.4-2.6,1.1c-.7.7-1.1,1.6-1.1,2.6s.4,1.9,1.1,2.6,1.6,1.1,2.6,1.1,1.9-.4,2.6-1.1"/>
        <path d="M542.7,98.5c-.6,1-1.3,1.7-2.3,2.3-.4-.3-.8-.8-1.2-1.3-.4-.5-.9-1-1.3-1.5-.5-.5-.9-1-1.3-1.6s-.8-1-1.1-1.5c.5-.3,1.2-.7,2-1s1.9-.5,3.1-.5,1.1,0,1.5.2c.4.2.7.3.9.6.2.2.3.5.4.8s0,.6,0,.8c0,.7-.3,1.5-.8,2.5M579.6,99.9c.8-1,1.6-2,2.5-2.7.9-.8,1.8-1.4,2.9-1.9,1-.5,2.1-.7,3.2-.7,1.9,0,3.2.6,4,1.7.8,1.2,1.2,2.6,1.2,4.4v2.5h-15.7c.5-1.1,1.2-2.2,1.9-3.3M604.3,109.2h12.9v-37.5h-6.8v31.5h-10.1v-3.4c0-3.8-1-6.8-3-9-2-2.1-4.8-3.2-8.4-3.2s-4.3.5-6.2,1.4c-2,.9-3.8,2.1-5.4,3.5-1.6,1.5-3,3.1-4.2,5-1.2,1.9-2.1,3.7-2.8,5.6-1.2,0-2.1-.4-2.6-1-.5-.6-.8-1.5-.8-2.6v-8.9h-6.8v10c0,.6,0,1.1-.2,1.4s-.4.6-.7.8c-.3.2-.7.3-1.2.3-.5,0-1.2,0-1.9,0h-10.6c1.6-1.2,2.8-2.6,3.6-4.1.8-1.5,1.2-2.9,1.2-4.1s-.2-1.8-.6-2.7c-.4-.9-1-1.7-1.8-2.3-.8-.7-1.8-1.2-3-1.7-1.2-.4-2.6-.6-4.2-.6s-3.6.3-5.2,1c-1.6.7-3,1.6-4.1,2.8-.2.2-.4.6-.7.9s-.5.8-.7,1.3-.4,1-.6,1.5c-.2.5-.3,1-.4,1.4l5.2,6.3c-.7.1-1.5.2-2.3.3s-1.6,0-2.3,0h-3.6c-1.7,0-2.9-.3-3.5-.8-.7-.6-1-1.5-1-2.8v-11.2h-6.8v11.8c0,1.3-.2,2.1-.7,2.5-.5.4-1.3.5-2.5.5h-105.2c-.5,0-.9,0-1.4-.2s-.9-.3-1.3-.6c-.4-.3-.7-.7-.9-1.1-.2-.5-.3-1-.3-1.7v-8.9h-6.8v15.7c0,1.3,0,2.4-.2,3.3-.1.9-.4,1.7-.8,2.3-.4.6-1,1.1-1.9,1.3-.8.3-2,.4-3.4.5v6.4c2.2,0,4.2-.3,5.8-.7s3-1.1,4-2.1c1.1-1,1.9-2.3,2.4-3.9.5-1.6.8-3.6.9-6,.6.7,1.3,1.2,2.1,1.4.4,0,.7.2,1,.2,0,0,0,0,0,0,.2,0,.5,0,.8,0h106.3c.7,0,1.4,0,2.1,0,.7,0,1.4-.2,2.1-.3.7-.2,1.3-.4,1.9-.8.6-.4,1.1-.9,1.5-1.4.3.5.7,1,1.2,1.4s1,.6,1.5.8c.5.2,1.1.3,1.6.4s1.1,0,1.6,0h3.8c1.6,0,3.1-.2,4.7-.5,1.5-.3,3.1-.8,4.7-1.4,1,.7,2,1.2,3.1,1.5s2.2.5,3.1.5h10.5c2.4,0,4.3-.2,5.8-.5s2.7-1.1,3.6-2.3c.6.7,1.5,1.3,2.7,1.9,1.2.6,2.8.9,4.5.9h31.7Z"/>
        <rect x="623.5" y="71.7" width="6.8" height="37.5"/>
        <path d="M23,151.3c0-1.8,1.8-4.1,6.4-4.1s5.5.9,8.3,3.6l4.2-3.8c-3-3-7.1-4.6-12.1-4.6s-12.6,3.8-12.6,9.2c0,12.5,19.6,5.9,19.6,12.7s-3,4.5-7.3,4.6c-3.5,0-6.7-1.7-9.1-4.1l-4.2,3.8c3.9,4,8.8,5.6,13.1,5.6,7,0,13.4-3.8,13.4-10.2,0-12.7-19.6-5.8-19.6-12.7"/>
        <polygon points="48 142.4 48 173.5 53.7 173.5 53.7 154.7 61.6 162.9 69.5 154.7 69.5 173.5 75.1 173.5 75.1 142.4 61.6 156.1 48 142.4"/>
        <polygon points="80.4 173.5 103.8 173.5 103.8 168.2 86 168.2 86 160.6 98.4 160.6 98.4 155.2 86 155.2 86 148.4 103.8 148.4 103.8 143 80.4 143 80.4 173.5"/>
        <path d="M120.9,160l-5.1-.9c-1.9-.3-3.1-1-3.1-2.5s2.2-3,4.4-3,3.8.5,6.3,2.7l2.9-3.5c-3.2-2.3-6.1-3.2-9.3-3.2-5.9,0-9.2,3.7-9.2,7.7s1.8,5.5,8.4,6.7l2.9.6c1.8.3,3,1.2,3,2.7s-1.7,3-4.6,3-5.6-1.5-7.4-3.5l-3.4,3.5c3.2,2.7,6.6,4.1,10.5,4.1,7.2,0,10-4.5,10-7.9,0-3.5-2-5.5-6.2-6.3"/>
        <path d="M154.2,168.1h-7.2v-20h7.2c6.5,0,10.7,4.6,10.7,10,0,5.4-4.1,10-10.7,10M154.2,142.7h-12.8v30.9h12.8c10,0,16.3-7.3,16.3-15.4s-6.1-15.5-16.3-15.5"/>
        <path d="M179.4,159.2c.8-3.5,3.4-5.5,6.6-5.5s5.9,1.9,6.9,5.5h-13.5ZM186.6,149.1c-8.1,0-12.9,6.2-12.9,12.5s4.8,12.5,12.9,12.5,8.1-2.2,10.9-5.8l-4.2-2.5c-1.8,2.4-4.1,3.7-6.8,3.7s-6.9-2.6-7.1-6.2h19.4v-1c0-9.3-7.3-13.3-12.2-13.3"/>
        <polygon points="211.3 163.4 211.2 163.4 206 149.8 200.4 149.8 211.2 174.2 222.1 149.8 216.5 149.8 211.3 163.4"/>
        <path d="M229.3,159.2c.8-3.5,3.4-5.5,6.6-5.5s5.9,1.9,6.9,5.5h-13.5ZM236.6,149.1c-8.1,0-12.9,6.2-12.9,12.5s4.8,12.5,12.9,12.5,8.1-2.2,10.9-5.8l-4.2-2.5c-1.8,2.4-4.1,3.7-6.8,3.7s-6.9-2.6-7.1-6.2h19.4v-1c0-9.3-7.3-13.3-12.2-13.3"/>
        <path d="M258.8,163.9v-21.3h-5v22.2c0,5,2.4,6.8,7.6,9.3l2.2-4-2.7-1.6c-1.5-.9-2.1-1.8-2.1-4.6"/>
        <path d="M277.2,169.4c-4.4,0-7.6-3.4-7.6-7.7s3.2-7.7,7.6-7.7,7.6,3.4,7.6,7.7c0,4.3-3.2,7.7-7.6,7.7M277.2,149.1c-8.1,0-12.9,6.2-12.9,12.5s4.8,12.5,12.9,12.5,12.9-6.2,12.9-12.5c0-6.3-4.7-12.5-12.9-12.5"/>
        <path d="M306.9,169.4c-4,0-7.4-3.4-7.4-7.7s3.4-7.7,7.4-7.7,7.4,3.4,7.4,7.7-3.4,7.7-7.4,7.7M307.5,149.1c-3.2,0-5.9,1.3-7.7,3.5h0v-2.9h-5.1v32h5.1v-11.1h0c1.3,2,4,3.5,7.5,3.5,7.6,0,12.4-6.6,12.4-12.5,0-6.1-4.5-12.5-12.2-12.5"/>
        <path d="M346.9,149.1c-3.5,0-6.1,1.7-7,4.2h-.1c-.9-2.5-3.5-4.2-7-4.2s-8.6,3.5-8.6,9.5v14.9h5.1v-14.8c0-2.8,1.8-4.5,3.9-4.5s4.2,1.5,4.2,5.2v14.1h5v-14.1c0-3.7,1.8-5.2,4.2-5.2s3.9,1.6,3.9,4.5v14.8h5.1v-14.9c0-6-4-9.5-8.6-9.5"/>
        <path d="M366,159.2c.8-3.5,3.4-5.5,6.6-5.5s5.9,1.9,6.9,5.5h-13.5ZM373.3,149.1c-8.1,0-12.9,6.2-12.9,12.5s4.8,12.5,12.9,12.5,8.1-2.2,10.9-5.8l-4.2-2.5c-1.8,2.4-4.1,3.7-6.8,3.7s-6.9-2.6-7.1-6.2h19.4v-1c0-9.3-7.3-13.3-12.2-13.3"/>
        <path d="M402.6,149.1c-3.2,0-5.8,1.4-7.2,3.6h0v-3h-5.1v23.8h5.1v-13.3c0-3.9,2.5-6,5.7-6s5.6,1.8,5.6,6.1v13.2h5v-14.3c0-5.9-4.2-10.1-9.1-10.1"/>
        <path d="M423.7,163.9v-9.4h4v-4.8h-4v-7.7l-5.1,1.4v6.3h-2.9v4.8h2.9v10.3c0,5,2.4,6.8,7.6,9.3l2.3-4-2.7-1.6c-1.5-.9-2.1-2.1-2.1-4.6"/>
        <path d="M448.4,162.7l4.5-11,4.4,11h-8.9ZM451.4,142.7l-13.3,30.9h6l2.3-5.8h12.9l2.4,5.8h6l-12.9-30.9h-3.4Z"/>
        <path d="M487.1,163.1c0,3.5-2.5,6-5.7,6s-5.7-2.5-5.7-6v-13.3h-5.1v13.7c0,6.7,5.1,10.7,10.7,10.7s10.7-4,10.7-10.7v-13.7h-5v13.3Z"/>
        <path d="M504.1,163.9v-9.4h4v-4.8h-4v-7.7l-5.1,1.4v6.3h-2.9v4.8h2.9v10.3c0,5,2.4,6.8,7.6,9.3l2.3-4-2.7-1.6c-1.5-.9-2.1-2.1-2.1-4.6"/>
        <path d="M524.8,149.1c-3.2,0-5.8,1.4-7.2,3.6h0v-10.1h-5.1v30.9h5.1v-13.3c0-3.9,2.5-6,5.7-6s5.6,1.8,5.6,6.1v13.2h5v-14.3c0-5.9-4.2-10.1-9.1-10.1"/>
        <path d="M551.2,169.4c-4.4,0-7.6-3.4-7.6-7.7s3.2-7.7,7.6-7.7,7.7,3.4,7.7,7.7c0,4.3-3.2,7.7-7.7,7.7M551.2,149.1c-8.1,0-12.9,6.2-12.9,12.5s4.8,12.5,12.9,12.5,12.9-6.2,12.9-12.5c0-6.3-4.7-12.5-12.9-12.5"/>
        <path d="M573.5,152.4h-.1v-2.6h-4.7v23.8h5.1v-15.7c0-2.1,1.7-3.6,3.5-3.6s1.4.3,1.9.7l1.8-5c-.7-.5-1.7-.7-2.8-.7-2,0-3.8,1.3-4.6,3.2"/>
        <rect x="583.9" y="149.8" width="5" height="23.8"/>
        <path d="M586.4,142.1c-1.6,0-2.8,1.3-2.8,2.8s1.2,2.8,2.8,2.8,2.8-1.3,2.8-2.8-1.3-2.8-2.8-2.8"/>
        <path d="M601,163.9v-9.4h4v-4.8h-4v-7.7l-5.1,1.4v6.3h-2.9v4.8h2.9v10.3c0,5,2.4,6.8,7.6,9.3l2.3-4-2.7-1.6c-1.5-.9-2.1-2.1-2.1-4.6"/>
        <path d="M625.7,163.2c0,3.7-1.9,6.1-5.8,6.1s-5.5-1.7-5.5-5.6v-14h-5.1v13.7c0,6.7,4.3,10.7,9.5,10.7s5.1-1,7-3.2h.1v1.3c0,4.2-2.9,6.3-6.3,6.3s-3.7-1-5.3-2.5l-4.3,2.7c2.3,2.6,4.7,4.6,10,4.6s10.7-3.2,10.7-10.4v-23.1h-5v13.5h0Z"/>
        <path d="M779.1,66v-.6c-2,0-3.7,1.7-3.7,3.7s1.7,3.7,3.7,3.7v-.6c-1.7,0-3.1-1.4-3.1-3.1,0-1.7,1.4-3.1,3.1-3.1"/>
        <path d="M779.1,67.1v-.6c-1.5,0-2.6,1.2-2.6,2.6s1.2,2.6,2.6,2.6v-.6c-1.1,0-2.1-.9-2.1-2.1s.9-2.1,2.1-2.1"/>
        <polygon points="779.1 33.7 779.1 33.1 774.6 33.1 774.6 34.5 779.1 34.5 779.1 34 775.2 34 775.2 33.7 779.1 33.7"/>
        <path d="M777.9,31.2c-.2.2-.5.5-.7.7-.7.7-1.8,1.1-2.1,1.2h1.4c.5-.3.9-.5,1.2-.9.2-.2.4-.4.7-.6s.5-.3.8-.3v-.5c-.4,0-.8.1-1.2.4"/>
        <path d="M779.1,36.8v-.6c-2,0-3.7,1.7-3.7,3.7s1.7,3.7,3.7,3.7v-.6c-1.7,0-3.1-1.4-3.1-3.1,0-1.7,1.4-3.1,3.1-3.1"/>
        <path d="M779.1,37.9v-.6c-1.5,0-2.6,1.2-2.6,2.6s1.2,2.6,2.6,2.6v-.6c-1.1,0-2.1-.9-2.1-2.1,0-1.1.9-2.1,2.1-2.1"/>
        <path d="M779.1,44.2v-.6c-.5,0-.9.4-.9.9s.4.9.9.9v-.6c-.2,0-.4-.2-.4-.4s.1-.4.4-.4"/>
        <path d="M779.1,46.6v-.6c-.5,0-.9.4-.9.9s.4.9.9.9v-.6c-.2,0-.4-.2-.4-.4s.1-.4.4-.4"/>
        <path d="M779.1,60.3v-.6c-.5,0-.9.4-.9.9s.4.9.9.9v-.6c-.2,0-.4-.2-.4-.4s.1-.4.4-.4"/>
        <path d="M778.5,80.4c-.4.2-.7.6-.8,1.1h0c0,.7.5,1.3,1.2,1.4h.2v-.6c-.4,0-.8-.3-.8-.8s.3-.8.8-.8v-.6c-.2,0-.4,0-.6.1"/>
        <path d="M776.5,82.3c-.4,0-.8-.3-.8-.8s.3-.8.8-.8.8.3.8.8c0,.4-.3.8-.8.8M777.1,80.4h0c-.2-.1-.4-.2-.6-.2s-.3,0-.5,0c-.4.2-.7.5-.8,1h0c0,0,0,.2,0,.3h0c0,.7.5,1.2,1,1.3,0,0,.2,0,.3,0s.1,0,.2,0c.6,0,1.1-.6,1.1-1.3h0c0-.5-.3-1-.7-1.2"/>
        <path d="M773.8,82.1c-.4,0-.8-.3-.8-.8s.3-.8.8-.8.8.3.8.8c0,.4-.4.8-.8.8M774.5,80.2c-.2-.1-.4-.2-.7-.2s-.3,0-.4,0c-.4.2-.8.5-.9,1h0c0,0,0,.1,0,.2h0c0,.7.4,1.1.9,1.3.1,0,.3,0,.5,0s.1,0,.2,0c.6,0,1-.5,1.1-1.1h0c0,0,0-.2,0-.3h0c0-.5-.3-.9-.7-1.2"/>
        <path d="M771.2,81.8c-.4,0-.8-.3-.8-.8s.3-.8.8-.8.8.3.8.8-.3.8-.8.8M772,79.9c-.2-.2-.5-.2-.8-.2s-.3,0-.4,0c-.4.1-.7.4-.8.8,0,.1,0,.3,0,.4h0c0,.6.3,1.1.8,1.2.2,0,.3,0,.5,0h0c.6,0,1.1-.5,1.2-1h0c0,0,0-.1,0-.2t0,0s0,0,0,0c0-.4-.2-.8-.5-1.1"/>
        <path d="M768.6,81.3c-.4,0-.8-.3-.8-.8s.3-.8.8-.8.8.3.8.8c0,.4-.3.8-.8.8M769.4,79.5c-.2-.2-.5-.3-.8-.3s-.2,0-.4,0c-.4,0-.7.4-.9.7,0,.2-.1.3-.1.5s0,.4.1.5c.1.3.3.5.6.6.2.1.4.2.7.2h.1c.5,0,1-.4,1.1-.9,0-.1,0-.3,0-.4h0c0-.5-.2-.8-.5-1.1"/>
        <path d="M778.2,64.7c-.2,0-.4-.2-.4-.4s.2-.4.4-.4.4.2.4.4-.2.4-.4.4M778.2,63.4c-.1,0-.3,0-.4,0-.1,0-.2.1-.3.2-.1.2-.2.4-.2.6,0,.5.4.9.9.9s.9-.4.9-.9-.4-.9-.9-.9"/>
        <path d="M776.4,45c-.2,0-.4-.2-.4-.4s.2-.4.4-.4.4.2.4.4c0,.2-.2.4-.4.4M776.4,43.7c-.5,0-.9.4-.9.9s.4.9.9.9.9-.4.9-.9c0-.5-.4-.9-.9-.9"/>
        <polygon points="779.1 38.3 777.8 39.9 779 41.5 779.1 41.6 779.1 40.7 778.5 39.9 779.1 39.1 779.1 38.3"/>
        <path d="M775.4,47.4l.6-.8.7.8-.7.8-.6-.8ZM776,45.8l-1.3,1.7,1.3,1.7,1.4-1.7-1.4-1.7Z"/>
        <path d="M777.5,62.9l-.4-.4.4-.4.4.4-.4.4ZM778.3,62.1l-.4-.4-.4-.5-.4.5-.3.4-.3.4.3.4.4.4.4.5h0c0,0,.2-.2.2-.2l.2-.2.4-.4.3-.4-.3-.4Z"/>
        <polygon points="779.1 67.5 777.8 69.2 779 70.7 779.1 70.8 779.1 69.9 778.5 69.2 779.1 68.4 779.1 67.5"/>
        <path d="M768.7,90.7c-.4,0-.8-.3-.8-.8s.3-.8.8-.8.8.3.8.8c0,.4-.3.8-.8.8M769.3,88.7c-.2,0-.4-.2-.6-.2s0,0-.1,0c-.5,0-1,.4-1.2.9,0,.1,0,.3,0,.4s0,.3,0,.4c.1.4.4.7.8.8h0c.1,0,.3.1.5.1h0c.7,0,1.3-.6,1.3-1.3,0-.5-.3-1-.7-1.2"/>
        <path d="M773.8,91.5c-.4,0-.8-.3-.8-.8s.3-.8.8-.8.8.3.8.8c0,.4-.3.8-.8.8M774.1,89.4c0,0-.2,0-.3,0h0c-.7,0-1.3.6-1.3,1.3s.4,1.1,1,1.3c.1,0,.2,0,.3,0h0c.7,0,1.3-.6,1.3-1.3,0-.6-.5-1.2-1-1.3"/>
        <path d="M778.8,89.7c-.6.2-1,.7-1,1.3s.6,1.3,1.3,1.3v-.6c-.4,0-.8-.3-.8-.8s.3-.8.8-.8v-.6c-.1,0-.2,0-.3,0"/>
        <path d="M768.2,74.4c-.5,0-.9.4-.9.9s.4.9.9.9.9-.4.9-.9-.4-.9-.9-.9M768.2,74.9c.2,0,.3.1.3.3s-.1.3-.3.3-.3-.1-.3-.3.2-.3.3-.3"/>
        <path d="M771.6,75c-.5,0-.9.4-.9.9s.4.9.9.9.9-.4.9-.9-.4-.9-.9-.9M771.6,75.6c.2,0,.3.1.3.3s-.1.3-.3.3-.3-.1-.3-.3c0-.2.2-.3.3-.3"/>
        <path d="M779.1,75.9v-.6c-.5,0-.9.4-.9.9s.4.9.9.9v-.6c-.2,0-.3-.2-.3-.3,0-.2.1-.3.3-.3"/>
        <path d="M776.8,75.9l.4.3c0-.1,0-.2,0-.4,0-.2,0-.3-.3-.4-.3,0-.6,0-.7.1,0,0,0,.1,0,.2,0,.2.2.2.2.3.1,0,.2-.1.3-.2M776.1,77.3c-.6,0-1.3-.2-2-.5-.6-.3-1-.6-1.1-1.1-.2-.7,0-1.4,0-1.4l.5.3h-.2c0-.1.2,0,.2,0,0,0-.2.5,0,1,.1.3.4.6.8.8,1,.5,2.1.6,2.5.2.1,0,.2-.2.2-.3,0,0-.4.4-.7.3-.3,0-.5-.2-.7-.5-.2-.3-.1-.6,0-.9.3-.3.9-.5,1.3-.3.4.1.7.5.7.9,0,.7-.3,1-.6,1.2-.3.2-.7.3-1.1.3"/>
        <path d="M769.9,77.3c-.2,0-.3,0-.5-.1-.2-.1-.6-.5-.3-1.4l.5.2c-.1.4,0,.7,0,.8.1,0,.4,0,.5,0,0,0,.1-.2,0-.3-1.1-2.3-2.8-2.4-2.9-2.4v-.6c.1,0,2.2.1,3.4,2.7.2.3,0,.7-.2,1-.2.2-.5.3-.7.3"/>
        <path d="M771.3,77.6c-.7,0-1-1-1-1.1h.5c0,.1.3.6.5.6,0,0,0,0,.1,0,0,0,0-.3,0-.4l.5-.2s.1.5,0,.8c-.1.2-.3.3-.5.3h-.1"/>
        <path d="M772.7,77h0c-.6,0-.9-.5-.9-.6l.5-.3-.2.2.2-.2s.2.3.5.3h0c.2,0,.5-.3.6-.5l.5.3c-.3.5-.7.8-1.1.8"/>
        <path d="M774.6,76.9l-.2-.5c.4-.1.6-.3.6-.5,0,0,0-.1,0-.1-.1,0-.2,0-.2,0,0,0-.2.2-.2.2l-.5-.2s.2-.4.5-.5c.1,0,.4,0,.6,0,.2.1.4.4.3.7,0,.2-.1.7-.9.9"/>
        <path d="M777.6,78c-.3,0-.6-.2-.7-.5l.5-.2c0,0,.1.1.2,0,0,0,.2,0,.2-.2s0,0,0,0c0-.1-.4-.2-.6-.2v-.6c.1,0,.7,0,1,.4s.2.3.2.5c0,.3-.3.6-.7.7,0,0,0,0-.1,0"/>
        <path d="M768.2,83.8c-.5,0-.9.4-.9.9s.4.9.9.9.9-.4.9-.9-.4-.9-.9-.9M768.2,84.4c.2,0,.3.1.3.3s-.1.3-.3.3-.3-.1-.3-.3c0-.2.1-.3.3-.3"/>
        <path d="M771.6,84.5c-.5,0-.9.4-.9.9s.4.9.9.9.9-.4.9-.9-.4-.9-.9-.9M771.6,85c.2,0,.3.1.3.3s-.1.3-.3.3-.3-.1-.3-.3c0-.2.1-.3.3-.3"/>
        <path d="M779.1,85.3v-.6c-.5,0-.9.4-.9.9s.4.9.9.9v-.6c-.2,0-.3-.2-.3-.3s.1-.3.3-.3"/>
        <path d="M776.8,85.3l.4.3c0-.1,0-.2,0-.4,0-.2,0-.3-.3-.4-.3,0-.6,0-.7.1,0,0,0,.1,0,.2,0,.2.2.2.2.3.1,0,.2-.1.3-.2M776.1,86.7c-.6,0-1.3-.2-2-.5-.6-.3-1-.6-1.1-1.1-.2-.7,0-1.4,0-1.4l.5.3h-.2c0-.1.3,0,.3,0,0,0-.2.5,0,1,.1.3.4.6.8.8,1,.5,2.1.6,2.5.2.1,0,.2-.2.2-.3,0,0-.4.4-.7.3-.3,0-.5-.2-.7-.5-.2-.3-.1-.6,0-.9.3-.3.9-.5,1.3-.3.4.1.7.5.7.9,0,.7-.3,1-.6,1.2-.3.2-.7.3-1.1.3"/>
        <path d="M769.9,86.7c-.2,0-.3,0-.5-.1-.2-.1-.6-.5-.3-1.4l.5.2c-.1.4,0,.7,0,.8.1,0,.4,0,.5,0,0,0,.1-.2,0-.3-1.1-2.3-2.8-2.4-2.9-2.4v-.6c.1,0,2.2,0,3.4,2.7.2.3,0,.7-.2,1-.2.2-.5.3-.7.3"/>
        <path d="M771.3,87c-.7,0-1-1-1-1.1h.5c0,.1.3.6.5.6,0,0,0,0,.1,0,0,0,0-.3,0-.4l.5-.2s.1.5,0,.8c0,.2-.3.3-.5.3,0,0,0,0-.1,0"/>
        <path d="M772.7,86.4h0c-.6,0-.9-.5-.9-.6l.5-.3s.2.3.5.3h0c.2,0,.5-.3.6-.5l.5.3c-.3.5-.7.8-1.1.8"/>
        <path d="M774.6,86.3l-.2-.5c.4-.1.6-.3.6-.5,0,0,0-.1,0-.1-.1,0-.2,0-.2,0,0,0-.2.2-.2.2l-.5-.2s.2-.4.5-.5c.1,0,.4,0,.6,0,.2.1.4.4.3.7,0,.2-.1.7-.9.9"/>
        <path d="M777.6,87.5c-.3,0-.6-.2-.7-.5l.5-.2c0,0,.1.1.2,0,0,0,.2,0,.2-.2s0,0,0,0c0-.1-.4-.2-.6-.2v-.6c.1,0,.7,0,1,.4s.2.3.2.5c0,.3-.3.6-.7.7,0,0,0,0-.1,0"/>
        <path d="M774.4,100.4l-.2-.5c0,0,2.2-.8,5-.8v.6c-2.6,0-4.7.8-4.8.8"/>
        <path d="M775.4,101.5l-.2-.5c0,0,1.7-.8,4-.8v.6c-2.1,0-3.7.7-3.7.7"/>
        <path d="M776,102.7l-.4-.4c0,0,.9-.7,3.5-.7v.6c-2.3,0-3.1.6-3.1.6"/>
        <path d="M776.2,103.8l-.2-.5s1.3-.5,3.1-.5v.6c-1.7,0-2.9.4-2.9.4"/>
        <path d="M776.4,104.9l-.2-.5c0,0,.7-.3,3-.3v.6c-2.2,0-2.8.2-2.8.2"/>
        <path d="M772.8,99.5c2.5,1.2,3.2,3.6,3.2,5.4,0,1.9-1.5,3.8-3.3,4.4-1.8.6-2.4.2-2.7,0,0-.1.4-.4.5-.5,0,0,.2,0,.2,0,.5,0,1.3,0,2.3-.5,1.3-.7,2.2-2.7,2.3-3.6,0-.7-.2-2.3-1.3-3.6-1.2-1.3-3.1-1.5-3.5-1.5-.3-.1-.5-.3-.8-.4.8-.1,2-.2,2.9.2M766.8,96.4c0,.1,1.5,3,3.7,3.8h0s2,0,3.1,1.3c1,1.1,1.2,2.5,1.1,3.2,0,.7-.8,2.5-2,3.1-.9.5-1.6.5-2.1.5-.2,0-.3,0-.4,0-.3,0-.9.5-1,.9,0,.2,0,.4.2.5.3.3.8.5,1.4.5s1.1-.1,1.8-.4c2.1-.7,3.6-2.7,3.7-4.9,0-2-.8-4.6-3.5-5.9-1.2-.6-2.9-.4-3.7-.2-1-.9-1.7-2.2-2-2.5,0,0,0,0,0,0v-25.8c4.1-2.7,5.9-6,6.4-7.3.5-1.3.8-2.1.9-2.8,0-.7.2-2.9.2-4.8,0-1.9,0-4.7,0-5.7,0-1-.2-1.9-.4-2.7s-.9-2-1.6-2.5c-1.9-1.2-2.9-1-3.4-.9-.4,0-.9-.2-1.2-.6-.2-.5,0-.8,0-.8l.7-1c3.6-4.5,6-6.7,6-6.7.4,0,1.2,0,2.1.4s1.8,1.2,1.8,1.2v-.8c-.8-.6-1.4-.9-1.4-.9l-2.9-.4-.7.7c-3.6,3.6-5.5,6.2-6,7s0,1.5.1,1.7,1,.8,1.6.5c.6-.3,2.7.1,3.7,1.9,1,1.8.9,3.9.9,3.9,0,0,0,5.1-.1,8,0,2.9-.1,2.7-.7,4.2-1.9,5.3-6.8,8-6.8,8v26.3h0Z"/>
        <line class="cls-1" x1="779.1" y1="47.3" x2="779.1" y2="46.6"/>
        <path d="M779.1,51.9v.7c-.5,1.1-1.3,3.2-1.4,3.3h0c0,.2-.2.5-.4.6-.3,0-.5-.1-.6-.4,0-.2-.9-1.8-1-2h0c0,0-.5,3.3-.5,3.3h-.6c0,0,.5-3.3.5-3.3,0-.2.1-.7.5-.7.3,0,.5.3.5.4h0c0,.2.6,1.3,1,2h0s0-.1,0-.1c0-.1,1.6-3.9,1.6-3.9h.3Z"/>
        <path d="M778.9,66c-.2,0-1.8,0-2.3-1.2-.5,0-1.3-.4-1.5-1.6,0-.7,0-1.3.4-1.8.3-.4.8-.7,1.4-.8,0-.4,0-1,.5-1.5.4-.5.9-.7,1.7-.7v.6c-.6,0-1,.2-1.2.5-.4.5-.3,1.3-.3,1.3v.3s-.3,0-.3,0c-.6,0-1,.3-1.3.6-.3.3-.4.8-.3,1.3.2,1.2,1.1,1.1,1.1,1.1h.2s0,.2,0,.2c.2,1,1.8,1,1.8,1v.6h0Z"/>
        <path d="M771.2,68.1h0c-.2,0-.3,0-.5.1-.2.1-.4.3-.5.6,0,.2,0,.5,0,.7,0,0,.2.3,1,.8l.8.4v-.9c0-.6,0-1-.1-1.2-.2-.3-.5-.5-.9-.5M771.2,68.7c.1,0,.3,0,.3.2,0,.2,0,1,0,1,0,0-.7-.4-.8-.6,0-.2,0-.4.2-.5,0,0,.1,0,.2,0"/>
        <path d="M770.2,69.8c-.5,0-1,.4-1,.9,0,.5.4,1,.9,1,.3,0,.7-.2,1.2-.5l.8-.5-.8-.5c-.5-.3-.9-.5-1.1-.5h0ZM770.2,70.4h0c.2,0,.8.4.8.4,0,0-.7.4-.9.4h0c-.2,0-.4-.2-.4-.4,0-.2.2-.4.4-.4"/>
        <path d="M772.1,70.8l-.8.4c-.5.3-.8.5-1,.8-.3.5-.1,1,.3,1.3.2,0,.3.1.5.1.3,0,.7-.2.8-.5,0,0,.2-.3.2-1.3v-.9ZM771.6,71.7s0,.8,0,1c0,.1-.2.2-.3.2s-.1,0-.2,0c-.2-.1-.2-.4-.1-.5.1-.2.8-.5.8-.5"/>
        <path d="M773.1,68.2h0c-.3,0-.7.2-.8.5,0,0-.2.3-.2,1.3v.9s.8-.4.8-.4c.5-.3.8-.5,1-.8.1-.2.2-.5.1-.7s-.2-.5-.4-.6c-.2,0-.3-.1-.5-.1M773.1,68.7c0,0,.1,0,.2,0,.2.1.2.4.1.5-.1.2-.8.5-.8.5,0,0,0-.8,0-1,0-.1.2-.2.3-.2"/>
        <path d="M774,69.8c-.3,0-.7.2-1.2.5l-.8.5.8.5c.5.3.9.5,1.1.5h0c.5,0,1-.4,1-.9,0-.3,0-.5-.3-.7-.2-.2-.4-.3-.7-.3h0ZM774,70.4h0c.2,0,.4.2.4.4s-.2.4-.4.4h0c-.2,0-.9-.4-.9-.4,0,0,.6-.4.9-.4"/>
        <path d="M772.1,70.7v.9c0,.6,0,1,.1,1.2.2.3.5.5.8.5s.3,0,.5-.1c.5-.3.6-.8.4-1.3,0,0-.2-.3-1-.8l-.8-.4ZM772.7,71.7s.7.4.8.6c0,.2,0,.4-.2.5,0,0-.1,0-.2,0-.1,0-.3,0-.3-.2-.1-.2,0-.9,0-.9"/>
        <path d="M770.8,43.8l-.5-.2c0,0,.9-1.9-.5-3.5l.4-.4c1.6,1.9.6,4,.6,4.1"/>
        <path d="M771.9,44.1h-.5c.9-3.4-.7-4.9-.8-5l.4-.4c0,0,1.9,1.8.9,5.4"/>
        <path d="M772.8,44.6h-.5c1.2-4.6-1-6.2-1-6.2l.3-.5c0,0,2.4,1.8,1.2,6.6"/>
        <path d="M773.6,45.3l-.5-.2c1.6-4.9-.9-7.5-1-7.6l.4-.4c.1.1,2.9,2.9,1.2,8.2"/>
        <path d="M774.4,46.7l-.5-.2c2.3-7-.9-9.9-1-10l.4-.4c.2.1,3.5,3.2,1.1,10.6"/>
        <path d="M775,39.6l-.5-.3c1-1.6-1-3.6-1-3.6l.4-.4c.1.1,2.4,2.3,1.1,4.3"/>
        <path d="M774.8,50.2l-.2-.5c0,0,2.3-1,4.6-1v.6c-2.2,0-4.3.9-4.3,1"/>
        <path d="M774.8,51.3l-.2-.5c0,0,2.3-1.1,4.6-1.1v.6c-2.2,0-4.3,1-4.3,1"/>
        <path d="M774.8,52.3l-.3-.5c0,0,2.1-1.1,4.6-1.1v.6c-2.4,0-4.3,1-4.3,1"/>
        <path d="M774.8,53.3l-.2-.5c0,0,2.3-1,4.6-1v.6c-2.2,0-4.3,1-4.4,1"/>
        <path d="M774.8,57.7l-.2-.5c0,0,2.2-1.1,4.6-1.1v.6c-2.3,0-4.4,1-4.4,1"/>
        <path d="M774.7,58.7l-.2-.5c0,0,2.3-1,4.6-1v.6c-2.2,0-4.4.9-4.4.9"/>
        <path d="M774.7,59.8l-.2-.5c0,0,2.4-1.1,4.7-1.1v.6c-2.2,0-4.4,1-4.4,1"/>
        <path d="M779.1,75c-5.3,0-12.1-1.5-12.1-1.5v-.5c.2,0,6.9,1.5,12.1,1.5v.6Z"/>
        <path d="M779.1,78.3c-7.8,0-11.9-1.4-12.1-1.4l.2-.5s4.2,1.4,11.9,1.4v.6h0Z"/>
        <path d="M779.1,80.4c-6.6,0-12-1.5-12.1-1.5l.2-.5c0,0,5.4,1.5,11.9,1.5v.6Z"/>
        <path d="M779.1,83.5c-7.9,0-11.9-1.4-12.1-1.5l.2-.5s4.1,1.5,11.9,1.5v.6Z"/>
        <path d="M779.1,84.4c-7.2,0-12-1.4-12.1-1.5l.2-.5s4.8,1.4,11.9,1.4v.6Z"/>
        <path d="M779.1,87.8c-7.6,0-12-1.5-12.1-1.5l.2-.5s4.4,1.5,11.9,1.5v.6Z"/>
        <path d="M779.1,89.6c-6.8,0-12-1.4-12.1-1.5l.2-.5s5.2,1.4,11.9,1.4v.6Z"/>
        <path d="M779.1,92.9c-7.7,0-12-1.4-12.1-1.5l.2-.5s4.3,1.4,11.9,1.4v.6Z"/>
        <path d="M779.1,97.1c-8.8,0-12-1.5-12.1-1.5l.2-.5s3.2,1.5,11.9,1.5v.6Z"/>
        <path d="M762.2,99.5h-.6c.5-2.9,5.2-3.7,5.4-3.8v.6s-4.4.8-4.8,3.2"/>
        <path d="M774.4,102.2c0,0-6.6-.1-9-5.7l.5-.2c2.3,5.3,8.5,5.4,8.5,5.4v.6Z"/>
        <path d="M773.8,103c-2.1,0-7-.6-9.6-6.1l.5-.2c3.2,6.7,9.7,5.8,10,5.7v.6c0,0-.3,0-.9,0"/>
        <path d="M774.1,103.9c-2.3,0-8-.6-11-6.2l.5-.3c3.6,6.8,11.3,5.9,11.4,5.9v.6s-.3,0-.9,0"/>
        <path d="M761.5,99.7c-.7,0-1.4.2-2.2.5-.7.3-.7.7-.7,1.7v3.7s0,1,1.1,1.3c1.5.3,3.1.4,4.8.2.4-.4,1.9-2.1,4.1-3.2-1.4-.6-2.9-1.6-4.3-3.1-.7-.8-1.6-1.2-2.7-1.2M762.7,107.8c-1.1,0-2.2-.1-3.2-.3-1.1-.2-1.5-1.3-1.5-1.8v-3.8c0-1,0-1.8,1.1-2.3,2.3-.9,4.2-.6,5.6.9,4.4,4.8,10.3,3.9,10.4,3.9v.6c0,0-2.7.4-5.8-.7-2.6,1.1-4.4,3.3-4.5,3.3h0c0,0-.1.1-.1.1-.6,0-1.3,0-1.9,0"/>
        <rect x="758.5" y="100.1" width="5.6" height=".6"/>
        <rect x="758.5" y="106.1" width="6.9" height=".6"/>
        <rect x="758.5" y="101" width="6.5" height=".6"/>
        <rect x="758.5" y="105.3" width="7.8" height=".6"/>
        <rect x="758.5" y="102.1" width="7.8" height=".6"/>
        <rect x="758.5" y="104.2" width="9.6" height=".6"/>
        <rect x="765.5" y="102.1" width=".6" height="2.3"/>
        <path d="M768.6,109.8c-1.4,0-2.5-.3-3.3-1-.8-.7-.9-1.5-.9-1.6h.6s0,.6.8,1.2c.8.7,2.2.9,4,.8v.6c-.4,0-.8,0-1.1,0"/>
        <path d="M767.9,109.6l-.5-.2c.7-2.3,5.7-4.8,5.9-5l.3.5s-5,2.6-5.6,4.6"/>
        <path d="M766.5,109.2l-.5-.3c1.7-2.4,5.4-4.5,5.6-4.6l.3.5c0,0-3.8,2.1-5.4,4.4"/>
        <path d="M765.5,108.6l-.5-.3c1.2-1.8,5.1-4.1,5.2-4.2l.3.5s-3.9,2.3-5.1,4"/>
        <path d="M779.1,106.2c-1.6,0-3-.4-3-.4v-.5c.2,0,1.5.4,3,.4v.6h0Z"/>
        <path d="M779.1,107.7c-1.7,0-3.4-.5-3.4-.6l.2-.5s1.7.5,3.3.5v.6Z"/>
        <path d="M779.1,108.8c-2.7,0-4.1-.7-4.1-.7l.2-.5s1.3.7,3.9.7v.6Z"/>
        <path d="M779.1,110c-3.4,0-4.9-1-5-1l.3-.5s1.5.9,4.7.9v.6Z"/>
        <path d="M760.4,101.8c-.2-.3-.5-.5-.8-.5-.5,0-1,.4-1,1h.6c0-.2.2-.4.4-.4s.4.2.4.4h.6c0-.2,0-.4-.2-.5"/>
        <path d="M762,101.8c-.2-.3-.5-.5-.8-.5s-.7.2-.8.5c0,.2-.2.3-.2.5h.6c0-.2.2-.4.4-.4s.4.2.4.4h.6c0-.2,0-.4-.2-.5"/>
        <path d="M763.7,101.8c-.2-.3-.5-.5-.8-.5s-.6.2-.8.5c0,.2-.2.3-.2.5h.6c0-.2.2-.4.4-.4s.4.2.4.4h.6c0-.2,0-.4-.1-.5"/>
        <path d="M764.5,101.3c-.3,0-.7.2-.8.5,0,.2-.2.3-.2.5h.6c0-.2.2-.4.4-.4s.4.2.4.4h.6c0-.5-.4-1-1-1"/>
        <path d="M760.5,104.5h-.6s0,0,0,0c0,.2-.2.4-.4.4s-.4-.2-.4-.4,0,0,0,0h-.6s0,0,0,0c0,.5.5,1,1,1s.7-.2.8-.5c0-.2.2-.3.2-.5,0,0,0,0,0,0"/>
        <path d="M762.2,104.5h-.6s0,0,0,0c0,.2-.2.4-.4.4s-.4-.2-.4-.4,0,0,0,0h-.6s0,0,0,0c0,.2,0,.4.2.5.2.3.5.5.8.5s.7-.2.8-.5c0-.2.2-.3.2-.5s0,0,0,0"/>
        <path d="M763.8,104.5h-.6s0,0,0,0c0,.2-.2.4-.4.4s-.4-.2-.4-.4,0,0,0,0h-.6s0,0,0,0c0,.2,0,.4.2.5.2.3.5.5.8.5s.7-.2.8-.5c0-.2.2-.3.2-.5,0,0,0,0,0,0"/>
        <path d="M765.5,104.5h-.6s0,0,0,0c0,.2-.2.4-.4.4s-.4-.2-.4-.4,0,0,0,0h-.6s0,0,0,0c0,.2,0,.4.2.5.2.3.5.5.8.5s.7-.2.9-.5c0-.1.1-.3.1-.5,0,0,0,0,0,0"/>
        <path d="M767.2,104.5h-.6s0,0,0,0c0,.2-.2.4-.4.4s-.4-.2-.4-.4,0,0,0,0h-.6s0,0,0,0c0,.2,0,.3.1.5.2.3.5.5.9.5.5,0,1-.5,1-1,0,0,0,0,0-.1"/>
        <path d="M753.2,100h-.5c0-.2.2-1.4,1-2.4,1.2-1.6,2.5-1.7,4.9-1.7s2.8.7,3.4,1.5c.3.5.7.3.7.3l.2.5c-.3,0-.9.1-1.4-.5-.4-.6-1.1-1.3-2.9-1.3s-3.5.1-4.5,1.5c-.7,1-1,2.1-1,2.1"/>
        <path d="M755.6,99.9h-.3c0-.3,0-1.2.6-1.9.4-.4.9-.6,1.5-.6s1.1.2,1.5.6c.6.7.5,1.7.5,1.7h-.6c0,0,0-.9-.3-1.3-.2-.3-.6-.4-1.1-.4s-.9.1-1.2.4c-.5.5-.5,1.2-.5,1.5h-.3Z"/>
        <path d="M757.3,108c-1.3,0-2-.8-2-2.2h.6c0,1.4.8,1.7,1.5,1.7,1,0,1.2-.8,1.2-.8l.5.2c-.1.4-.6,1.2-1.7,1.2"/>
        <path d="M757.9,109.8c-2.5,0-5.2-1.7-5.2-4h.6c0,2,2.5,3.5,4.7,3.5s4.2-2,4.3-2l.4.4c0,0-2.1,2.1-4.7,2.1"/>
        <path d="M756.9,105.5h-6.8v-5.1h6.8v5.1ZM749.5,106.1h7.9v-6.3h-7.9v6.3Z"/>
        <rect x="749.8" y="100.7" width="7.4" height=".6"/>
        <rect x="749.8" y="101.5" width="7.4" height=".6"/>
        <rect x="749.8" y="102.3" width="7.4" height=".6"/>
        <rect x="749.8" y="103" width="7.4" height=".6"/>
        <rect x="749.8" y="103.8" width="7.4" height=".6"/>
        <rect x="749.8" y="104.6" width="7.4" height=".6"/>
        <polygon points="725.3 93.7 725.3 112.4 753.1 112.4 753.1 105.5 752.5 105.5 752.5 111.8 725.8 111.8 725.8 94.3 752.5 94.3 752.5 100.4 753.1 100.4 753.1 93.7 725.3 93.7"/>
        <rect x="725.6" y="97.5" width="27.1" height=".6"/>
        <rect x="725.6" y="107.3" width="27.1" height=".6"/>
        <rect x="725.6" y="108.9" width="1.3" height=".6"/>
        <rect x="729.4" y="108.9" width="2.9" height=".6"/>
        <rect x="734.9" y="108.9" width="2.9" height=".6"/>
        <rect x="740.3" y="108.9" width="2.9" height=".6"/>
        <rect x="745.7" y="108.9" width="2.9" height=".6"/>
        <rect x="751.2" y="108.9" width="1.9" height=".6"/>
        <rect x="725.6" y="110.4" width="1.3" height=".6"/>
        <rect x="729.4" y="110.4" width="2.9" height=".6"/>
        <rect x="734.9" y="110.4" width="2.9" height=".6"/>
        <rect x="740.3" y="110.4" width="2.9" height=".6"/>
        <rect x="745.7" y="110.4" width="2.9" height=".6"/>
        <rect x="751.2" y="110.4" width="1.9" height=".6"/>
        <rect x="725.6" y="94.8" width="1.3" height=".6"/>
        <rect x="729.4" y="94.8" width="2.9" height=".6"/>
        <rect x="734.9" y="94.8" width="2.9" height=".6"/>
        <rect x="740.3" y="94.8" width="2.9" height=".6"/>
        <rect x="745.7" y="94.8" width="2.9" height=".6"/>
        <rect x="751.2" y="94.8" width="1.9" height=".6"/>
        <rect x="725.6" y="96.4" width="1.3" height=".6"/>
        <rect x="729.4" y="96.4" width="2.9" height=".6"/>
        <rect x="734.9" y="96.4" width="2.9" height=".6"/>
        <rect x="740.3" y="96.4" width="2.9" height=".6"/>
        <rect x="745.7" y="96.4" width="2.9" height=".6"/>
        <rect x="751.2" y="96.4" width="1.9" height=".6"/>
        <path d="M739,100.9l-.4.5-.6.8-.3.4.3.4.6.8.4.5.4-.5.7-.8.3-.4-.3-.4-.7-.8-.4-.5ZM739,101.8l.7.8-.7.8-.6-.8.6-.8Z"/>
        <path d="M735.2,102.6c0,.4-.3.7-.7.7s-.7-.3-.7-.7.3-.7.7-.7c.4,0,.7.3.7.7"/>
        <path d="M744.3,102.6c0,.4-.3.7-.7.7s-.7-.3-.7-.7.3-.7.7-.7c.4,0,.7.3.7.7"/>
        <path d="M741,104.9l-.2-.3-.3.4s-.7.9-1.5.9-1.5-.9-1.5-.9l-.3-.4-.2.3c-1.2,1.4-2.5.9-2.9.7.3-1.2,2-1.5,2-1.5h.5s-.5-1.1-.5-1.1l-1.8.5-1.5-.9,1.5-.9,1.8.5.5-1.1h-.5s-1.7-.3-2-1.6c.5-.2,1.7-.7,2.9.7l.2.3.3-.4s.7-.9,1.5-.9,1.5.9,1.5.9l.3.4.2-.3c1.2-1.4,2.5-.9,2.9-.7-.3,1.2-2,1.5-2,1.5h-.5s.5,1.1.5,1.1l1.8-.5,1.5.9-1.5.9-1.8-.5-.5,1.1h.5s1.7.3,2,1.6c-.5.2-1.7.7-2.9-.7M743.1,103.9l.8.2,2.7-1.5-2.7-1.5-.8.2c.6-.3,1.3-.9,1.5-1.8v-.2s-.1,0-.1,0c0,0-1.9-1.2-3.7.5-.3-.3-.8-.9-1.7-.9s-1.4.5-1.7.9c-1.7-1.7-3.7-.5-3.7-.5h-.2c0,0,0,.3,0,.3.1,1,.8,1.5,1.5,1.8l-.8-.2-2.7,1.5,2.7,1.5.8-.2c-.6.3-1.3.9-1.5,1.8v.2s.1,0,.1,0c0,0,1.9,1.2,3.7-.5.3.3.8.9,1.7.9s1.4-.5,1.7-.9c1.7,1.7,3.7.5,3.7.5h.2c0,0,0-.3,0-.3-.1-1-.8-1.5-1.5-1.8"/>
        <path d="M782.3,69.2c0,1.7-1.4,3.1-3.1,3.1v.6c2,0,3.7-1.6,3.7-3.7s-1.7-3.7-3.7-3.7v.6c1.7,0,3.1,1.4,3.1,3.1"/>
        <path d="M781.2,69.2c0,1.1-.9,2.1-2.1,2.1v.6c1.5,0,2.6-1.2,2.6-2.6s-1.2-2.6-2.6-2.6v.6c1.1,0,2.1.9,2.1,2.1"/>
        <polygon points="783 33.7 783 34 779.1 34 779.1 34.5 783.6 34.5 783.6 33.1 779.1 33.1 779.1 33.7 783 33.7"/>
        <path d="M779.1,30.8v.5c.3,0,.6.1.8.3.2.2.5.4.7.6.3.3.7.6,1.2.9h1.4c-.4-.1-1.5-.5-2.1-1.2-.2-.2-.5-.5-.7-.7-.4-.3-.8-.4-1.2-.4"/>
        <path d="M782.3,39.9c0,1.7-1.4,3.1-3.1,3.1v.6c2,0,3.7-1.6,3.7-3.7s-1.7-3.7-3.7-3.7v.6c1.7,0,3.1,1.4,3.1,3.1"/>
        <path d="M781.2,39.9c0,1.1-.9,2.1-2.1,2.1v.6c1.5,0,2.6-1.2,2.6-2.6s-1.2-2.6-2.6-2.6v.6c1.1,0,2.1.9,2.1,2.1"/>
        <path d="M779.5,44.6c0,.2-.2.4-.4.4v.6c.5,0,.9-.4.9-.9s-.4-.9-.9-.9v.6c.2,0,.4.1.4.3"/>
        <path d="M779.5,46.9c0,.2-.2.4-.4.4v.6c.5,0,.9-.4.9-.9s-.4-.9-.9-.9v.6c.2,0,.4.2.4.4"/>
        <path d="M779.5,60.7c0,.2-.2.4-.4.4v.6c.5,0,.9-.4.9-.9s-.4-.9-.9-.9v.6c.2,0,.4.2.4.4"/>
        <path d="M779.1,80.3v.6c.4,0,.8.3.8.8s-.3.8-.8.8v.6h.2c.7,0,1.2-.6,1.2-1.3h0c0-.6-.3-1-.8-1.2-.2,0-.4-.1-.6-.1"/>
        <path d="M781,81.5c0-.4.3-.8.8-.8s.8.3.8.8-.3.8-.8.8-.8-.3-.8-.8M780.5,81.5h0c0,.7.5,1.2,1.1,1.3,0,0,.1,0,.2,0,.1,0,.2,0,.3,0,.6-.1,1-.6,1-1.2h0c0-.2,0-.2,0-.3h0c0-.5-.4-.8-.8-1-.2,0-.3,0-.5,0s-.4,0-.6.2h0c-.4.2-.7.6-.7,1.1"/>
        <path d="M783.7,81.3c0-.4.3-.8.8-.8s.8.3.8.8-.3.8-.8.8-.8-.3-.8-.8M783.1,81.3h0c0,.2,0,.2,0,.3h0c.1.6.6,1,1.1,1.1,0,0,.1,0,.2,0,.2,0,.3,0,.5,0,.5-.2.9-.7.9-1.3h0c0,0,0,0,0,0,0,0,0-.1,0-.2h0c0-.5-.4-.8-.9-1-.1,0-.3,0-.4,0-.2,0-.5,0-.7.2-.4.2-.7.6-.7,1.1"/>
        <path d="M786.3,81c0-.4.3-.8.8-.8s.8.3.8.8-.3.8-.8.8-.8-.3-.8-.8M785.7,81h0c0,.1,0,.2,0,.3h0c.1.6.6,1,1.2,1.1h0c.2,0,.3,0,.5,0,.5-.2.8-.7.8-1.2h0c0-.2,0-.3,0-.4-.1-.4-.4-.7-.8-.8-.1,0-.3,0-.4,0-.3,0-.6,0-.8.2-.3.2-.5.6-.5,1.1"/>
        <path d="M788.9,80.5c0-.4.3-.8.8-.8s.8.3.8.8-.3.8-.8.8c-.4,0-.8-.4-.8-.8M788.3,80.5h0c0,.2,0,.3,0,.4.2.5.6.8,1.1.9h0s0,0,.1,0c.2,0,.5,0,.7-.2.2-.1.4-.4.6-.6,0-.2.1-.3.1-.5s0-.4-.1-.5c-.2-.4-.5-.6-.9-.7-.1,0-.2,0-.4,0-.3,0-.6,0-.8.3-.3.2-.5.6-.5,1"/>
        <path d="M779.7,64.3c0-.2.2-.4.3-.4s.4.2.4.4-.2.4-.4.4-.3-.2-.3-.4M779.2,64.3c0,.5.4.9.9.9s.9-.4.9-.9,0-.4-.2-.6c0-.1-.2-.2-.3-.2-.1,0-.2,0-.4,0-.5,0-.9.4-.9.9"/>
        <path d="M781.5,44.6c0-.2.2-.4.4-.4s.4.2.4.4-.2.4-.4.4c-.2,0-.4-.2-.4-.4M780.9,44.6c0,.5.4.9.9.9s.9-.4.9-.9-.4-.9-.9-.9c-.5,0-.9.4-.9.9"/>
        <polygon points="779.1 39.1 779.8 39.9 779.1 40.7 779.1 41.6 779.2 41.5 780.5 39.9 779.1 38.3 779.1 39.1"/>
        <path d="M782.3,48.2l-.7-.8.7-.8.6.8-.6.8ZM780.9,47.4l1.4,1.6,1.3-1.6-1.3-1.7-1.4,1.7Z"/>
        <path d="M780.4,62.5l.4-.4.4.4-.4.5-.4-.5ZM779.6,62.5l.3.4.4.5.2.2.3.3h0c0,0,.4-.6.4-.6l.4-.4.3-.4-.3-.4-.3-.4-.4-.5-.5.5-.4.4-.3.4Z"/>
        <polygon points="779.1 68.4 779.8 69.2 779.1 69.9 779.1 70.8 779.2 70.7 780.5 69.2 779.1 67.5 779.1 68.4"/>
        <path d="M788.8,89.9c0-.4.3-.8.8-.8s.8.3.8.8-.3.8-.8.8-.8-.3-.8-.8M788.3,89.9c0,.7.6,1.3,1.3,1.3h0c.2,0,.3,0,.5,0h0c.3-.2.6-.5.8-.8,0-.1,0-.3,0-.4s0-.3,0-.4c-.2-.5-.6-.9-1.2-.9h-.1c-.2,0-.4,0-.6.1-.4.2-.7.7-.7,1.2"/>
        <path d="M783.7,90.7c0-.4.3-.8.8-.8s.8.3.8.8-.3.8-.8.8-.8-.3-.8-.8M783.1,90.7c0,.7.6,1.3,1.3,1.3h0c.1,0,.2,0,.3,0,.6-.2,1-.7,1-1.3s-.6-1.3-1.3-1.3h0c0,0-.2,0-.3,0-.6.1-1,.7-1,1.3"/>
        <path d="M779.1,89.6v.6c.4,0,.8.3.8.8s-.3.8-.8.8v.6c.7,0,1.3-.6,1.3-1.3s-.4-1.2-1-1.3c-.1,0-.2,0-.3,0"/>
        <path d="M790,74.4c-.5,0-.9.4-.9.9s.4.9.9.9.9-.4.9-.9-.4-.9-.9-.9M790,74.9c.2,0,.3.1.3.3s-.1.3-.3.3-.3-.1-.3-.3.2-.3.3-.3"/>
        <path d="M786.6,75c-.5,0-.9.4-.9.9s.4.9.9.9.9-.4.9-.9-.4-.9-.9-.9M786.6,75.6c.2,0,.3.1.3.3s-.1.3-.3.3-.3-.1-.3-.3c0-.2.1-.3.3-.3"/>
        <path d="M779.4,76.2c0,.2-.1.3-.3.3v.6c.5,0,.9-.4.9-.9s-.4-.9-.9-.9v.6c.2,0,.3.2.3.3"/>
        <path d="M781.5,75.4c0,0-.2,0-.2,0-.2,0-.3.2-.3.4,0,.2,0,.3,0,.4l.4-.3s.2.2.3.2c0,0,.2,0,.2-.3s0-.2,0-.2c0-.1-.3-.2-.5-.2M782.1,77.3c-.5,0-.8,0-1.1-.3-.3-.2-.6-.5-.6-1.2,0-.4.3-.8.7-.9.5-.2,1,0,1.3.3.2.2.2.6,0,.9-.2.3-.4.5-.7.5-.4,0-.6-.2-.7-.3,0,.1.1.2.2.3.5.3,1.5.2,2.5-.2.4-.2.7-.5.8-.8.2-.5,0-1,0-1l.5-.3s.3.7,0,1.4c-.2.5-.5.8-1.1,1.1-.7.3-1.4.5-2,.5"/>
        <path d="M788.3,77.3c-.2,0-.5,0-.7-.3-.3-.3-.3-.6-.2-1,1.3-2.6,3.3-2.7,3.4-2.7v.6s0-.3,0-.3v.3c0,0-1.8.1-2.9,2.4,0,.1,0,.2,0,.3.1.1.4.2.5,0,.2,0,.2-.4,0-.8l.5-.2c.3.9-.1,1.3-.3,1.4-.2,0-.3.1-.5.1"/>
        <path d="M786.9,77.6s0,0-.1,0c-.2,0-.4-.2-.5-.3-.2-.3,0-.8,0-.8l.5.2c0,0,0,.3,0,.4,0,0,0,0,.1,0,.2,0,.4-.4.5-.7h.5c0,.2-.3,1.3-1,1.3"/>
        <path d="M785.5,77c-.4,0-.8-.3-1.1-.8l.5-.3c.2.2.4.5.6.5.3,0,.5-.3.5-.3l.5.3c0,0-.4.6-.9.6h0Z"/>
        <path d="M783.7,76.9c-.8-.3-.9-.8-1-.9,0-.3.1-.5.3-.7.3-.2.5-.1.6,0,.3.1.5.5.5.5l-.5.2s0-.2-.2-.2c0,0,0,0-.2,0,0,0,0,0,0,.1,0,.1.2.3.6.5l-.2.5Z"/>
        <path d="M780.6,78s0,0-.1,0c-.4,0-.7-.3-.7-.7,0-.2,0-.4.2-.5.3-.3.9-.4,1-.4v.6c-.2,0-.5,0-.6.2,0,0,0,0,0,0,0,0,.1.2.2.2,0,0,.2,0,.2,0l.5.2c-.1.3-.4.4-.7.4"/>
        <path d="M790,83.8c-.5,0-.9.4-.9.9s.4.9.9.9.9-.4.9-.9-.4-.9-.9-.9M790,84.4c.2,0,.3.1.3.3s-.1.3-.3.3-.3-.1-.3-.3c0-.2.1-.3.3-.3"/>
        <path d="M786.6,84.5c-.5,0-.9.4-.9.9s.4.9.9.9.9-.4.9-.9-.4-.9-.9-.9M786.6,85c.2,0,.3.1.3.3s-.1.3-.3.3-.3-.1-.3-.3c0-.2.1-.3.3-.3"/>
        <path d="M779.4,85.7c0,.2-.1.3-.3.3v.6c.5,0,.9-.4.9-.9s-.4-.9-.9-.9v.6c.2,0,.3.2.3.3"/>
        <path d="M781.5,84.8c0,0-.2,0-.2,0-.2,0-.3.2-.3.4,0,.2,0,.3,0,.4l.4-.3s.2.2.3.2c0,0,.2,0,.2-.3,0-.1,0-.2,0-.2,0,0-.3-.2-.5-.2M782.1,86.7c-.5,0-.8,0-1.1-.3-.3-.2-.6-.5-.6-1.2,0-.4.3-.8.7-.9.5-.2,1,0,1.3.3.2.2.2.6,0,.9-.2.3-.4.5-.7.5-.4,0-.6-.2-.7-.3,0,.1.1.2.2.3.5.3,1.5.2,2.5-.2.4-.2.7-.5.8-.8.2-.5,0-1,0-1l.5-.3s.3.7,0,1.4c-.2.5-.5.8-1.1,1.1-.7.3-1.4.5-2,.5"/>
        <path d="M788.3,86.7c-.2,0-.5,0-.7-.3-.3-.2-.3-.6-.2-1,1.3-2.6,3.3-2.7,3.4-2.7v.6s0-.3,0-.3v.3c0,0-1.8,0-2.9,2.4,0,.1,0,.2,0,.3.1.1.4.2.5,0,.2,0,.2-.4,0-.8l.5-.2c.3.9-.1,1.3-.3,1.4-.2,0-.3.1-.5.1"/>
        <path d="M786.9,87s0,0-.1,0c-.2,0-.4-.2-.5-.3-.2-.3,0-.8,0-.8l.5.2c0,0,0,.3,0,.4,0,0,0,0,.1,0,.2,0,.4-.4.5-.7h.5c0,.3-.3,1.3-1,1.3"/>
        <path d="M785.5,86.4c-.4,0-.8-.3-1.1-.8l.5-.3c.2.2.4.5.6.5h0c.3,0,.5-.3.5-.3l.5.3c0,0-.4.6-.9.6h0Z"/>
        <path d="M783.7,86.3c-.8-.3-.9-.8-1-.9,0-.3.1-.5.4-.7.3-.2.5-.1.6,0,.3.1.5.5.5.5l-.5.2s0-.2-.2-.2c0,0,0,0-.2,0,0,0,0,0,0,.1,0,.1.2.3.6.5l-.2.5Z"/>
        <path d="M780.6,87.5s0,0-.1,0c-.4,0-.7-.3-.7-.7,0-.2,0-.4.2-.5.3-.3.9-.4,1-.4v.6c-.2,0-.5,0-.6.2,0,0,0,0,0,0,0,0,.1.2.2.2,0,0,.2,0,.2,0l.5.2c-.1.3-.4.4-.7.4"/>
        <path d="M783.9,100.4s-2.2-.8-4.8-.8v-.6c2.7,0,4.9.8,5,.8l-.2.5Z"/>
        <path d="M782.8,101.5s-1.6-.7-3.7-.7v-.6c2.3,0,3.9.8,4,.8l-.2.5Z"/>
        <path d="M782.2,102.7s-.8-.6-3.1-.6v-.6c2.5,0,3.4.7,3.5.7l-.4.4.2-.2-.2.2Z"/>
        <path d="M782,103.8s-1.2-.4-2.9-.4v-.6c1.8,0,3,.4,3.1.5l-.2.5Z"/>
        <path d="M781.9,104.9s-.6-.2-2.8-.2v-.6c2.4,0,3,.2,3,.3l-.2.5Z"/>
        <path d="M788.3,99.2c-.2.2-.5.3-.8.4-.4,0-2.3.1-3.5,1.5-1.1,1.2-1.3,2.8-1.3,3.6,0,.9.9,2.9,2.3,3.6,1,.5,1.9.5,2.3.5,0,0,.2,0,.2,0,.1,0,.5.3.5.5-.2.2-.8.6-2.7,0-1.8-.6-3.2-2.5-3.3-4.4,0-1.8.7-4.2,3.2-5.4.9-.4,2.1-.4,2.9-.2M791.4,70.1s-4.9-2.8-6.8-8c-.5-1.5-.6-1.3-.7-4.2,0-2.9-.1-8-.1-8,0,0,0-2.1.9-3.9s3.1-2.1,3.7-1.9c.6.3,1.4-.3,1.6-.5.2-.2.7-1,.1-1.7-.6-.8-2.5-3.5-6-7l-.7-.7-2.9.4s-.7.3-1.4.9v.7s.8-.8,1.8-1.2c1-.4,1.7-.5,2.1-.4,0,0,2.4,2.1,6,6.7l.7,1s.3.3,0,.8c-.2.5-.7.7-1.2.6s-1.5-.3-3.4.9c-.7.5-1.3,1.6-1.6,2.5s-.4,1.7-.4,2.7c0,1,0,3.8,0,5.7,0,1.9,0,4.1.2,4.8,0,.8.4,1.5.9,2.8.5,1.3,2.3,4.7,6.4,7.3v25.8s0,0,0,0c-.2.4-.9,1.6-1.9,2.5-.7-.2-2.5-.4-3.7.2-2.7,1.3-3.6,3.9-3.5,5.9,0,2.2,1.6,4.2,3.7,4.9.7.2,1.3.4,1.8.4s1.1-.2,1.4-.5c.1-.1.2-.3.2-.5,0-.4-.7-.8-1-.9,0,0-.2,0-.4,0-.4,0-1.2,0-2.1-.5-1.2-.6-1.9-2.4-2-3.1,0-.7.2-2.1,1.1-3.2,1.1-1.2,3.1-1.3,3.1-1.3h0c2.2-.9,3.6-3.7,3.7-3.9v-26.3Z"/>
        <line class="cls-1" x1="779.1" y1="46.6" x2="779.1" y2="47.3"/>
        <path d="M779.1,51.9v.7c.4,1.1,1.3,3.2,1.4,3.3h0c0,.2.2.5.4.6.3,0,.5-.1.6-.4,0-.2,1-1.8,1-2h0c0,0,.5,3.3.5,3.3h.6c0,0-.5-3.3-.5-3.3,0-.2-.1-.7-.5-.7-.3,0-.5.3-.5.4h0c0,.2-.6,1.3-1,2h0s0-.1,0-.1c0-.1-1.6-3.9-1.6-3.9h-.3Z"/>
        <path d="M779.3,66h0v-.6s1.6,0,1.8-1v-.2s.3,0,.3,0c0,0,1,0,1.1-1.1,0-.5,0-1-.3-1.3-.3-.4-.7-.6-1.3-.6h-.3s0-.3,0-.3c0,0,.1-.8-.3-1.3-.3-.3-.7-.5-1.2-.5v-.6c.8,0,1.3.2,1.7.7.4.5.5,1.1.5,1.5.6.1,1.1.4,1.4.8.4.5.5,1.1.4,1.8-.2,1.2-1,1.5-1.5,1.6-.4,1.2-2.1,1.2-2.3,1.2"/>
        <path d="M787.1,68.1c-.4,0-.7.2-.9.5-.1.2-.2.6-.1,1.2v.9s.8-.4.8-.4c.8-.5,1-.7,1-.8.1-.2.2-.5,0-.7,0-.2-.2-.5-.5-.6-.1,0-.3-.1-.5-.1M787.1,68.7c0,0,.1,0,.2,0,.2.1.3.3.2.5,0,.2-.8.6-.8.6,0,0,0-.8,0-1,0-.1.2-.2.3-.2"/>
        <path d="M788,69.8h0c-.2,0-.6.2-1.1.5l-.8.5.8.5c.5.3.9.5,1.2.5.6,0,1-.5,1-1,0-.5-.4-.9-1-.9M788,70.4c.2,0,.4.2.4.4,0,.2-.2.4-.4.4h0c-.2,0-.9-.4-.9-.4,0,0,.6-.4.8-.4h0Z"/>
        <path d="M786.1,70.8v.9c0,1,0,1.2.1,1.3.2.3.5.5.8.5s.3,0,.5-.1c.5-.3.6-.9.3-1.3-.1-.2-.5-.5-1-.8l-.8-.4ZM786.6,71.7s.7.4.8.5c.1.2,0,.4-.1.5,0,0-.1,0-.2,0-.1,0-.3,0-.3-.2-.1-.2,0-1,0-1"/>
        <path d="M785.1,68.2c-.2,0-.3,0-.5.1-.2.1-.4.4-.4.6s0,.5.1.7c.1.2.5.5,1,.8l.8.4v-.9c0-1,0-1.2-.1-1.3-.2-.3-.5-.5-.8-.5M785.1,68.7c.1,0,.3,0,.3.2.1.2,0,1,0,1,0,0-.7-.4-.8-.5-.1-.2,0-.4.1-.5,0,0,.1,0,.2,0"/>
        <path d="M784.2,69.8h0c-.3,0-.5.1-.7.3-.2.2-.3.4-.3.7,0,.5.4.9,1,.9h0c.2,0,.6-.2,1.1-.5l.8-.5-.8-.5c-.5-.3-.9-.5-1.2-.5M784.2,70.4c.2,0,.9.4.9.4,0,0-.6.4-.9.4h0c-.2,0-.4-.2-.4-.4,0-.2.2-.4.4-.4h0Z"/>
        <path d="M786.1,70.7l-.8.4c-.8.5-1,.7-1,.8-.2.5,0,1.1.4,1.3.1,0,.3.1.5.1.3,0,.7-.2.8-.5.1-.2.2-.6.2-1.2v-.9ZM785.6,71.7s0,.8,0,.9c0,.1-.2.2-.3.2s-.1,0-.2,0c-.2-.1-.3-.4-.2-.5,0-.2.8-.6.8-.6"/>
        <path d="M787.4,43.8c0,0-1-2.2.6-4.1l.4.4c-1.3,1.6-.5,3.4-.5,3.5l-.5.2Z"/>
        <path d="M786.3,44.1c-1-3.6.8-5.3.9-5.4l.4.4c0,0-1.6,1.6-.8,4.8l-.5.2Z"/>
        <path d="M785.4,44.6c-1.2-4.8,1.1-6.6,1.2-6.6l.3.5c0,0-2.1,1.6-1,6h-.6Z"/>
        <path d="M784.6,45.3c-1.7-5.3,1.1-8,1.2-8.2l.4.4c-.1.1-2.7,2.6-1,7.6l-.5.2Z"/>
        <path d="M783.9,46.7c-2.4-7.4,1-10.4,1.1-10.6l.4.4s-3.2,2.9-1,10l-.5.2Z"/>
        <path d="M783.2,39.6c-1.3-2,1-4.2,1.1-4.3l.4.4s-2,2-1,3.6l-.5.3Z"/>
        <path d="M783.5,50.2s-2.2-1-4.3-1v-.6c2.3,0,4.5,1,4.6,1l-.2.5Z"/>
        <path d="M783.5,51.3s-2.2-1-4.3-1v-.6c2.3,0,4.5,1,4.6,1.1l-.2.5Z"/>
        <path d="M783.5,52.3s-2-1-4.3-1v-.6c2.5,0,4.5,1,4.6,1.1l-.3.5Z"/>
        <path d="M783.5,53.3s-2.2-1-4.3-1v-.6c2.3,0,4.5,1,4.6,1l-.2.5Z"/>
        <path d="M783.5,57.7s-2-1-4.4-1v-.6c2.5,0,4.5,1,4.6,1.1l-.2.5Z"/>
        <path d="M783.5,58.7s-2.2-1-4.4-1v-.6c2.3,0,4.5,1,4.6,1l-.2.5Z"/>
        <path d="M783.5,59.8s-2.2-1-4.4-1v-.6c2.3,0,4.6,1,4.7,1.1l-.2.5Z"/>
        <path d="M779.1,75v-.6c5.2,0,11.9-1.5,12-1.5v.5s-6.7,1.5-12,1.5"/>
        <path d="M779.1,78.3v-.6c7.7,0,11.8-1.4,11.9-1.4l.2.5c-.2,0-4.3,1.4-12.1,1.4"/>
        <path d="M779.1,80.4v-.6c6.5,0,11.8-1.5,11.9-1.5l.2.5c0,0-5.5,1.5-12.1,1.5"/>
        <path d="M779.1,83.5v-.6c7.8,0,11.8-1.5,11.9-1.5l.2.5c-.2,0-4.2,1.5-12.1,1.5"/>
        <path d="M779.1,84.4v-.6c7.1,0,11.8-1.4,11.9-1.4l.2.5s-4.9,1.5-12.1,1.5"/>
        <path d="M779.1,87.8v-.6c7.5,0,11.8-1.5,11.9-1.5l.2.5s-4.5,1.6-12.1,1.6"/>
        <path d="M779.1,89.6v-.6c6.7,0,11.8-1.4,11.9-1.4l.2.5c0,0-5.3,1.5-12.1,1.5"/>
        <path d="M779.1,92.9v-.6c7.5,0,11.8-1.4,11.9-1.4l.2.5s-4.4,1.5-12.1,1.5"/>
        <path d="M779.1,97.1v-.6c8.7,0,11.8-1.4,11.9-1.5l.2.5c-.1,0-3.3,1.5-12.1,1.5"/>
        <path d="M796,99.5c-.4-2.5-4.9-3.2-4.9-3.2v-.6c.3,0,5,.8,5.5,3.7h-.6Z"/>
        <path d="M783.8,102.2v-.6c0,0,6.2-.1,8.5-5.4l.5.2c-2.5,5.6-9,5.7-9.1,5.7"/>
        <path d="M784.4,103c-.6,0-1,0-1,0v-.6c.4,0,6.9.9,10-5.7l.5.2c-2.6,5.5-7.5,6.1-9.6,6.1"/>
        <path d="M784.2,103.9c-.6,0-.9,0-1,0v-.6c.2,0,7.9.9,11.5-5.9l.5.3c-3,5.6-8.7,6.2-11,6.2"/>
        <path d="M793.8,107.1c1.7.2,3.3,0,4.8-.2,1-.2,1.1-1.3,1.1-1.3v-3.7c0-1,0-1.5-.7-1.7-2.1-.8-3.8-.6-5,.7-1.3,1.5-2.8,2.5-4.3,3.1,2.2,1,3.7,2.7,4.1,3.2M795.5,107.8c-.6,0-1.2,0-1.9,0h-.1s0-.1,0-.1c0,0-1.9-2.3-4.5-3.3-3.2,1.1-5.9.7-5.9.7v-.6c.2,0,6.1.9,10.5-3.9,1.4-1.5,3.3-1.8,5.6-.9,1.1.4,1.1,1.3,1.1,2.3v3.7c0,.5-.4,1.6-1.5,1.8-1,.2-2.1.3-3.2.3"/>
        <rect x="794.1" y="100.1" width="5.6" height=".6"/>
        <rect x="792.9" y="106.1" width="6.9" height=".6"/>
        <rect x="793.2" y="101" width="6.5" height=".6"/>
        <rect x="791.9" y="105.3" width="7.9" height=".6"/>
        <rect x="791.9" y="102.1" width="7.9" height=".6"/>
        <rect x="790.1" y="104.2" width="9.6" height=".6"/>
        <rect x="792.2" y="102.1" width=".6" height="2.3"/>
        <path d="M789.6,109.8c-.4,0-.8,0-1.2,0v-.6c1.9.2,3.3,0,4.1-.8.7-.5.7-1.2.7-1.2h.6c0,0,0,.9-.9,1.6-.8.6-1.9,1-3.3,1"/>
        <path d="M790.4,109.6c-.6-2-5.6-4.6-5.6-4.6l.3-.5c.2,0,5.2,2.7,5.9,5l-.5.2Z"/>
        <path d="M791.8,109.2c-1.6-2.3-5.4-4.4-5.4-4.4l.3-.5c.2,0,3.9,2.1,5.6,4.6l-.5.3Z"/>
        <path d="M792.8,108.6c-1.1-1.7-5-4-5.1-4l.3-.5c.2,0,4.1,2.4,5.2,4.2l-.5.3Z"/>
        <path d="M779.1,106.2v-.6c1.5,0,2.9-.4,2.9-.4l.2.5c0,0-1.5.4-3.1.4"/>
        <path d="M779.1,107.7v-.6c1.6,0,3.2-.5,3.3-.5l.2.5c0,0-1.8.6-3.4.6"/>
        <path d="M779.1,108.8v-.6c2.5,0,3.9-.7,3.9-.7l.3.5c0,0-1.5.7-4.2.7"/>
        <path d="M779.1,110v-.6c3.2,0,4.7-.9,4.7-.9l.3.5c0,0-1.6,1-5,1"/>
        <path d="M797.7,102.3h.6c0-.2.2-.4.4-.4s.4.2.4.4h.6c0-.5-.4-1-1-1s-.7.2-.8.5c0,.2-.2.3-.2.5"/>
        <path d="M796.1,102.3h.6c0-.2.2-.4.4-.4s.4.2.4.4h.6c0-.2,0-.4-.2-.5-.2-.3-.5-.5-.8-.5s-.7.2-.8.5c-.1.2-.2.3-.2.5"/>
        <path d="M794.4,102.3h.6c0-.2.2-.4.4-.4s.4.2.4.4h.6c0-.2,0-.4-.2-.5-.2-.3-.5-.5-.8-.5s-.7.2-.8.5c-.1.2-.2.3-.2.5"/>
        <path d="M792.8,102.3h.6c0-.2.2-.4.4-.4s.4.2.4.4h.6c0-.2,0-.4-.2-.5-.2-.3-.5-.5-.8-.5-.5,0-1,.4-1,1"/>
        <path d="M797.7,104.6c0,.2,0,.4.2.5.2.3.5.5.8.5.5,0,1-.5,1-1s0,0,0,0h-.6s0,0,0,0c0,.2-.2.4-.4.4s-.4-.2-.4-.4,0,0,0,0h-.6s0,0,0,0"/>
        <path d="M796.1,104.6c0,.2,0,.4.2.5.2.3.5.5.8.5s.7-.2.8-.5c0-.2.2-.3.2-.5s0,0,0,0h-.6s0,0,0,0c0,.2-.2.4-.4.4s-.4-.2-.4-.4,0,0,0,0h-.6s0,0,0,0"/>
        <path d="M794.4,104.6c0,.2,0,.4.2.5.2.3.5.5.8.5s.7-.2.8-.5c0-.2.2-.3.2-.5s0,0,0,0h-.6s0,0,0,0c0,.2-.2.4-.4.4s-.4-.2-.4-.4,0,0,0,0h-.6"/>
        <path d="M792.8,104.6c0,.2,0,.3.1.5.2.3.5.5.9.5s.7-.2.8-.5c0-.2.2-.3.2-.5s0,0,0,0h-.6s0,0,0,0c0,.2-.2.4-.4.4s-.4-.2-.4-.4,0,0,0,0h-.6"/>
        <path d="M791,104.6c0,.5.4,1,1,1s.7-.2.9-.5c0-.1.1-.3.1-.5s0,0,0,0h-.6s0,0,0,0c0,.2-.2.4-.4.4s-.4-.2-.4-.4,0,0,0,0h-.6s0,0,0,.1"/>
        <path d="M805,100s-.2-1.1-.9-2.1c-1-1.4-2.1-1.5-4.5-1.5s-2.5.7-2.9,1.3c-.5.7-1.1.7-1.4.5l.2-.5v.3c0,0,0-.3,0-.3,0,0,.4.1.7-.3.5-.8,1.3-1.5,3.4-1.5s3.8.2,4.9,1.8c.8,1.1,1,2.3,1,2.3h-.5Z"/>
        <path d="M802.4,99.9c0-.3,0-1-.5-1.5-.3-.3-.7-.4-1.2-.4s-.8.1-1.1.4c-.4.5-.3,1.2-.3,1.2h-.6s-.1-1,.5-1.6c.3-.4.8-.6,1.5-.6s1.2.2,1.5.6c.6.6.6,1.5.6,1.8h-.6Z"/>
        <path d="M800.9,108c-1.1,0-1.6-.8-1.7-1.2l.5-.2s.2.8,1.2.8,1.5-.3,1.5-1.7h.6c0,1.4-.8,2.2-2,2.2"/>
        <path d="M800.4,109.8c-2.5,0-4.6-2.1-4.7-2.2l.4-.4s2,2,4.3,2,4.7-1.4,4.7-3.5h.6c0,2.4-2.8,4-5.2,4"/>
        <path d="M808.1,105.5h-6.8v-5.1h6.8v5.1ZM800.8,106.1h7.9v-6.3h-7.9v6.3Z"/>
        <rect x="801.1" y="100.7" width="7.4" height=".6"/>
        <rect x="801.1" y="101.5" width="7.4" height=".6"/>
        <rect x="801.1" y="102.3" width="7.4" height=".6"/>
        <rect x="801.1" y="103" width="7.4" height=".6"/>
        <rect x="801.1" y="103.8" width="7.4" height=".6"/>
        <rect x="801.1" y="104.6" width="7.4" height=".6"/>
        <polygon points="805.2 93.7 805.2 100.4 805.7 100.4 805.7 94.3 832.4 94.3 832.4 111.8 805.7 111.8 805.7 105.5 805.2 105.5 805.2 112.4 833 112.4 833 93.7 805.2 93.7"/>
        <rect x="805.5" y="97.5" width="27.1" height=".6"/>
        <rect x="805.5" y="107.3" width="27.1" height=".6"/>
        <rect x="831.3" y="108.9" width="1.3" height=".6"/>
        <rect x="825.9" y="108.9" width="2.9" height=".6"/>
        <rect x="820.4" y="108.9" width="2.9" height=".6"/>
        <rect x="815" y="108.9" width="2.9" height=".6"/>
        <rect x="809.6" y="108.9" width="2.9" height=".6"/>
        <rect x="805.2" y="108.9" width="1.9" height=".6"/>
        <rect x="831.3" y="110.4" width="1.3" height=".6"/>
        <rect x="825.9" y="110.4" width="2.9" height=".6"/>
        <rect x="820.4" y="110.4" width="2.9" height=".6"/>
        <rect x="815" y="110.4" width="2.9" height=".6"/>
        <rect x="809.6" y="110.4" width="2.9" height=".6"/>
        <rect x="805.2" y="110.4" width="1.9" height=".6"/>
        <rect x="831.3" y="94.8" width="1.3" height=".6"/>
        <rect x="825.9" y="94.8" width="2.9" height=".6"/>
        <rect x="820.4" y="94.8" width="2.9" height=".6"/>
        <rect x="815" y="94.8" width="2.9" height=".6"/>
        <rect x="809.6" y="94.8" width="2.9" height=".6"/>
        <rect x="805.2" y="94.8" width="1.9" height=".6"/>
        <rect x="831.3" y="96.4" width="1.3" height=".6"/>
        <rect x="825.9" y="96.4" width="2.9" height=".6"/>
        <rect x="820.4" y="96.4" width="2.9" height=".6"/>
        <rect x="815" y="96.4" width="2.9" height=".6"/>
        <rect x="809.6" y="96.4" width="2.9" height=".6"/>
        <rect x="805.2" y="96.4" width="1.9" height=".6"/>
        <path d="M819.2,100.9l-.4.5-.7.8-.3.4.3.4.7.8.4.5.4-.5.6-.8.3-.4-.3-.4-.6-.8-.4-.5ZM819.2,101.8l.6.8-.6.8-.7-.8.7-.8Z"/>
        <path d="M823,102.6c0,.4.3.7.7.7s.7-.3.7-.7-.3-.7-.7-.7c-.4,0-.7.3-.7.7"/>
        <path d="M814,102.6c0,.4.3.7.7.7s.7-.3.7-.7-.3-.7-.7-.7c-.4,0-.7.3-.7.7"/>
        <path d="M814.4,105.6c.3-1.2,2-1.5,2-1.5h.5s-.5-1.1-.5-1.1l-1.8.5-1.5-.9,1.5-.9,1.8.5.5-1.1h-.5s-1.7-.3-2-1.6c.5-.2,1.7-.7,2.9.7l.2.3.3-.4s.7-.9,1.5-.9,1.5.9,1.5.9l.3.4.2-.3c1.2-1.4,2.5-.9,2.9-.7-.3,1.2-2,1.5-2,1.5h-.5s.5,1.1.5,1.1l1.8-.5,1.5.9-1.5.9-1.8-.5-.5,1.1h.5s1.7.3,2,1.6c-.4.2-1.7.7-2.9-.7l-.2-.3-.3.4s-.7.9-1.5.9-1.5-.9-1.5-.9l-.3-.4-.2.3c-1.2,1.4-2.5.9-2.9.7M813.7,105.7v.2s.1,0,.1,0c0,0,1.9,1.2,3.7-.5.3.3.9.9,1.7.9s1.4-.5,1.7-.9c1.7,1.7,3.7.5,3.7.5h.1c0,0,0-.3,0-.3-.1-1-.8-1.5-1.5-1.8l.8.2,2.7-1.5-2.7-1.5-.8.2c.6-.3,1.3-.9,1.5-1.8v-.2s-.1,0-.1,0c0,0-1.9-1.2-3.7.5-.3-.3-.8-.9-1.7-.9s-1.4.5-1.7.9c-1.7-1.7-3.7-.5-3.7-.5h-.2c0,0,0,.3,0,.3.1,1,.8,1.5,1.5,1.8l-.8-.2-2.7,1.5,2.7,1.5.8-.2c-.6.3-1.3.9-1.5,1.8"/>
        <path d="M767.2,137.5c-1.4,0-2.8,0-4.3-.3-7.7-1-14.3-3.9-19.1-6l-1.2-.5c-4.8-2.1-7.6-5.6-7.4-7.6.2-1.8.6-3.3,3.8-4.2,2.4-.7,5.2-.5,7.6-.3,1,0,1.8.1,2.6.1,9,0,13.9-1.8,15.5-2.4h.2c1.4-.6,1.8-1.7,1.9-2,.1-.5.2-3.2.2-5h.6c0,.5,0,4.4-.2,5.1-.1.4-.6,1.7-2.2,2.3h-.2c-1.6.7-6.7,2.5-15.7,2.5s-1.7,0-2.7-.1c-2.4-.2-5.1-.4-7.4.3-3.1.9-3.3,2.2-3.4,3.7-.2,1.6,2.2,5,7,7l1.2.5c4.8,2.1,11.3,5,19,6,8.6,1.1,15.2-1.3,18.6-3.9,3.5-2.7,8.1-7.2,8.7-14.4.5-7.2.6-9,.6-9h.6s0,1.8-.6,9c-.6,7.4-5.3,12-8.9,14.8-2.8,2.2-8,4.3-14.7,4.3"/>
        <path d="M735.2,123.6c-.7-.8-.9-1.5-.6-2.1.3-.8,1.6-1,1.6-1v.6c-.2,0-.9.2-1.1.7-.1.3,0,.9.6,1.5l-.4.3Z"/>
        <path d="M736.6,126.5c-.2-5.6,2.4-7.5,2.5-7.6l.3.5s-2.5,1.8-2.3,7.1h-.6Z"/>
        <path d="M739.3,128.5h-.6c.4-7.5,2.9-9.8,3-9.9l.4.4-.2-.2.2.2s-2.4,2.3-2.8,9.5"/>
        <path d="M741.8,130.4c-.8-6.6,2.5-11.4,2.7-11.6l.5.3s-3.3,4.8-2.6,11.2h-.6Z"/>
        <path d="M743,130.8c0-.2-1-5.9,2.8-12l.5.3c-3.7,6-2.7,11.6-2.7,11.7h-.5Z"/>
        <path d="M750.8,134c-1.4-6.3.7-15,.7-15.1h.5c0,.2-2,8.8-.7,15h-.5Z"/>
        <path d="M759.8,136.6c-2.4-5.9.1-18.2.2-18.7h.5c0,.2-2.6,12.8-.3,18.5l-.5.2Z"/>
        <polygon points="738.8 127.7 736.8 125.7 736.7 125.4 736.7 125.3 737 125.1 738.8 124.9 737 123.4 737 122.9 737.3 122.8 739.4 122.6 737.6 121.3 737.7 120.8 737.9 120.8 740.1 120.3 738.9 119.6 739.2 119.1 741 120.2 740.9 120.8 738.5 121.2 740.1 122.4 740.2 122.8 740.1 123 739.8 123.1 737.8 123.3 739.5 124.7 739.5 125 739.5 125.2 739.3 125.4 737.5 125.6 739.2 127.3 738.8 127.7"/>
        <path d="M767,113.3c-.4-.5-3.6-5.5-3.7-5.7l.5-.3c1.2,1.8,3.4,5.3,3.7,5.7l-.5.3Z"/>
        <path d="M777,135.7l-.5-.3c.8-1.6.7-5.7.7-6.5,0-1.1-.4-6.2-.7-8-.2-1.6-1-2.8-2.4-3.7-2-1.2-7-2.5-7.1-2.6v-.5c.4,0,5.3,1.3,7.4,2.6,1.6,1,2.5,2.3,2.7,4.1.2,1.8.6,6.9.7,8.1,0,1.2,0,5.1-.8,6.8"/>
        <path d="M760.4,125c-1.1,0-1.9-.2-2.5-.6-2.2-1.5-1.8-5.7-1.8-5.9h.6c0,.1-.5,4.1,1.5,5.4,1.2.8,4.4,1,13.2-2.5,5.7-2.2,17.8-9.1,19.2-10.3l.4.4c-1.3,1.2-13.6,8.2-19.3,10.4-5.1,2-8.8,3-11.3,3"/>
        <polygon points="791 114.1 790.5 113.8 794.8 107.4 795.3 107.7 791 114.1"/>
        <path d="M757.1,96.2l-1-2.3-1-.7-1-2-12.2-19.1c-.2-.3-15-29.4-16.4-31.4-1.4-2-3.1-4.2-3.1-4.2,0,0-4.1-6-4.8-7,0,0-.2,0-.3-.2-.2-.2-.3-.5-.3-1,0-.9,0-3.2,0-3.2h0c0-.1,2.1-1.6,2.1-1.6l3.7,1.3c0,0,.5.1.6.5,0,0,0,.2,0,.3l4.8,7.4,2.8,4.2c.2.2,17.6,23.9,22.4,28.2h0c0,0,12.3,18.8,12.3,18.8l1.6,1.9-.4.4-1.6-2-12.3-18.7c-4.9-4.4-21.8-27.3-22.5-28.3l-2.8-4.2-5-7.7h.1c0-.1-.1-.2-.2-.2l-3.5-1.2-1.6,1.2c0,.5,0,2.3,0,3.1,0,.4,0,.5,0,.5,0,0,0,0,0,0h.2s.1.1.1.1c.5.6,4.7,6.9,4.9,7.1,0,0,1.7,2.2,3.1,4.2,1.5,2,15.8,30.2,16.5,31.4l12.2,19.1,1,1.9,1,.7,1.1,2.4-.5.2Z"/>
        <polygon points="717.8 29.6 717.5 29.1 722.9 25.5 723.2 25.9 717.8 29.6"/>
        <polygon points="722.8 36.8 722.5 36.3 727.7 33.1 728 33.5 722.8 36.8"/>
        <polygon points="723.3 37.6 723 37.2 728.1 33.9 728.4 34.4 723.3 37.6"/>
        <polygon points="723.8 38.3 723.5 37.8 728.6 34.5 728.9 35 723.8 38.3"/>
        <rect x="723.6" y="36.9" width="6.1" height=".6" transform="translate(95.1 398.6) rotate(-32.7)"/>
        <polygon points="724.7 39.6 724.4 39.2 729.6 35.9 729.9 36.4 724.7 39.6"/>
        <rect x="724.7" y="38.2" width="6.1" height=".6" transform="translate(94.6 399.4) rotate(-32.7)"/>
        <path d="M729.7,47.5l-.5-.2c.2-.8.9-6.1,1.3-9.2l-4.6,3-.3-.5,5.1-3.3c0,0,.2,0,.3,0,0,0,.1.2.1.3,0,.4-1,8.9-1.4,10"/>
        <polygon points="742.3 72.4 742 72 752.9 65.3 753.2 65.7 742.3 72.4"/>
        <polygon points="743.3 73.5 743 73 753.9 66.3 754.2 66.8 743.3 73.5"/>
        <rect x="753.6" y="87.6" width="12.8" height=".6" transform="translate(66.2 410.2) rotate(-31.5)"/>
        <rect x="754.2" y="88.9" width="13.1" height=".6" transform="translate(65.6 410.8) rotate(-31.5)"/>
        <path d="M752.4,68.5l.3,3.5,2.9-1.8-3.2-1.8ZM748.9,70.6l.2,3.8,3.1-1.9-3.2-1.9ZM745.4,72.8l.3,3.6,2.8-1.7-3.1-1.9ZM745.4,77.2s0,0-.1,0c0,0-.2-.1-.2-.2l-.4-4.6c0-.1,0-.2.1-.3,0,0,.2,0,.3,0l3.3,2-.2-3.8c0-.1,0-.2.1-.2h0c0-.1.2-.1.3,0l3.3,1.9-.3-3.7c0-.1,0-.2.1-.3,0,0,.2,0,.3,0l3.9,2.2h0s0,0,0,0l.3.5-10.9,6.7c0,0-.1,0-.2,0"/>
        <polygon points="745.9 78.2 745.6 77.7 756.5 71 756.8 71.5 745.9 78.2"/>
        <rect x="745.5" y="75.3" width="12.8" height=".6" transform="translate(71.4 404.2) rotate(-31.5)"/>
        <rect x="746.2" y="76.4" width="12.8" height=".6" transform="translate(70.9 404.7) rotate(-31.5)"/>
        <path d="M757.8,74.6l-8.9,5.4,6.2,9.6,8.9-5.4-6.2-9.6ZM757.6,75.4l5.6,8.6-7.9,4.8-5.6-8.6,7.9-4.8Z"/>
        <path d="M757.4,76.3l-6.7,4.2,4.8,7.6,6.7-4.2-4.8-7.6ZM757.2,77.1l4.2,6.6-5.7,3.6-4.2-6.6,5.7-3.6Z"/>
        <path d="M756.2,79.6l-2.1,1.3,2.4,3.8,2.1-1.3-2.4-3.8ZM756,80.3l1.8,2.8-1.1.7-1.8-2.8,1.1-.7Z"/>
        <path d="M723.5,36.1l-4.9-7.4s-1-1.3-1.2-3.7h.6c.1,2.1,1.1,3.3,1.1,3.4l4.9,7.4-.5.3Z"/>
        <path d="M726.5,34.2l-4.8-7.5s-1.5-1.6-3.2-1.8v-.6c2,.3,3.6,2,3.6,2.1l4.9,7.5-.5.3Z"/>
        <path d="M721.3,28c-.7,0-1.2.5-1.2,1.2s.5,1.2,1.2,1.2,1.2-.5,1.2-1.2c0-.6-.5-1.2-1.2-1.2M721.3,28.6c.3,0,.6.3.6.6s-.3.6-.6.6-.6-.3-.6-.6.3-.6.6-.6"/>
        <rect x="725.5" y="41.1" width="4.7" height=".6" transform="translate(546.7 747.6) rotate(-78.9)"/>
        <path d="M732.4,52.7h-.6c.5-2.5.9-12.1.9-12.2h.6c0,.4-.5,9.7-1,12.2"/>
        <path d="M735.4,58.5h-.5c.4-1.8,1-13.7,1.1-13.8h.6c0,.5-.7,12.1-1.1,13.8"/>
        <path d="M739,65.6h-.5c1-4.3.7-16.5.7-16.6h.6c0,.5.4,12.4-.7,16.6"/>
        <path d="M742.2,71.5l-.5-.2c1.9-5.4,1.8-16.7,1.8-16.8h.6c0,.5.1,11.5-1.8,17"/>
        <path d="M732.8,40.6c-1.1-.2-4.5-1.2-4.6-1.3l.2-.5s3.5,1.1,4.5,1.3v.6Z"/>
        <polygon points="735.3 43.9 725.7 41.1 725.8 40.6 735.5 43.4 735.3 43.9"/>
        <rect x="732.8" y="40.8" width=".6" height="10.6" transform="translate(501.3 743.1) rotate(-75.2)"/>
        <path d="M741.7,52.4c-.4-.2-7.2-2-11.7-3.2l.2-.5c1.2.3,11.2,3,11.8,3.3l-.3.5Z"/>
        <path d="M746,57.9c-5.4-2-13.4-3.9-13.5-3.9v-.5c.2,0,8.2,1.9,13.7,4l-.2.5Z"/>
        <path d="M751.7,64.5c-3.4-1.5-16.2-5.2-16.3-5.2l.2-.5c.5.1,13,3.8,16.4,5.3l-.2.5Z"/>
        <path d="M748.3,68.7h-.5c.4-1.7.4-8.2.4-8.3h.6c0,.3,0,6.7-.4,8.3"/>
        <path d="M747.1,69.3c-2.7-1.9-8.4-3.5-8.4-3.5l.2-.5c.2,0,5.8,1.6,8.6,3.6l-.3.5Z"/>
        <polygon points="759.8 96.4 757.4 92.7 765.3 87.5 767.3 90.6 766.8 90.9 765.1 88.3 758.2 92.8 760.3 96.1 759.8 96.4"/>
        <polygon points="762.2 98 761.9 97.6 766.9 94.3 767.2 94.8 762.2 98"/>
        <polygon points="760.9 96.7 758.4 92.8 765 88.5 767.3 91.9 766.8 92.3 764.9 89.2 759.2 93 761.4 96.3 760.9 96.7"/>
        <rect x="761.2" y="95.2" width="6.3" height=".6" transform="translate(73.3 435.8) rotate(-33.3)"/>
        <polygon points="761.2 97 760.4 91.9 761 91.8 761.7 97 761.2 97"/>
        <polygon points="763.6 96.1 758.5 93.1 758.8 92.6 763.9 95.7 763.6 96.1"/>
        <polygon points="763.3 95.8 762.5 90.5 763 90.4 763.9 95.7 763.3 95.8"/>
        <rect x="764.9" y="89" width=".6" height="5.7" transform="translate(-5.3 108.1) rotate(-8.1)"/>
        <polygon points="765.5 94.8 760.9 91.8 761.2 91.4 765.8 94.3 765.5 94.8"/>
        <rect x="764.7" y="89.1" width=".6" height="4.7" transform="translate(286.4 695.3) rotate(-58.4)"/>
        <path d="M801.2,96.2l-.5-.2,1.1-2.4,1-.7.9-1.9,12.2-19.1c.6-1.2,15-29.4,16.4-31.4,1.5-2,3.1-4.2,3.1-4.2.2-.2,4.4-6.5,4.9-7.1h.1c0-.1.2-.1.2-.1,0,0,0,0,0,0,0,0,.1-.1,0-.5,0-.8,0-2.6,0-3.1l-1.6-1.2-3.5,1.2c0,0-.2,0-.2,0h0c0,.1-.1.3-.1.3l-4.9,7.5-2.8,4.2c-.7,1-17.6,23.9-22.5,28.3l-12.2,18.7-1.6,2-.4-.4,1.6-2,12.3-18.8c4.8-4.3,22.3-28,22.4-28.2l2.8-4.2,4.8-7.4c0-.1,0-.2,0-.3,0-.3.5-.4.6-.5l3.7-1.3,2.1,1.5h0c0,.2,0,2.5,0,3.4,0,.4,0,.8-.3,1-.1.1-.2.1-.3.2-.8,1-4.8,7-4.8,7,0,0-1.7,2.2-3.1,4.2-1.4,2-16.2,31-16.4,31.3l-12.2,19.1-1,2-1,.7-1,2.3Z"/>
        <polygon points="840.5 29.5 835.1 25.9 835.4 25.5 840.8 29.1 840.5 29.5"/>
        <rect x="832.7" y="31.9" width=".6" height="6.1" transform="translate(355.2 718.2) rotate(-57.4)"/>
        <polygon points="835 37.6 829.8 34.3 830.1 33.9 835.3 37.1 835 37.6"/>
        <rect x="831.8" y="33.4" width=".6" height="6.1" transform="translate(353.9 718.4) rotate(-57.5)"/>
        <polygon points="834 39 828.9 35.7 829.2 35.3 834.3 38.5 834 39"/>
        <polygon points="833.5 39.6 828.4 36.4 828.7 35.9 833.8 39.1 833.5 39.6"/>
        <rect x="830.3" y="35.4" width=".6" height="6.1" transform="translate(351.5 718) rotate(-57.5)"/>
        <path d="M828.6,47.5c-.3-1.1-1.3-9.6-1.4-10,0-.1,0-.2.1-.3,0,0,.2,0,.3,0l5.1,3.3-.3.5-4.6-3c.4,3.2,1,8.5,1.3,9.2l-.5.2Z"/>
        <rect x="810.4" y="62.4" width=".6" height="12.8" transform="translate(326.4 722.6) rotate(-58.3)"/>
        <rect x="809.4" y="63.5" width=".6" height="12.8" transform="translate(325 722.2) rotate(-58.3)"/>
        <rect x="798" y="81.4" width=".6" height="12.8" transform="translate(304.3 721) rotate(-58.3)"/>
        <polygon points="803 92.8 791.8 85.9 792.1 85.4 803.3 92.3 803 92.8"/>
        <path d="M802.7,70.3l2.9,1.8.3-3.5-3.2,1.8ZM806.1,72.4l3.1,1.9.2-3.8-3.2,1.8ZM809.8,74.7l2.8,1.7.3-3.6-3.1,1.9ZM812.9,77.2s0,0-.2,0l-10.9-6.7.3-.5h0s0,0,0,0l3.9-2.2c0,0,.2,0,.3,0,0,0,.1.2.1.3l-.3,3.7,3.3-1.9c0,0,.2,0,.3,0h0c0,.1.1.2.1.3l-.2,3.8,3.3-2c0,0,.2,0,.3,0,0,0,.1.2.1.3l-.4,4.6c0,0,0,.2-.2.2,0,0,0,0-.1,0"/>
        <rect x="806.8" y="68.2" width=".6" height="12.8" transform="translate(319.8 722.2) rotate(-58.3)"/>
        <rect x="806.1" y="69.2" width=".6" height="12.8" transform="translate(318.6 722.1) rotate(-58.3)"/>
        <rect x="805.4" y="70.2" width=".6" height="12.8" transform="translate(317.3 722) rotate(-58.3)"/>
        <path d="M800.5,74.6l-6.2,9.6,8.9,5.4,6.2-9.6-8.9-5.4ZM800.6,75.3l7.9,4.8-5.6,8.6-7.9-4.8,5.6-8.6Z"/>
        <path d="M800.9,76.3l-4.8,7.6,6.7,4.2,4.8-7.6-6.7-4.2ZM801.1,77.1l5.7,3.6-4.2,6.6-5.7-3.6,4.2-6.6Z"/>
        <path d="M802,79.5l-2.4,3.8,2.1,1.3,2.4-3.8-2.1-1.3ZM802.2,80.3l1.1.7-1.8,2.8-1.1-.7,1.8-2.8Z"/>
        <path d="M834.8,36.1l-.5-.3,4.9-7.4s1-1.2,1.1-3.4h.6c-.2,2.4-1.2,3.7-1.2,3.7l-4.9,7.3Z"/>
        <path d="M831.8,34.1l-.5-.3,4.8-7.5c0-.1,1.7-1.8,3.6-2.1v.6c-1.6.2-3.1,1.9-3.1,1.9l-4.8,7.5Z"/>
        <path d="M836.9,28c-.7,0-1.2.5-1.2,1.2s.5,1.2,1.2,1.2,1.2-.5,1.2-1.2c0-.6-.5-1.2-1.2-1.2M836.9,28.5c.3,0,.6.3.6.6s-.3.6-.6.6-.6-.3-.6-.6c0-.3.3-.6.6-.6"/>
        <rect x="830.1" y="39.1" width=".6" height="4.7" transform="translate(7.6 161) rotate(-11.1)"/>
        <path d="M825.9,52.7c-.5-2.4-.9-11.8-1-12.2h.6c0,0,.5,9.6.9,12h-.5Z"/>
        <path d="M822.9,58.5c-.4-1.7-1-13.3-1.1-13.8h.6c0,0,.7,12,1.1,13.7h-.5Z"/>
        <path d="M819.3,65.5c-1-4.2-.7-16.1-.7-16.6h.6c0,.1-.3,12.3.7,16.5h-.5Z"/>
        <path d="M816,71.5c-1.9-5.5-1.8-16.5-1.8-17h.6c0,.1-.2,11.4,1.8,16.8l-.5.2Z"/>
        <path d="M825.4,40.6v-.6c1-.2,4.4-1.3,4.4-1.3l.2.5c-.1,0-3.5,1.1-4.6,1.3"/>
        <rect x="822.6" y="41.9" width="10.1" height=".6" transform="translate(20.7 230.7) rotate(-16.1)"/>
        <polygon points="820.1 47.7 820 47.1 830.2 44.4 830.4 45 820.1 47.7"/>
        <path d="M816.6,52.3l-.2-.5c.5-.3,10.6-3,11.8-3.3l.2.5c-4.5,1.2-11.3,3.1-11.7,3.3"/>
        <path d="M812.2,57.8l-.2-.5c5.5-2.1,13.5-4,13.6-4v.5c0,0-7.9,1.9-13.4,4"/>
        <path d="M806.6,64.5l-.2-.5c3.4-1.5,15.8-5.1,16.4-5.3l.2.5c-.1,0-12.9,3.8-16.3,5.2"/>
        <path d="M810,68.6c-.4-1.6-.4-8-.5-8.3h.6c0,0,0,6.6.4,8.1h-.5Z"/>
        <path d="M811.1,69.2l-.3-.5c2.8-1.9,8.3-3.5,8.6-3.6l.2.5c0,0-5.7,1.6-8.4,3.5"/>
        <polygon points="798.4 96.4 798 96.1 800.1 92.8 793.1 88.3 791.4 90.9 790.9 90.5 793 87.5 800.9 92.7 798.4 96.4"/>
        <polygon points="796 98 791.1 94.8 791.4 94.3 796.3 97.5 796 98"/>
        <polygon points="797.4 96.6 796.9 96.3 799.1 93 793.4 89.2 791.4 92.2 790.9 91.9 793.2 88.4 799.9 92.8 797.4 96.6"/>
        <polygon points="796.4 97.5 791.1 94 791.4 93.5 796.7 97 796.4 97.5"/>
        <polygon points="797.1 97 796.5 97 797.2 91.8 797.8 91.9 797.1 97"/>
        <polygon points="794.7 96.1 794.4 95.6 799.4 92.6 799.7 93 794.7 96.1"/>
        <polygon points="794.9 95.8 794.4 95.7 795.2 90.4 795.8 90.5 794.9 95.8"/>
        <rect x="790.1" y="91.6" width="5.7" height=".6" transform="translate(592.5 864.5) rotate(-82.1)"/>
        <rect x="792.2" y="92.7" width="5.5" height=".6" transform="translate(78.2 449.2) rotate(-33.1)"/>
        <polygon points="791.4 93 791.1 92.5 795.1 90 795.4 90.5 791.4 93"/>
        <path d="M741,124.1c-.5,0-.9.4-.9.9s.4.9.9.9.9-.4.9-.9-.4-.9-.9-.9M741,124.7c.2,0,.3.1.3.3s-.1.3-.3.3-.3-.1-.3-.3.1-.3.3-.3"/>
        <path d="M740.7,127.7c-.5,0-.9.4-.9.9s.4.9.9.9.9-.4.9-.9-.4-.9-.9-.9M740.7,128.3c.2,0,.3.1.3.3s-.1.3-.3.3-.3-.1-.3-.3.1-.3.3-.3"/>
        <path d="M742.1,120.6c-.5,0-.9.4-.9.9s.4.9.9.9.9-.4.9-.9-.4-.9-.9-.9M742.1,121.2c.2,0,.3.1.3.3s-.1.3-.3.3-.3-.1-.3-.3c0-.2.1-.3.3-.3"/>
        <path d="M843.7,170.4c-18.2-12-53.4-49.5-53.8-49.8l.4-.4c.3.4,35.5,37.8,53.7,49.8l-.3.5Z"/>
        <path d="M793.9,129.1c-.6,0-1.1.5-1.1,1.1s.5,1.1,1.1,1.1,1.1-.5,1.1-1.1-.5-1.1-1.1-1.1M793.9,129.6c.3,0,.6.2.6.6s-.2.6-.6.6-.6-.2-.6-.6.2-.6.6-.6"/>
        <path d="M799.5,136.8c-.6,0-1.2.5-1.2,1.2s.5,1.2,1.2,1.2,1.2-.5,1.2-1.2c0-.6-.5-1.2-1.2-1.2M799.5,137.4c.3,0,.6.3.6.6s-.3.6-.6.6-.6-.3-.6-.6.3-.6.6-.6"/>
        <path d="M805.9,144.1c-.6,0-1.1.5-1.1,1.1s.5,1.1,1.1,1.1,1.1-.5,1.1-1.1-.5-1.1-1.1-1.1M805.9,144.7c.3,0,.6.3.6.6s-.2.6-.6.6-.6-.2-.6-.6.2-.6.6-.6"/>
        <path d="M813.3,147.4c-.6,0-1.1.5-1.1,1.1s.5,1.1,1.1,1.1,1.1-.5,1.1-1.1-.5-1.1-1.1-1.1M813.3,147.9c.3,0,.6.3.6.6s-.2.6-.6.6-.6-.2-.6-.6.3-.6.6-.6"/>
        <path d="M819.1,154.9c-.6,0-1.2.5-1.2,1.2s.5,1.2,1.2,1.2,1.2-.5,1.2-1.2-.5-1.2-1.2-1.2M819.1,155.4c.3,0,.6.3.6.6s-.3.6-.6.6-.6-.3-.6-.6.3-.6.6-.6"/>
        <path d="M826,161.9c-.6,0-1.1.5-1.1,1.1s.5,1.1,1.1,1.1,1.1-.5,1.1-1.1c0-.6-.5-1.1-1.1-1.1M826,162.4c.3,0,.6.2.6.6s-.2.5-.6.5-.6-.2-.6-.5.2-.6.6-.6"/>
        <path d="M834.9,168.1c-.6,0-1.1.5-1.1,1.1s.5,1.1,1.1,1.1,1.1-.5,1.1-1.1-.5-1.1-1.1-1.1M834.9,168.7c.3,0,.6.2.6.6s-.2.6-.6.6-.6-.2-.6-.6.2-.6.6-.6"/>
        <path d="M841.8,170.7c-20.7-14.5-51.9-48.2-52.2-48.6l.4-.4c.3.3,31.5,34,52.1,48.5l-.3.5Z"/>
        <path d="M832.9,173c-.4-.3-36.2-27.7-48.2-42.6l.4-.3c12,14.9,47.7,42.2,48.1,42.5l-.4.4Z"/>
        <path d="M831.6,173.5c-.3-.2-27.6-19.5-48.3-42l.4-.4c20.6,22.5,47.9,41.7,48.2,41.9l-.3.5Z"/>
        <path d="M832.3,173.3c1.6,1.2,7,5,12.2,8.3,5.7,3.6,10.6,4.5,13.1,4.1,2.1-.3,2.8-1.4,3.1-2.4s0-1.6-.5-1.9c-.6-.4-3.5-2.7-3.6-2.8l-11.4-8.7c-2.7.6-10.8,2.8-13,3.4M856.6,186.3c-2,0-6.5-.5-12.4-4.3-6.2-3.9-12.6-8.6-12.7-8.7,0,0-.1-.2-.1-.3,0,0,0-.2.2-.2.1,0,10.7-2.9,13.8-3.5,0,0,.2,0,.2,0l11.5,8.8c1,.8,3.1,2.5,3.5,2.7.7.4,1.2,1.4.7,2.6-.4,1-1.2,2.4-3.6,2.7-.2,0-.6,0-1.1,0"/>
        <path d="M793.5,132.4c-.3,0-1-.2-1.3-1.4-1.1-3.6-4.5-3.9-4.7-3.9v-.6c0,0,4,.4,5.2,4.3.2.7.5,1,.8,1,0,0,0,0,.2,0,.2-.1.2-.2,0-.7h.3c0,0,.3-.1.3-.1,0,.5.2,1-.3,1.3-.1,0-.2.1-.4.1,0,0,0,0-.1,0"/>
        <path d="M791.4,132c-.3,0-.6,0-.8-.3-.2-.2-.4-.6-.3-1,0-.4.2-.8.2-.8l.5.2s0,.3-.1.6c0,.3,0,.5.2.5.2.2.5.1.6,0,.5,0,.5-.5.5-.6h.6c0,.3-.1,1-.9,1.1-.1,0-.3,0-.4,0"/>
        <path d="M812.9,150.7c-.3,0-.9-.2-1.3-1.3-1.2-3.5-4.8-3.7-4.8-3.7v-.6c0,0,4,.2,5.4,4.1.2.6.5,1,.8.9,0,0,0,0,.2,0,.2-.1.2-.2,0-.7h.3c0-.1.3-.2.3-.2.1.5.2,1-.3,1.3-.1,0-.2.1-.4.2,0,0,0,0-.1,0"/>
        <path d="M810.8,150.4c-.3,0-.5,0-.7-.2-.3-.2-.4-.5-.4-1s.1-.8.1-.8l.5.2s0,.3,0,.6,0,.5.2.5c.2.1.5,0,.7,0,.5-.1.4-.5.4-.6h.6c0,.3,0,1-.9,1.1-.1,0-.3,0-.4,0"/>
        <path d="M798.1,136.5c-.2,0-.5,0-.7,0-1.7-.2-2.9-.8-3.7-1.7-.2-.3-.3-.5-.4-.7-.5-.9,0-2,0-2.1l.5.2s-.4,1,0,1.6c.1.2.2.4.4.6.6.8,1.7,1.3,3.3,1.5,1,.1,1.7,0,1.9-.4.2-.2.1-.5,0-.7,0-.1-.2-.5-1.3-.3v-.5c.9-.2,1.5,0,1.8.6.1.3.2.8-.1,1.2-.2.3-.7.6-1.7.6"/>
        <path d="M792.7,136c-.3,0-.6,0-.9-.2-.2-.2-.5-.5-.4-1h.6c0,.4,0,.5.2.6.3.2.8.2,1,0,.5-.2.5-.8.5-.8h.6c0,0,0,.9-.8,1.3-.2,0-.4.1-.7.1"/>
        <path d="M800.5,138l-.3-.5c.6-.4.6-.5.4-1.1-.2-.4-1-.3-1.4-.2l-.2-.5c.2,0,1.7-.5,2.1.5.4.9,0,1.3-.6,1.8"/>
        <path d="M817.5,154.6c-.1,0-.3,0-.5,0-1.8-.1-3-.6-3.8-1.5-.2-.2-.4-.5-.5-.7-.5-.8,0-2,0-2l.5.2s-.3,1,0,1.6c0,.2.2.4.4.6.7.8,1.8,1.2,3.4,1.3,1,0,1.7,0,1.9-.5.2-.2,0-.5,0-.7,0-.1-.3-.5-1.3-.2l-.2-.5c1-.3,1.6,0,1.9.5.2.3.2.8,0,1.2-.2.4-.8.8-2,.8"/>
        <path d="M812.1,154.4c-.3,0-.5,0-.8-.2-.2-.2-.5-.5-.5-1h.6c0,.4,0,.5.2.5.3.2.8.1,1,0,.4-.2.5-.8.5-.8h.6c0,0,0,.9-.8,1.3-.2.1-.5.2-.8.2"/>
        <path d="M820.2,156l-.3-.5c.6-.4.6-.5.3-1.1-.2-.4-1.1-.2-1.4,0l-.2-.5c.2,0,1.7-.5,2.1.4.4.9.2,1.3-.5,1.8"/>
        <path d="M801.9,140.1l-.4-.4s.2-.3,0-1c-.1-.5-1.1-.5-1.1-.5v-.6s1.4,0,1.6.9c.2.9-.1,1.4-.2,1.5"/>
        <path d="M805.2,147.2c-.3,0-.6,0-.9-.4-.3-.3-.4-.8-.3-1.4h0c.2-1.4,0-3.3-2.1-5-.4-.3-1-.3-1.4-.2-.2,0-.4.2-.4.6s.1.6.1.6l-.5.3s-.2-.3-.2-1,.3-.9.8-1.1c.7-.3,1.5-.2,2,.2,2.4,2,2.5,4.2,2.3,5.4h0c0,.6,0,.9.2,1.1.2.2.4.2.5.2,0,0,.2-.3.3-.6h.5c0,.3-.3,1.1-.8,1.1,0,0,0,0,0,0"/>
        <path d="M803.5,146.1c-.6,0-1.2-.2-1.3-.8,0-.4,0-.8.1-.9l.5.2c0,0-.1.4,0,.5,0,.3.5.4.9.3.3,0,.5-.4.5-.4l.5.2s-.3.7-.9.7c0,0-.1,0-.2,0"/>
        <path d="M821.7,158l-.5-.3s.2-.3,0-1c-.2-.5-1.1-.5-1.1-.5v-.6s1.4-.1,1.7.9c.3.9,0,1.4,0,1.4"/>
        <path d="M825.2,165c-.3,0-.6,0-.8-.3-.3-.3-.4-.8-.3-1.4h0c.1-1.4-.2-3.3-2.3-4.9-.4-.3-1.1-.3-1.4,0-.2,0-.4.3-.4.6,0,.5.1.6.1.6l-.5.3s-.2-.3-.3-1c0-.5.2-.9.7-1.1.7-.3,1.5-.3,2,.1,2.5,1.9,2.7,4.1,2.5,5.3h0c0,.6,0,.9.2,1.1.2.2.4.2.5.2,0,0,.2-.3.3-.6h.5c0,.3-.2,1.1-.8,1.1,0,0,0,0-.1,0"/>
        <path d="M823.4,164c-.6,0-1.1-.2-1.2-.7,0-.4,0-.8,0-.9l.5.2c0,0,0,.4,0,.5,0,.3.5.3.9.3.3,0,.4-.4.4-.4l.5.2s-.3.7-.9.8c0,0-.2,0-.2,0"/>
        <path d="M832.4,170.1c-.2,0-.5,0-.8-.2-.5-.2-.7-.8-.4-1.5l.5.2c0,.2-.2.6.1.8.3.2.6.2.8,0,.2,0,.2-.2.2-.2s0,0,0,0c.2-1-.1-2.1-.5-2.8-1-2.2-2.3-2.3-2.7-2.3s-.5.2-.8.4c-.4.3-.8.6-1.3.7-1.1.2-1.6-1.2-1.7-1.2l.5-.2s.4,1,1,.9c.4,0,.7-.3,1.1-.5.4-.3.7-.5,1.1-.5s2,.2,3.2,2.7c.4.8.8,2,.5,3.2,0,.3-.2.5-.5.7-.1,0-.3.2-.6.2"/>
        <path d="M834.1,171.1c-.2,0-.4,0-.7-.2-.5-.3-.5-1.4-.4-1.6h.6c0,.5,0,1,.2,1.1.2.1.3.2.5.1.1,0,.2-.2.3-.5h.5c0,.6-.3.9-.6,1.1-.1,0-.2,0-.3,0"/>
        <path d="M828.7,165.7c-.5-.7-.1-1.5.1-1.7l.4.4s-.4.5,0,1.1l-.5.3Z"/>
        <path d="M846.8,172.4l-10.7,2.2c8.6,6.6,17.2,10.2,19.4,10.2h0c2.2,0,3.8-.6,4-2,.2-1.4-1.1-2-1.1-2l-11.7-8.4ZM846.6,173l11.5,8.3h0s0,0,0,0c0,0,.9.4.8,1.4-.2,1.3-2.2,1.5-3.5,1.5-2,0-10-3.3-18.1-9.3l9.2-1.9Z"/>
        <path d="M846.7,173.7l-7.9,1.6c4.8,3.5,9.7,6,12.9,7.6,1.6.8,3.1,1.1,4.2,1.1s1.8-.3,2.1-.7c.6-.9,0-1.5,0-1.5l-11.2-8ZM846.6,174.3l11,7.8c0,.1.2.4,0,.8-.2.2-.7.5-1.6.5s-2.6-.4-4-1c-4.3-2.1-8.3-4.4-11.7-6.8l6.4-1.3Z"/>
        <path d="M852.1,179.9c0,0,0,.2,0,.2,0,0,0,0,0,0,0,0,.1-.1,0-.2,0,0,0-.2-.1-.2-.2,0-.4,0-.5.2,0,0,0,0,0,.1h.4ZM854.9,182s0,0-.1,0c0,0,0,0,0,0,0,0,0,.1,0,.2,0,0,.2.2.4.1.1,0,.2,0,.3-.2t0,0h-.4c0,0,0-.1,0-.2M855,183c-.3,0-.5-.1-.7-.3-.2-.2-.3-.5-.2-.8,0-.2.2-.3.3-.4-.6,0-1.5-.2-1.8-.3-.6,0-1.5-.2-1.5-1,0-.3,0-.6.2-.7.2-.3.6-.3.9-.3s.6.2.7.6c0,.4,0,.7-.4.9,0,0,0,0,0,0,0,0,.2,0,.2,0,.6,0,2.5.4,2.5.4h0c.3.2.9.6.6,1.3-.1.3-.4.5-.7.6,0,0,0,0-.1,0"/>
        <path d="M846,176.6c-.1,0-.2,0-.2,0,0,0,0,.1,0,.2,0,.1,0,.2,0,.2,0,0,0,0,0,0,0,0,0,0,0,0l.4-.2s0,0-.1,0c0,0-.1,0-.2,0M850,178.3s0,0,0,0c0,0,0,.1,0,.2s0,.1,0,.2c0,0,.1,0,.2,0,0,0,0,0,0,0h-.1v-.4ZM850.3,180h0c-.5,0-1.7-.3-2.3-1.7v-.3c-.6-1.1-1.2-2.5-2.2-2.4-.4,0-.7.3-.8.6-.1.4,0,.8,0,.8,0,0,.2.1.3.2,0,0,0-.2-.1-.3,0-.3,0-.5.2-.7.3-.3.8-.2.9-.2.3,0,.5.3.6.7,0,.2,0,.6-.3,1-.8.7-1.5,0-1.9-.2-.3-.3-.5-.9-.3-1.4.2-.6.6-1,1.3-1,1.4-.2,2.1,1.5,2.6,2.7v.3c.6,1.1,1.5,1.3,1.9,1.3,0,0,.2,0,.3-.2,0,0,0-.1,0-.2,0,0-.1.2-.2.2-.1,0-.4.2-.8,0-.2-.1-.4-.4-.4-.7s.2-.6.4-.8c.2-.1.6-.2.9,0,.2,0,.5.2.6.5.2.4,0,1-.1,1.3-.2.3-.5.5-.8.5"/>
        <path d="M842.9,175.8h0c0,.5,0,.5.2.5.2,0,.2-.1.2-.2,0,0,0-.1,0-.2,0,0-.1,0-.2,0l-.3-.3ZM843.2,177h0c-.8,0-.8-.7-.7-1.1h0c0-.3.1-.5.3-.7.3-.2.7-.3,1-.2.3,0,.8.7,1.2,1.2l-.5.3c-.2-.2-.3-.4-.5-.6,0,0,0,.2,0,.3,0,.4-.4.6-.8.6"/>
        <path d="M848.5,176.9l.2.4s0,0,0,0c0,0,0,0,0,0,0,0,.2,0,.3-.1,0,0,0,0,0-.1,0-.1-.2-.2-.5-.2M848.8,177.9s0,0-.1,0c-.2,0-.3-.1-.4-.2h-.5s0-.7.2-1.1c.1-.2.3-.3.6-.3.5,0,.9.2,1.1.5.1.2,0,.5,0,.7-.2.2-.5.3-.7.3"/>
        <path d="M847.2,178.4s0,0,0,0c0,.1-.1.2,0,.3,0,0,.1.2.2.2,0,0,.2,0,.3,0,0,0,0,0,0,0,0,0,0-.1,0-.1,0,0-.1,0-.2,0l-.2-.4ZM847.4,179.5c-.2,0-.4,0-.5-.1,0,0-.3-.2-.4-.6,0-.2,0-.4.2-.8.4-.5,1.2-.4,1.6-.2l-.2.5c0,.1.1.3,0,.6,0,.2-.2.4-.4.5-.1,0-.2,0-.3,0"/>
        <path d="M753.3,134.8c-11.7,11.8-28.2,27.7-39.2,35.1l-.6.4s0,0,0,0h0c0-.1-.2-.5-.2-.5,0,0,.2-.1.3-.2,10.8-7.2,27.5-23.2,39.3-35.1.2,0,.4.1.6.2"/>
        <path d="M754.9,135.3c-10.9,11-26.8,26.3-39.1,35.1-.2.1-.3.2-.5.3l-.3-.5s0,0,0,0c12.2-8.6,28.2-23.9,39.2-35,.2,0,.4.1.6.2"/>
        <path d="M766.4,137c-14,14.2-38.3,33.1-41.8,35.7-.2.2-.4.3-.4.3l-.3-.5s0,0,0,0c1.4-1.1,27-20.7,41.7-35.5.3,0,.5,0,.8,0"/>
        <path d="M768.6,137c-18.7,19-40.4,34.6-42.8,36.3h-.1c0,0,0,.1,0,.2l-.3-.5s0,0,.2-.1c2.3-1.6,23.7-17,42.4-35.8.3,0,.5,0,.8,0"/>
        <path d="M712.7,181.6c-5.7,3.6-10.6,4.5-13.1,4.1-2.1-.3-2.8-1.4-3.1-2.4-.4-1,0-1.6.5-1.9.6-.4,3.5-2.7,3.6-2.8l11.4-8.7c.4,0,.9.2,1.5.4,0,0,.1,0,.2,0,3.5.9,9.5,2.5,11.3,3-1.6,1.2-7,5-12.2,8.3M725.6,172.9s0,0-.1,0c-.2,0-.4-.1-.8-.2-.2,0-.4-.1-.7-.2-1.9-.5-5.3-1.4-8.1-2.1-.2,0-.5-.1-.7-.2-.3,0-.7-.2-1-.2-.3,0-.5-.1-.8-.2-.7-.2-1.2-.3-1.6-.4h-.1s-11.6,8.8-11.6,8.8c-1,.8-3.1,2.5-3.5,2.7-.7.4-1.2,1.4-.7,2.6.4,1,1.2,2.4,3.6,2.8.2,0,.6,0,1.1,0,2,0,6.5-.5,12.4-4.3,5.8-3.6,11.8-8,12.6-8.6,0,0,0,0,0,0h.1c0,0,.1-.2.1-.2l.2-.2h-.5Z"/>
        <path d="M701.6,184.2c-1.2,0-3.3-.2-3.5-1.5-.1-.9.7-1.3.8-1.4h0s0,0,0,0l11.5-8.3,9.2,1.9c-8.1,6-16.1,9.3-18.1,9.3M710.4,172.4l-11.7,8.4s-1.3.5-1.1,2c.2,1.4,1.9,2,4,2h0c2.2,0,10.8-3.5,19.4-10.2l-10.7-2.2Z"/>
        <path d="M705.2,182.3c-1.4.7-2.8,1-4,1s-1.5-.2-1.6-.5c-.3-.4-.1-.7,0-.8l11-7.8,6.4,1.3c-3.5,2.4-7.4,4.6-11.7,6.8M710.4,173.6l-11.2,8s-.7.6,0,1.5c.3.5,1.1.7,2.1.7s2.6-.3,4.2-1.1c3.2-1.5,8-4.1,12.9-7.6l-7.9-1.6Z"/>
        <path d="M705,179.9s0,.1,0,.2c0,0,0,0,0,0,0,0-.1,0,0-.2,0,0,0-.2.1-.2h0c.2,0,.4,0,.5.2,0,0,0,0,0,.1h-.4ZM702.5,182.3c0,0-.2.1-.4.1-.1,0-.2,0-.3-.2,0,0,0,0,0,0h.5c0,0,0-.1,0-.1,0,0,0,0,.2,0,0,0,0,0,0,0,0,0,0,.1,0,.2M705.8,179.5c-.2-.3-.6-.3-.9-.3-.3,0-.6.2-.7.6,0,.4,0,.7.4.9,0,0,0,0,0,0,0,0-.2,0-.2,0-.6,0-2.5.4-2.5.4h0c-.3.2-.9.6-.6,1.3.1.3.4.5.7.6,0,0,0,0,.2,0,.3,0,.5-.1.7-.3.2-.2.3-.5.2-.8,0-.2-.2-.3-.3-.4.6-.1,1.5-.2,1.8-.3.6,0,1.5-.2,1.5-1,0-.3-.1-.5-.2-.7"/>
        <path d="M711.4,176.8c0,.1,0,.2,0,.2,0,0,0,0,0,0,0,0,0,0,0,0l-.4-.2s0,0,0,0c.2,0,.4,0,.4,0,0,0,0,.1,0,.2M707.1,178.6v-.4c0,0,.1,0,.1,0,0,0,0,.1,0,.2s0,.1,0,.2c0,0-.1,0-.2,0,0,0,0,0,0,0,0,0,0,0,.1,0M712.7,176.1c0,0,0-.2,0-.2-.2-.4-.6-.7-1.2-.8-1-.1-1.7.7-2.2,1.7-.2.3-.3.7-.5,1,0,0,0,0,0,0v.3c-.6,1.1-1.5,1.3-1.9,1.3,0,0-.2,0-.3-.2,0,0,0-.1,0-.2,0,0,.1.2.2.2.1,0,.4.2.8,0,.2-.1.4-.4.4-.7,0-.3-.2-.6-.4-.8-.2-.1-.6-.2-.9,0-.3,0-.5.2-.6.5-.2.4,0,1,.1,1.3.2.3.5.5.8.5h0c.4,0,1.4-.2,2-1.2,0-.1.2-.3.2-.5v-.3c.2,0,.2-.2.2-.3.4-1.1,1-2.2,1.9-2.1.4,0,.7.3.8.6.1.4,0,.8,0,.8,0,0-.2.1-.2.2,0,0,0-.2,0-.3,0-.3,0-.5-.2-.7-.3-.3-.8-.2-.9-.2-.3,0-.5.3-.6.7,0,.2,0,.6.3,1,.8.7,1.5,0,1.9-.2.2-.2.4-.6.4-1,0-.2,0-.3,0-.5"/>
        <path d="M714,176.4c-.2,0-.2-.1-.2-.2,0,0,0-.1,0-.2,0,0,.1,0,.2,0l.3-.3h0c0,.5,0,.5-.2.5M714.8,175.9h0c0-.3-.1-.5-.3-.6-.3-.2-.7-.3-1-.2-.2,0-.5.4-.8.8-.1.1-.2.3-.3.4l.5.3s0,0,0,0c.2-.2.3-.4.5-.5,0,.1,0,.2,0,.3,0,.4.4.6.8.6s0,0,0,0c.8,0,.7-.7.7-1.1"/>
        <path d="M708.4,177.2s0,0,0,0c0,0,0,0,0,0s-.2,0-.3-.1c0,0,0,0,0-.1,0-.1.2-.2.5-.2h0l-.2.4ZM709.3,176.7c0,0,0-.1,0-.2-.1-.2-.3-.3-.6-.3-.5,0-.9.2-1.1.5-.1.2,0,.5,0,.7.2.2.5.3.7.3h.1c.1,0,.3,0,.4-.2h0c0,0,.5,0,.5,0h0s0,0,0,0c0-.1,0-.6-.1-1"/>
        <path d="M709.9,178.9c0,0-.2,0-.3,0,0,0,0,0,0-.1,0,0,0-.1,0-.1,0,0,.1,0,.2,0l.2-.4h0c0,.2.1.2,0,.3,0,.1-.1.2-.2.2M710.5,178.1c-.2-.3-.6-.4-1-.4h0c-.2,0-.4,0-.5.1l.2.5c0,0,0,.2,0,.4s0,.1,0,.2c0,.2.2.4.4.5.1,0,.2,0,.3,0,.2,0,.4,0,.5-.1,0,0,.3-.2.4-.6,0-.2,0-.4-.2-.7"/>
        <path d="M757.1,138.3c-.6,0-1.1.5-1.2,1.1,0,.6.5,1.2,1.1,1.2h0c.6,0,1.1-.5,1.2-1.1,0-.6-.5-1.2-1.1-1.2h0ZM757.1,138.9h0c.3,0,.6.3.6.6,0,.3-.3.6-.6.6s-.3,0-.4-.2c-.1-.1-.2-.3-.2-.4,0-.3.3-.6.6-.6"/>
        <path d="M750.5,145.5c-.6,0-1.1.5-1.1,1.1s.5,1.2,1.1,1.2h0c.6,0,1.1-.5,1.1-1.1,0-.6-.5-1.1-1.1-1.2h0ZM750.5,146h0c.3,0,.6.3.5.6,0,.3-.3.5-.6.5s-.6-.3-.5-.6c0-.3.3-.5.6-.5"/>
        <path d="M743.1,148.5c-.6,0-1.1.5-1.1,1.1s.5,1.2,1.1,1.2h0c.6,0,1.1-.5,1.1-1.1,0-.6-.5-1.2-1.1-1.2h0ZM743.1,149.1h0c.3,0,.6.3.5.6s-.3.5-.6.5c-.2,0-.3,0-.4-.2,0-.1-.2-.2-.2-.4,0-.3.3-.5.6-.5"/>
        <path d="M737,155.9c-.6,0-1.1.5-1.2,1.1,0,.6.5,1.2,1.1,1.2h0c.6,0,1.1-.5,1.2-1.1,0-.6-.5-1.2-1.1-1.2h0ZM737,156.5h0c.2,0,.3,0,.4.2.1.1.2.3.2.4,0,.3-.3.6-.6.6h0c-.2,0-.3,0-.4-.2-.1-.1-.2-.3-.2-.4,0-.3.3-.6.6-.6"/>
        <path d="M730,162.7c-.6,0-1.1.5-1.1,1.1,0,.6.5,1.1,1.1,1.2h0c.6,0,1.1-.5,1.1-1.1s-.5-1.1-1.1-1.2h0ZM730,163.3h0c.3,0,.5.3.5.6,0,.3-.3.5-.6.5s-.3,0-.4-.2c0-.1-.2-.2-.2-.4,0-.3.3-.5.6-.5"/>
        <path d="M721,168.7c-.6,0-1.1.5-1.1,1.1,0,.6.5,1.1,1.1,1.2h0c.6,0,1.1-.5,1.1-1.1,0-.6-.5-1.1-1.1-1.2h0ZM721,169.3h0c.2,0,.3,0,.4.2,0,.1.2.2.2.4,0,.3-.3.5-.6.5s-.5-.3-.5-.6c0-.3.3-.5.6-.5"/>
        <path d="M743.4,151.9c0,0-.1,0-.2,0-.1,0-.3,0-.4-.2-.5-.4-.4-.8-.3-1.3h.6c-.1.6-.1.7,0,.8,0,0,0,0,.2,0,.3,0,.6-.3.9-.9,1.5-3.9,5.4-4,5.5-4v.6c-.1,0-3.6,0-4.9,3.6-.4,1.1-1,1.3-1.3,1.3"/>
        <path d="M745.6,151.7c-.1,0-.3,0-.5,0-.8-.2-.9-.9-.8-1.3h.6c0,0-.3,0-.3,0h.3c0,.1,0,.5.4.7.2,0,.5,0,.7,0,.1,0,.2-.3.2-.5s0-.6,0-.6l.5-.2s.1.4,0,.8c0,.5-.1.8-.4,1-.2.1-.4.2-.7.2"/>
        <path d="M758.6,138c-1.1,0-1.6-.4-1.8-.7-.3-.4-.2-.9,0-1.2,0-.1.1-.2.2-.3l.4.4s0,0-.1.2c0,.1-.1.4,0,.7.2.4.9.5,1.9.4,1.2-.1,2.1-.4,2.7-.8l.3.5c-.7.5-1.7.8-3,.9-.2,0-.4,0-.6,0"/>
        <path d="M764,137.7c-.3,0-.6,0-.8-.2-.2,0-.3-.2-.4-.4l.4-.3c0,0,.2.2.3.2.2.1.9.2,1.1-.1l.4.3c-.2.3-.7.4-1,.4"/>
        <path d="M756.1,139.5c-.7-.5-1-.9-.6-1.8.4-.9,2-.5,2.1-.4l-.2.5c-.4-.1-1.3-.2-1.4.1-.3.5-.2.7.4,1.1l-.3.5Z"/>
        <path d="M738.9,155.7c-1.3,0-1.8-.4-2.1-.8-.3-.5-.2-1,0-1.2.3-.6,1-.7,2-.4l-.2.5c-1-.3-1.2,0-1.3.2,0,.1-.2.4,0,.7.2.4.9.6,1.9.5,1.6,0,2.7-.5,3.4-1.2.2-.2.3-.3.4-.6.4-.6,0-1.6,0-1.6l.5-.2s.4,1.2-.1,2c0,.2-.2.4-.5.6-.8.9-2,1.3-3.8,1.4,0,0-.2,0-.3,0"/>
        <path d="M744.1,155.6c-.3,0-.7,0-.8-.2-.7-.4-.7-1.3-.7-1.3h.6-.3.3s0,.6.4.8c.2,0,.7.2,1,0,0,0,.2-.2.2-.5h.6c0,.5-.3.8-.5,1-.2.1-.5.2-.7.2"/>
        <path d="M736,157c-.7-.5-1-.9-.5-1.8s2-.4,2.2-.3l-.2.5c-.4-.1-1.3-.3-1.5,0-.3.5-.2.7.3,1.1l-.3.5Z"/>
        <path d="M754.7,141.5s-.4-.5-.1-1.5c.3-1,1.6-.9,1.7-.9v.6s-1,0-1.1.5c-.2.7,0,.9,0,1l-.5.4Z"/>
        <path d="M751.2,148.5h-.1c-.5,0-.8-.9-.8-1h.5c0,.2.2.4.3.4.1,0,.4,0,.5-.2.2-.2.2-.5.2-1h0c-.1-1.3,0-3.6,2.4-5.5.5-.4,1.4-.5,2-.2.5.2.7.6.7,1.1,0,.6-.2.9-.2,1l-.5-.3s.1-.2.1-.6c0-.3-.3-.5-.4-.6-.4-.2-1-.2-1.4.1-2.1,1.7-2.4,3.5-2.2,4.8h0c0,.8,0,1.2-.3,1.6-.3.2-.6.3-.9.3"/>
        <path d="M753,147.5c0,0-.1,0-.2,0-.6,0-.9-.7-.9-.7l.5-.2s.2.4.5.4c.4,0,.8,0,.9-.3,0-.2,0-.4,0-.5l.5-.2s.2.5,0,.9c-.1.5-.7.8-1.3.8"/>
        <path d="M734.4,159s-.4-.5,0-1.5c.3-1,1.7-.8,1.7-.8v.6c0,0-1,0-1.2.4-.2.6,0,.9,0,1l-.5.3Z"/>
        <path d="M730.8,165.8c0,0-.1,0-.2,0-.5,0-.7-.9-.8-1h.6c0,.2.2.5.3.5.1,0,.4,0,.5-.2.2-.2.3-.5.2-1h0c0-1.3.1-3.5,2.7-5.4.6-.4,1.4-.4,2,0,.5.3.7.7.7,1.1,0,.6-.2.9-.3,1l-.4-.4s.1-.2.2-.6c0-.3-.2-.5-.4-.6-.4-.2-1-.3-1.5,0-2.2,1.6-2.5,3.5-2.4,4.7h0c0,.8,0,1.2-.4,1.5-.2.2-.6.3-.8.3"/>
        <path d="M732.6,164.9c0,0-.2,0-.3,0-.6,0-.9-.7-.9-.8l.5-.2s.1.4.4.4c.4,0,.8,0,.9-.3,0-.2,0-.5,0-.5l.5-.2s.2.5,0,.9c-.1.5-.7.7-1.2.7"/>
        <path d="M723.4,170.8c-.3,0-.5,0-.7-.2-.3-.2-.5-.4-.5-.7-.2-1.2.2-2.4.6-3.2,1.2-2.4,2.8-2.6,3.2-2.6.4,0,.7.3,1.1.5.3.2.7.5,1.1.6.6.1,1-.9,1.1-.9l.5.2c0,0-.6,1.4-1.7,1.2-.5,0-.9-.4-1.3-.7-.3-.2-.6-.4-.8-.4-.4,0-1.6.1-2.7,2.3-.4.7-.8,1.8-.5,2.8,0,0,0,0,0,0,0,0,0,.2.2.2.2.1.5,0,.8,0,.3-.2.2-.6.2-.8l.5-.2c.2.7,0,1.2-.5,1.5-.3.1-.5.2-.8.2"/>
        <path d="M721.8,171.8c-.1,0-.2,0-.3,0-.3-.1-.5-.5-.6-1h.6c0,.2.1.4.3.5,0,0,.3,0,.5,0,.2,0,.2-.7.2-1.1h.6c0,.2,0,1.2-.5,1.6-.2.1-.5.2-.7.2"/>
        <path d="M727.3,166.5l-.5-.3c.4-.5,0-1,0-1.1l.4-.4c.2.3.6,1,0,1.8"/>
        <path d="M742.8,119.9s0,0,0,0c0,0-.1.2-.1.3,0,0,0,.2.2.2,0,0,.2,0,.3,0l-.2-.3c0,0,.1-.1.2-.2,0,0,0,0,0,0,0,0,0,0,0,0M741.5,121.2s-.5-.7-.2-1.5c.2-.5.8-.8,1.2-1,.4-.1.8,0,1,.2.5.4.6.8.5,1.3,0,.3-.4.6-.7.8-.3.1-.5.1-.8,0-.3-.1-.5-.4-.5-.7,0-.3.1-.6.4-.8.2-.1.4-.2.7,0,.2,0,.3.2.4.3,0,0-.1-.2-.3-.4,0,0-.2,0-.5,0-.4,0-.7.3-.8.6-.2.5,0,.9,0,.9l-.5.3Z"/>
        <path d="M742.1,123.3c0,0,0,.1,0,.2,0,0,0-.1,0-.2M741.4,123.2s0,0-.2,0c-.1,0-.1.2,0,.2,0,.1.1.2.2.2,0,0,.2,0,.3,0l-.3-.3c0,0,0-.2,0-.2,0,0,0,0,0,0h0M740.3,124.8s-.7-.9-.3-1.9c.2-.4.4-.7.8-.8.4-.1.9,0,1.1,0,.4.2.9,1,.6,1.6-.3.6-.9.7-1.3.5-.2,0-.5-.3-.6-.7,0-.2,0-.5.3-.7.3-.2.5-.2.6-.2,0,0,.2,0,.2,0,0,0-.1-.1-.2-.1,0,0-.4,0-.7,0-.2,0-.4.2-.5.5-.3.7.2,1.3.2,1.3l-.4.3Z"/>
        <path d="M740.8,126.8s0,0,0,0c0,0-.1.1-.2.2,0,0,0,.1,0,.2,0,0,.1.1.2.1,0,0,.2,0,.4,0l-.3-.2c0,0,0-.2,0-.2,0,0,0,0,0,0,0,0,0,0,0,0M740,128.6s-1-.7-.8-1.8c.2-.9,1-1.1,1.3-1.1.8,0,1.3.4,1.4,1.1,0,.4,0,.7-.3.9-.3.3-.7.3-.9.3-.2,0-.4-.2-.6-.3-.1-.2-.2-.4-.2-.6,0-.3.2-.5.5-.6.2,0,.4,0,.6,0,0,0,.1,0,.2.1,0-.1-.3-.2-.7-.2,0,0-.6,0-.8.7-.2.7.5,1.2.5,1.2l-.3.5Z"/>
        <polygon points="746 123.9 745.5 125.5 746 127.2 746.5 125.5 746 123.9"/>
        <polygon points="747.9 124 747.4 125.5 747.9 127.3 748.3 125.6 747.9 124"/>
        <path d="M747,123.3l-.7,2.2.7,2.5.7-2.5-.6-2.2ZM746.9,125.3v.3c0,0,0,.3,0,.3v-.3c0,0,0-.2,0-.2Z"/>
        <polygon points="753.5 125.5 752.9 127.4 753.5 129.4 754 127.4 753.5 125.5"/>
        <polygon points="756.2 125.6 755.6 127.5 756.1 129.6 756.7 127.5 756.2 125.6"/>
        <path d="M754.8,124.7l-.9,2.7.8,3.1.8-3-.8-2.8ZM754.8,126.6l.2.8-.2.8-.2-.9.2-.8Z"/>
        <polygon points="763.5 127.3 762.9 129.2 763.5 131.4 764 129.2 763.5 127.3"/>
        <polygon points="769.3 127 768.7 129.3 769.2 131.9 769.8 129.3 769.3 127"/>
        <polygon points="772.3 127.1 771.7 129.5 772.2 132 772.8 129.5 772.3 127.1"/>
        <path d="M766.4,127.3l-.6,2,.6,2.2.6-2.2-.6-2ZM766.4,129.3h0s0,0,0,0h0Z"/>
        <path d="M765,126.3l-1,3,.9,3.3.9-3.3-.8-3ZM764.9,128.3l.3,1-.3,1.1-.3-1.1.3-1Z"/>
        <path d="M770.8,125.9l-.9,3.4.8,3.9.9-3.8-.8-3.5ZM770.7,128.3l.2,1.1-.3,1.2-.3-1.2.3-1.1Z"/>
      </g>
    </g>
  </g>
</svg>