<?xml version="1.0" encoding="utf-8"?>
<!-- Generator: Adobe Illustrator 27.7.0, SVG Export Plug-In . SVG Version: 6.00 Build 0)  -->
<svg version="1.1" id="Layer_1" xmlns="http://www.w3.org/2000/svg" xmlns:xlink="http://www.w3.org/1999/xlink" x="0px" y="0px"
	 viewBox="0 0 2732 2048" style="enable-background:new 0 0 2732 2048;" xml:space="preserve">
<style type="text/css">
	.st0{fill:#3B57A7;}
</style>
<g id="Background_xA0_Image_00000119104785704679343650000005589148896934049464_">
	
		<image style="overflow:visible;enable-background:new    ;" width="2732" height="2048" id="Background_xA0_Image" xlink:href="62DEA2DD7E0C6769.png"  transform="matrix(1 0 0 1 0 -5.767101e-06)">
	</image>
</g>
<g id="Vector_layer_00000099651286723363563520000006829913385803566227_">
	<path class="st0" d="M1369.3,1448.1c-20.4-5.4-13.8-49.5-14.3-66.3c-3.6-21.3-7.9-42.4-13.7-63.2
		c-20.4-77.4-63.3-148.9-121.8-203.5c-46.2-40.4-101.9-66.2-159.2-86.2c-18.7-6.5-37.8-12.7-57.8-12c-7.9,0.1-15.8,0.4-23.7,0.5
		c-8.6,0.5-20.8,1.1-23.6-9.3c-1.2-4.3,0.1-8.8,3.2-11.9c9.5-7.1,22.7-6.8,33.7-10.8c46.3-14,93.1-26.2,139-41.5
		c60.5-20.6,121.2-50.5,160.2-102.9c39.5-55.5,59.7-123.5,65.9-190.7c-2.1-10-4-20-5.4-30.2c-0.8-5.1,3.6-10.1,8.8-9.9
		c0.8-3.4,0.5-7.7,3.4-10.1c3.6-3,9.1,1.9,6.7,5.8c1,21.5,8.9,41.4,15,61.8c9,24.9,15.5,50.5,21.9,76.1c5.7,17.7,17,32.8,26,48.9
		c11.7,21.8,23.4,44.2,42,61.1c38.5,34.2,78.2,68.1,123.2,93.6c46.7,28.5,99.6,43.4,149.8,64c9.7,4.7,22.9,7.6,27.7,18.2
		c2.8,7-0.5,15.1-7.5,18c-6.5,2.3-13.6,0.2-20.3,0.6c-72.1-1.3-147.7,4-209.5,44.4c-46.4,32.9-80.8,81-106.7,131.1
		c-21.5,43.7-34.9,91.8-46.7,138.7c-5.1,17.4,2.7,34.1,2,51.8c-0.4,8.4,1.8,17.6-1.2,25.6
		C1383.5,1446.3,1376.1,1450.2,1369.3,1448.1z M1124.8,1027.6c40.6,15.8,78.4,38.8,112.6,65.5c66,57.4,113.1,136.5,133.3,221.5
		c23.5-78.7,58.1-157,117.2-215.6c55.3-55,135.4-73.9,211.2-76c-61.1-21.9-121.8-47.6-174-86.9c-33.6-26.8-68-54-93.3-89.1
		c-16-25.6-31.9-55.1-44.5-82.5c-7.6-18.9-9.3-39.6-15.4-59c-7.7,51.6-25.1,101.7-54,145.1c-26.7,38.9-65.3,68-106.6,89.9
		c-55.2,28-115.8,41.7-175,58.2C1066.8,1006,1096,1016.4,1124.8,1027.6z"/>
</g>
</svg>
