<?xml version="1.0" encoding="UTF-8"?>
<svg id="Layer_2" xmlns="http://www.w3.org/2000/svg" xmlns:xlink="http://www.w3.org/1999/xlink" viewBox="0 0 669.47 177.48">
  <defs>
    <style>
      .cls-1 {
        fill: url(#linear-gradient-7);
      }

      .cls-2 {
        fill: url(#linear-gradient-5);
      }

      .cls-3 {
        fill: url(#linear-gradient-6);
      }

      .cls-4 {
        fill: url(#linear-gradient-4);
      }

      .cls-5 {
        fill: url(#linear-gradient-3);
      }

      .cls-6 {
        fill: url(#linear-gradient-2);
      }

      .cls-7 {
        fill: url(#linear-gradient);
      }

      .cls-8 {
        fill: #1a4ad4;
      }
    </style>
    <linearGradient id="linear-gradient" x1="380.98" y1="128.6" x2="669.47" y2="128.6" gradientUnits="userSpaceOnUse">
      <stop offset="0" stop-color="#e80033"/>
      <stop offset=".17" stop-color="#cd0258"/>
      <stop offset=".45" stop-color="#a6058f"/>
      <stop offset=".69" stop-color="#8a07b7"/>
      <stop offset=".88" stop-color="#7909cf"/>
      <stop offset="1" stop-color="#730ad9"/>
    </linearGradient>
    <linearGradient id="linear-gradient-2" x1="373.59" y1="154" x2="548.14" y2="207.26" xlink:href="#linear-gradient"/>
    <linearGradient id="linear-gradient-3" x1="462.65" y1="-14.16" x2="565.61" y2="37.83" gradientUnits="userSpaceOnUse">
      <stop offset="0" stop-color="#194ad4"/>
      <stop offset=".12" stop-color="#273fd4"/>
      <stop offset=".51" stop-color="#5022d7"/>
      <stop offset=".82" stop-color="#6910d8"/>
      <stop offset="1" stop-color="#730ad9"/>
    </linearGradient>
    <linearGradient id="linear-gradient-4" x1="468.52" y1="-25.79" x2="571.49" y2="26.19" xlink:href="#linear-gradient-3"/>
    <linearGradient id="linear-gradient-5" x1="473.78" y1="-36.21" x2="576.75" y2="15.78" xlink:href="#linear-gradient-3"/>
    <linearGradient id="linear-gradient-6" x1="317.71" y1="115.93" x2="594.1" y2="15" xlink:href="#linear-gradient-3"/>
    <linearGradient id="linear-gradient-7" x1="581.47" y1="114.9" x2="674" y2="88.56" xlink:href="#linear-gradient-3"/>
  </defs>
  <g id="Layer_1-2" data-name="Layer_1">
    <g>
      <g>
        <path class="cls-7" d="M534.74,79.84c-46.92,1.5-81.19,14.72-81.19,14.72-26.64,11.55-57.71,9.99-72.58,8.27v12.71c.91.59,1.97,1.24,3.16,1.96,12.66,7.82,38.69,23.42,46.49,24.34,0,0-35.69-.46-49.65.78v13.32c46.78-10.26,170.25,18.86,170.25,18.86,62.01,9.48,105.34-8.73,118.24-15.2v-10.85c-16.35,9.03-58.73,15.87-58.73,15.87-51.07,6.45-94.75-9-98.05-10.21,17.97,2.55,79.13-14.45,79.13-14.45,38-9.24,68.53-5.59,77.65-4.11v-18.13c-42.26-26.11-88.3-39.38-134.73-37.87ZM561.54,139.66s-86.26,19.5-144.4-12.36c0,0-7.05-3.49-14.99-7.92,27.35.13,50.87-10.85,50.87-10.85,69.63-34.09,158.5-1.37,199.09,17.81-19.51.13-51.07,2.55-90.57,13.32Z"/>
        <path class="cls-6" d="M435.38,164.71c-7.24-.54-14.21-.85-20.7-.88v10.84l20.7,2.54v-12.5Z"/>
        <path class="cls-5" d="M557.82,21.57c-11.04,1.57-6.82,1.19-22.08,1.9v11.63c6.97.89,14.39,1.43,22.08,1.46v-14.99Z"/>
        <path class="cls-4" d="M561.5,21.57v14.94c8.38-.15,17-.92,25.64-2.63v-15.13c-8.03,1.7-16.6,2.66-25.64,2.83Z"/>
        <path class="cls-2" d="M570.59.47c-3.46.26-6.97.44-10.61.44-2.56,0-5.08-.09-7.58-.21v15c2.5.12,7.61,1.2,18.18-2.78V.47Z"/>
        <path class="cls-3" d="M669.47,14.97V0s0,0-.02,0c-11.25,11.17-30.08,24.37-30.08,24.37-34.61,27.55-77.68,28.52-109.6,23.74-19.24-2.88-37.9-8.75-55.62-16.78-42.06-19.07-74.85-23.2-93.17-23.69v13.86c15.27-1.15,41.14-.11,71.17,13.38,0,0,65.33,32.88,84.35,29.36,0,0-48.86,25.89-105.42,11.2,0,0-29.74-9.4-50.1-21.65v19.02c14.95,10.13,39.4,22.75,71.35,25.63,17.99,1.64,36.06-.43,53.72-5.45,31.62-9,119.32-31.62,163.42-20.31v-21.3c-17.42-2.15-45.01-3.22-45.01-3.22,7.29-.89,28.44-18.61,42.58-31.13.04-.05,1.13-.97,2.43-2.04Z"/>
        <path class="cls-1" d="M667.59,85.9c-5.03-1.27-10.69-2.1-16.8-2.52v11.03c5.6.42,18.68,7.23,18.68,7.23v-15.26l-1.87-.47Z"/>
      </g>
      <g>
        <path class="cls-8" d="M192.62,45.24c-5.11,1.39-7.7,1.48-9.03,1.44v48.4h-13.6v-23.61c-4.84,1.32-7.52,1.51-9.01,1.51v22.1h-10.42v-23.26c-4.84,1.27-7.53,1.44-9.03,1.42v21.84h-10.02v-23.26c-4.8,1.25-7.5,1.42-9.01,1.42v21.84h-13.05v-23.26c-4.82,1.25-7.5,1.42-9.01,1.42v21.84h-13.45v-49.89c-4.94,1.36-7.58,1.51-9.01,1.49v57.42h114.62v-58.86Z"/>
        <path class="cls-8" d="M211.77,45.26c-5.11,1.37-7.69,1.46-9.01,1.42v57.42h9.01v-58.84Z"/>
        <path class="cls-8" d="M68.16,71.87c-4.91,1.27-7.57,1.39-9.01,1.37v21.84c-24.03.68-32.93.68-56.96.02l-.72-.02c0,1.54-.21,4.24-1.48,9.03h68.16v-32.24Z"/>
        <path class="cls-8" d="M302.05,104.36v-13.38l-9.57-9.57h-38.53l22.12-22.1c-3.16-1.82-4.8-3.16-5.73-4.03l-26.08,26.13-3.76,3.79,3.16,3.09h45.98l5.54,5.53v3.67h-60.09v-15.75c-3.47.94-5.58,1.15-6.86,1.18v18.67c0,5.77-3.53,11.05-8.85,13.25,1.7,3.14,2.38,5.11,2.71,6.31,6.95-2.92,11.82-9.39,12.81-16.78h67.17Z"/>
        <path class="cls-8" d="M334.82,104.36c7.31,0,13.25-5.94,13.25-13.25s-5.94-13.25-13.25-13.25-13.25,5.94-13.25,13.25c0,2.31.59,4.47,1.64,6.36h-6.95v-15.74c-3.47.94-5.58,1.15-6.86,1.18v18.67c0,5.77-3.53,11.05-8.85,13.25,1.7,3.14,2.39,5.11,2.71,6.31,6.95-2.92,11.82-9.4,12.81-16.79h18.76ZM328.45,91.11c0-3.51,2.86-6.37,6.37-6.37s6.37,2.85,6.37,6.37-2.85,6.36-6.37,6.36-6.37-2.85-6.37-6.36Z"/>
        <path class="cls-8" d="M230.19,67.14l-5.27,5.33c.85.64,1.88,1.51,3.09,2.64,1.22,1.12,2.19,2.23,2.92,3.33l5.36-5.32c-.73-1.16-1.69-2.3-2.87-3.41-1.18-1.12-2.26-1.97-3.23-2.57Z"/>
        <path class="cls-8" d="M145.35,53.56l6.46-6.42c-.88-1.4-2.03-2.77-3.46-4.12-1.43-1.34-2.72-2.38-3.89-3.1l-6.35,6.43c1.02.77,2.27,1.83,3.73,3.18,1.47,1.36,2.64,2.69,3.52,4.02Z"/>
        <path class="cls-8" d="M138.49,64.79l6.46-6.42c-.88-1.4-2.03-2.77-3.46-4.12-1.43-1.34-2.72-2.38-3.89-3.09l-6.35,6.43c1.02.77,2.27,1.83,3.73,3.18,1.47,1.36,2.64,2.69,3.52,4.02Z"/>
        <path class="cls-8" d="M94.94,113.95c1.02.77,2.27,1.83,3.73,3.18,1.47,1.36,2.64,2.69,3.52,4.02l6.46-6.42c-.88-1.4-2.03-2.77-3.46-4.12-1.43-1.34-2.72-2.38-3.89-3.09l-6.35,6.43Z"/>
        <path class="cls-8" d="M27.23,113.95c1.02.77,2.27,1.83,3.73,3.18,1.47,1.36,2.64,2.69,3.52,4.02l6.46-6.42c-.88-1.4-2.03-2.77-3.46-4.12-1.43-1.34-2.72-2.38-3.89-3.09l-6.35,6.43Z"/>
        <path class="cls-8" d="M150.31,60.77c1.47,1.36,2.64,2.69,3.52,4.02l6.46-6.42c-.88-1.4-2.03-2.77-3.46-4.12-1.43-1.34-2.72-2.38-3.89-3.09l-6.35,6.43c1.02.77,2.27,1.83,3.73,3.18Z"/>
        <path class="cls-8" d="M20.3,134.19l-6.3,11.32h-.17l-6.61-11.39h-.02c-.93-.06-1.85-.15-2.82-.15-1.44,0-2.9.13-4.3.23l10.56,17.19v5.87h6.15v-5.87l10.67-17.26c-.93-.06-1.85-.15-2.82-.15-1.46,0-2.93.13-4.35.23Z"/>
        <path class="cls-8" d="M52.31,136.67c-2.61-2.31-5.72-3.48-9.31-3.48s-6.7,1.17-9.29,3.48c-2.61,2.33-3.92,5.28-3.92,8.84s1.31,6.53,3.92,8.84c2.59,2.33,5.7,3.48,9.29,3.48s6.7-1.15,9.31-3.48c2.61-2.31,3.9-5.26,3.9-8.84s-1.29-6.51-3.9-8.84ZM47.95,150.6c-1.32,1.29-2.97,1.93-4.96,1.93s-3.67-.64-5-1.93c-1.31-1.31-1.97-2.99-1.97-5.09s.66-3.79,1.97-5.07c1.32-1.29,2.99-1.93,5-1.93s3.63.64,4.96,1.93c1.31,1.29,1.97,2.99,1.97,5.07s-.66,3.79-1.97,5.09Z"/>
        <path class="cls-8" d="M80.26,134.15v11.62c0,4.39-1.93,6.59-5.81,6.59s-5.87-2.2-5.87-6.59v-11.73c-.55-.04-1.08-.08-1.65-.08-1.55,0-3.1.15-4.6.25v11.53c0,3.84,1.08,6.83,3.24,8.93,2.18,2.12,5.13,3.16,8.88,3.16s6.68-1.04,8.86-3.16c2.16-2.1,3.24-5.09,3.24-8.93v-11.64c-.87-.06-1.72-.13-2.61-.13-1.23,0-2.46.09-3.67.19Z"/>
        <polygon class="cls-8" points="92.13 139.36 101.25 139.36 101.25 157.24 107.55 157.24 107.55 139.36 116.67 139.36 116.67 133.74 92.13 133.74 92.13 139.36"/>
        <path class="cls-8" d="M142.15,134.15v8.18h-13.4v-8.25c-.72-.06-1.44-.11-2.2-.11-1.36,0-2.73.11-4.05.21v23.07h6.25v-9.31h13.4v9.31h6.3v-23.15c-.83-.06-1.67-.13-2.52-.13-1.29,0-2.56.09-3.79.19Z"/>
        <path class="cls-8" d="M183.03,153.97c-2.57,0-4.67-.8-6.26-2.37-1.61-1.57-2.4-3.6-2.4-6.09s.79-4.62,2.37-6.15c1.57-1.53,3.67-2.29,6.3-2.29,3.63,0,6.42,1.33,8.37,3.99l3.37-1.97c-2.5-3.94-6.38-5.9-11.64-5.9-3.77,0-6.89,1.12-9.35,3.37-2.48,2.23-3.71,5.22-3.71,8.95s1.23,6.74,3.69,8.97c2.44,2.23,5.56,3.35,9.37,3.35,5.2,0,9.1-1.97,11.68-5.91l-3.41-1.99c-2.03,2.69-4.83,4.03-8.37,4.03Z"/>
        <path class="cls-8" d="M205.51,153.29v-6.11h14.82c.02-.57.09-1.14.09-1.72,0-.72-.06-1.44-.11-2.16h-14.8v-5.64h16.45c.02-.7.11-1.38.11-2.1,0-.61-.04-1.21-.08-1.82h-20.82v23.51h21.35c.04-.62.11-1.23.11-1.87,0-.7-.06-1.4-.11-2.08h-17.01Z"/>
        <path class="cls-8" d="M249.48,134.12v17.09l-15.6-17.47h-4.33v23.51h4.26v-17.54l15.6,17.54h4.37v-23.26c-.34,0-.68-.02-1.02-.02-1.1,0-2.2.08-3.27.15Z"/>
        <path class="cls-8" d="M260.04,133.74c-.02.28-.04.57-.04.85,0,1.04.13,2.08.19,3.07h9.65v19.59h4.33v-19.59h9.65c.04-.7.13-1.38.13-2.1,0-.61-.04-1.21-.09-1.82h-23.83Z"/>
        <path class="cls-8" d="M294.56,153.29v-6.11h17c.04-.57.09-1.14.09-1.72,0-.72-.06-1.44-.09-2.16h-17v-5.64h18.62c.04-.7.13-1.38.13-2.1,0-.61-.04-1.21-.09-1.82h-23v23.51h23.54c.02-.62.09-1.23.09-1.87,0-.7-.06-1.4-.09-2.08h-19.21Z"/>
        <path class="cls-8" d="M346.34,147.61c.89-1.36,1.32-2.95,1.32-4.77,0-2.69-.91-4.88-2.73-6.57-1.8-1.68-4.09-2.54-6.83-2.54h-17.15v23.51h4.33v-5.43h13.49l2.97,5.43h4.71l-3.69-6.51c1.5-.7,2.69-1.74,3.56-3.12ZM341.9,146.51c-1,.89-2.31,1.34-3.96,1.34h-12.64v-10.16h12.64c1.65,0,2.95.47,3.96,1.38.98.93,1.48,2.18,1.48,3.77s-.49,2.78-1.48,3.67Z"/>
      </g>
    </g>
  </g>
</svg>